<?xml version="1.0" encoding="utf-8"?>
<!-- Generator: Adobe Illustrator 24.3.0, SVG Export Plug-In . SVG Version: 6.00 Build 0)  -->
<svg version="1.1" id="Слой_1" xmlns="http://www.w3.org/2000/svg" xmlns:xlink="http://www.w3.org/1999/xlink" x="0px" y="0px"
	 viewBox="0 0 273.46 187.17" style="enable-background:new 0 0 273.46 187.17;" xml:space="preserve">
<style type="text/css">
	.st0{fill:url(#SVGID_1_);}
	.st1{fill:url(#SVGID_2_);}
	.st2{fill:#64A4FF;}
	.st3{fill:#BBD070;}
	.st4{fill:#97A43C;}
	.st5{fill:#48753A;}
	.st6{fill:#DBD8E3;}
	.st7{fill:#323657;}
	.st8{fill:#EEA987;}
	.st9{fill:#E8734D;}
	.st10{fill:#C4C1CC;}
	.st11{fill:#EFAA88;}
	.st12{fill:#EEA886;}
	.st13{fill:#16202E;}
	.st14{fill:#A77860;}
	.st15{fill:#4DA8F2;}
	.st16{fill:#FFC955;}
	.st17{clip-path:url(#SVGID_4_);fill:#96CBFF;}
	.st18{clip-path:url(#SVGID_4_);fill:#95CAFF;}
	.st19{clip-path:url(#SVGID_4_);fill:#94C9FF;}
	.st20{clip-path:url(#SVGID_4_);fill:#93C9FF;}
	.st21{clip-path:url(#SVGID_4_);fill:#92C8FF;}
	.st22{clip-path:url(#SVGID_4_);fill:#91C7FF;}
	.st23{clip-path:url(#SVGID_4_);fill:#90C6FF;}
	.st24{clip-path:url(#SVGID_4_);fill:#8FC6FF;}
	.st25{clip-path:url(#SVGID_4_);fill:#8EC5FF;}
	.st26{clip-path:url(#SVGID_4_);fill:#8DC4FF;}
	.st27{clip-path:url(#SVGID_4_);fill:#8CC3FF;}
	.st28{clip-path:url(#SVGID_4_);fill:#8BC2FF;}
	.st29{clip-path:url(#SVGID_4_);fill:#8AC2FF;}
	.st30{clip-path:url(#SVGID_4_);fill:#89C1FF;}
	.st31{clip-path:url(#SVGID_4_);fill:#88C0FF;}
	.st32{clip-path:url(#SVGID_4_);fill:#87BFFF;}
	.st33{clip-path:url(#SVGID_4_);fill:#86BFFF;}
	.st34{clip-path:url(#SVGID_4_);fill:#85BEFF;}
	.st35{clip-path:url(#SVGID_4_);fill:#84BDFF;}
	.st36{clip-path:url(#SVGID_4_);fill:#83BCFF;}
	.st37{clip-path:url(#SVGID_4_);fill:#82BBFF;}
	.st38{clip-path:url(#SVGID_4_);fill:#81BBFF;}
	.st39{clip-path:url(#SVGID_4_);fill:#80BAFF;}
	.st40{clip-path:url(#SVGID_4_);fill:#7FB9FF;}
	.st41{clip-path:url(#SVGID_4_);fill:#7EB8FF;}
	.st42{clip-path:url(#SVGID_4_);fill:#7DB7FF;}
	.st43{clip-path:url(#SVGID_4_);fill:#7CB7FF;}
	.st44{clip-path:url(#SVGID_4_);fill:#7BB6FF;}
	.st45{clip-path:url(#SVGID_4_);fill:#7AB5FF;}
	.st46{clip-path:url(#SVGID_4_);fill:#79B4FF;}
	.st47{clip-path:url(#SVGID_4_);fill:#78B4FF;}
	.st48{clip-path:url(#SVGID_4_);fill:#77B3FF;}
	.st49{clip-path:url(#SVGID_4_);fill:#76B2FF;}
	.st50{clip-path:url(#SVGID_4_);fill:#74B1FF;}
	.st51{clip-path:url(#SVGID_4_);fill:#73B0FF;}
	.st52{clip-path:url(#SVGID_4_);fill:#72B0FF;}
	.st53{clip-path:url(#SVGID_4_);fill:#71AFFF;}
	.st54{clip-path:url(#SVGID_4_);fill:#70AEFF;}
	.st55{clip-path:url(#SVGID_4_);fill:#6FADFF;}
	.st56{clip-path:url(#SVGID_4_);fill:#6EADFF;}
	.st57{clip-path:url(#SVGID_4_);fill:#6DACFF;}
	.st58{clip-path:url(#SVGID_4_);fill:#6CABFF;}
	.st59{clip-path:url(#SVGID_4_);fill:#6BAAFF;}
	.st60{clip-path:url(#SVGID_4_);fill:#6AA9FF;}
	.st61{clip-path:url(#SVGID_4_);fill:#69A9FF;}
	.st62{clip-path:url(#SVGID_4_);fill:#68A8FF;}
	.st63{clip-path:url(#SVGID_4_);fill:#67A7FF;}
	.st64{clip-path:url(#SVGID_4_);fill:#66A6FF;}
	.st65{clip-path:url(#SVGID_4_);fill:#65A6FF;}
	.st66{clip-path:url(#SVGID_4_);fill:#64A5FF;}
	.st67{clip-path:url(#SVGID_4_);fill:#63A4FF;}
	.st68{clip-path:url(#SVGID_4_);fill:#62A3FF;}
	.st69{clip-path:url(#SVGID_4_);fill:#61A2FF;}
	.st70{clip-path:url(#SVGID_4_);fill:#60A2FF;}
	.st71{clip-path:url(#SVGID_4_);fill:#5FA1FF;}
	.st72{clip-path:url(#SVGID_4_);fill:#5EA0FF;}
	.st73{clip-path:url(#SVGID_4_);fill:#5D9FFF;}
	.st74{clip-path:url(#SVGID_4_);fill:#5C9EFF;}
	.st75{clip-path:url(#SVGID_4_);fill:#5B9EFF;}
	.st76{clip-path:url(#SVGID_4_);fill:#5A9DFF;}
	.st77{clip-path:url(#SVGID_4_);fill:#599CFF;}
	.st78{clip-path:url(#SVGID_4_);fill:#589BFF;}
	.st79{clip-path:url(#SVGID_4_);fill:#579BFF;}
	.st80{clip-path:url(#SVGID_4_);fill:#569AFF;}
	.st81{clip-path:url(#SVGID_4_);fill:#5599FF;}
	.st82{fill:#CFA345;}
	.st83{fill:#6069A8;}
	.st84{fill:#202338;}
	.st85{fill:#464240;}
	.st86{fill:#EB4747;}
	.st87{fill:#5F8CC9;}
	.st88{fill:#5E5853;}
	.st89{fill:#91887F;}
	.st90{fill:#EDDAD3;}
	.st91{fill:#6E6760;}
	.st92{fill:#807066;}
	.st93{fill:#FFCB55;}
	.st94{fill:#E3F2FF;}
	.st95{fill:#EBEBEB;}
	.st96{fill:#CF8C6C;}
	.st97{fill:#162D40;}
	.st98{fill:#1D3B54;}
	.st99{fill:#D1C0BA;}
	.st100{fill:#FAE6DE;}
	.st101{fill:#54281A;}
	.st102{fill:#DB9C7C;}
	.st103{fill:#366E9C;}
	.st104{fill:#5C544D;}
	.st105{fill:#3C4145;}
	.st106{fill:#FCCCA2;}
	.st107{fill:#E2D2CA;}
	.st108{fill:#63A4FF;}
	.st109{fill:#F25F54;}
	.st110{fill:#C98462;}
	.st111{fill:#DE9D7D;}
	.st112{fill:#252E3B;}
	.st113{fill:#FFD255;}
	.st114{fill:#88C0FF;}
	.st115{fill:#5FA0FF;}
	.st116{fill:#5189DB;}
	.st117{fill:#C2BEBC;}
	.st118{fill:#D6D6D6;}
	.st119{fill:#E8E8E8;}
	.st120{fill:#C2C2C2;}
</style>
<g>
	<linearGradient id="SVGID_1_" gradientUnits="userSpaceOnUse" x1="195.4465" y1="115.3591" x2="271.1122" y2="115.3591">
		<stop  offset="0" style="stop-color:#96CBFF"/>
		<stop  offset="1" style="stop-color:#5599FF"/>
	</linearGradient>
	<path class="st0" d="M261.2,132.14c1.58-2.63,2.76-5.43,3.53-8.32l6.25-1.2l0.06-6.91l0.06-6.91l-6.23-1.31
		c-0.72-2.9-1.84-5.73-3.38-8.38l3.57-5.26l-4.84-4.94l-4.84-4.94l-5.33,3.47c-2.63-1.58-5.43-2.76-8.32-3.53l-1.2-6.25l-6.91-0.06
		l-6.91-0.06l-1.31,6.23c-2.9,0.72-5.73,1.84-8.38,3.38l-5.26-3.57l-4.94,4.84l-4.93,4.84l3.47,5.33c-1.58,2.63-2.76,5.43-3.53,8.32
		l-6.25,1.2l-0.06,6.91l-0.06,6.91l6.23,1.31c0.72,2.9,1.84,5.73,3.38,8.38l-3.57,5.26l4.84,4.94l4.84,4.94l5.33-3.47
		c2.63,1.58,5.43,2.76,8.32,3.53l1.2,6.25l6.91,0.06l6.91,0.06l1.31-6.23c2.9-0.72,5.73-1.84,8.38-3.38l5.26,3.57l4.94-4.84
		l4.94-4.84L261.2,132.14z M221.18,127.24c-6.56-6.68-6.46-17.42,0.22-23.98c6.68-6.56,17.42-6.46,23.98,0.22
		c6.56,6.68,6.46,17.42-0.22,23.98C238.47,134.02,227.74,133.92,221.18,127.24z"/>
	
		<linearGradient id="SVGID_2_" gradientUnits="userSpaceOnUse" x1="-188.1298" y1="747.0064" x2="-131.6307" y2="747.0064" gradientTransform="matrix(0.9948 -0.1022 0.1022 0.9948 157.6705 -693.4862)">
		<stop  offset="0" style="stop-color:#96CBFF"/>
		<stop  offset="1" style="stop-color:#5599FF"/>
	</linearGradient>
	<path class="st1" d="M96.99,76.31c0.97-2.07,1.63-4.24,1.99-6.45l4.55-1.37l-0.48-5.14l-0.48-5.14l-4.73-0.5
		c-0.76-2.1-1.81-4.11-3.15-5.97l2.25-4.18l-3.97-3.3l-3.97-3.3l-3.69,2.99c-2.07-0.97-4.24-1.63-6.45-1.99l-1.37-4.55l-5.14,0.48
		l-5.14,0.48l-0.5,4.73c-2.1,0.76-4.11,1.81-5.97,3.15L56.55,44l-3.3,3.97l-3.3,3.97l2.99,3.69c-0.97,2.07-1.63,4.24-1.99,6.45
		l-4.55,1.37l0.48,5.14l0.48,5.14l4.73,0.5c0.76,2.1,1.81,4.11,3.15,5.97l-2.25,4.18l3.97,3.3l3.97,3.3L64.63,88
		c2.07,0.97,4.24,1.63,6.45,1.99l1.37,4.55l5.14-0.48l5.14-0.48l0.5-4.73c2.1-0.76,4.11-1.81,5.97-3.15l4.18,2.25l3.3-3.97l3.3-3.97
		L96.99,76.31z M66.88,75.72c-5.38-4.46-6.13-12.45-1.66-17.83c4.46-5.38,12.45-6.13,17.83-1.66c5.38,4.46,6.13,12.45,1.66,17.83
		C80.25,79.44,72.27,80.18,66.88,75.72z"/>
	<g>
		<path class="st2" d="M249.56,180.3h-0.43v-30.81c0-6.86-5.58-12.43-12.43-12.43h-31.7c-7.09,0-12.87-5.77-12.87-12.87V66.6
			c0-6.86-5.58-12.43-12.43-12.43H98.86v-0.43h80.83c7.09,0,12.87,5.77,12.87,12.87v57.59c0,6.85,5.58,12.43,12.43,12.43h31.7
			c7.09,0,12.87,5.77,12.87,12.87V180.3z"/>
	</g>
	<g>
		<g>
			<g>
				<g>
					<g>
						<path class="st3" d="M119.58,34.22c0,0,4.89,19.48-6.85,24.81c-11.75,5.33-9.5-4.43-9.5-4.43s-4.82-1.34,8.29-8.77
							C117.71,42.32,119.58,34.22,119.58,34.22z"/>
					</g>
				</g>
			</g>
		</g>
		<g>
			<g>
				<g>
					<g>
						<path class="st4" d="M150.34,35.92c0,0,2.41,16.98-19.82,24.32c-22.23,7.34-25.39,16.65-25.39,16.65
							S104.46,39.25,150.34,35.92z"/>
					</g>
				</g>
			</g>
		</g>
		<g>
			<g>
				<g>
					<g>
						<path class="st5" d="M105.03,69.97c-6.59-2.52,9.08-16.01,21.12-15.64c12.04,0.36,20.2,4.82,28.26,2.94
							C154.41,57.27,137.48,82.36,105.03,69.97z"/>
					</g>
				</g>
			</g>
		</g>
	</g>
	<g>
		<g>
			<g>
				<path class="st6" d="M127.17,81.24c0.38-5.12,0.64-9.91,0.79-14.38c-1.24-0.65-2.72-1.42-3.91-1.98
					c-3.68-1.75-8.8-4.11-12.09-5.62c-1.93-0.88-3.81-1.53-3.81-1.53s-13.14-1.26-14.21-1.19c-0.34,0.02-1.98,0.59-4.13,1.41
					c-4.66,1.77-13.65,5.37-15.08,6.4c-2.1,1.5-9.61,38.31-9.81,40.81c-0.19,2.43,10.21,5.75,19.85,8.3
					c-0.01,3.73-0.08,8.96-0.17,13.73c-0.01,0.82-0.03,1.62-0.04,2.39h42.17c-0.06-0.82-0.11-1.63-0.15-2.39
					c0-0.1-0.01-0.2-0.01-0.3c-0.16-3.23-0.79-9.02-0.63-14.66c0,0-0.1-5.94,0.49-8.5C126.49,92.43,127.17,81.24,127.17,81.24z
					 M73.7,102.88c0.07-4.79,6.45-13.7,6.45-13.7s0.29-0.13,0.3-0.11c0,0,0.33-0.05,0.33-0.04c0.01,0,0.99-0.94,1-0.94
					c0.23,0.85,2.35,12.89,2.87,19.9C78.65,106.81,73.67,105.17,73.7,102.88z"/>
			</g>
		</g>
		<g>
			<g>
				<path class="st7" d="M127.95,127.19c-0.28-2-0.54-3.99-0.78-5.94c0-0.01,0-0.02,0-0.03c-0.08-0.65-0.15-1.29-0.23-1.93
					c0-0.03-0.01-0.07-0.01-0.1c-0.31-2.69-0.56-5.27-0.75-7.63c-0.14-1.81-0.01-3.58,0.24-5.31c0.73-12.08,1.1-24.82,1.1-24.82
					c0.39-5.21,0.61-10.09,0.75-14.63c0,0-16.51-7.8-18-8.25c0,0,3.13,7.35,5.48,23.78c0.9,6.31,2.57,16.93,3.79,27.78v0
					c0.66,5.85,1.89,11.81,2.82,17.09c0.14,0.82,0.28,1.61,0.41,2.39h5.52C128.18,128.78,128.06,127.98,127.95,127.19z"/>
			</g>
		</g>
		<g>
			<g>
				<path class="st7" d="M100.47,107.78c0.65-6.11,1.24-12.21,0.95-15.55c-2.28-26.86-8.72-33.97-9.65-35.01
					c-0.72,0.28-3.47,1.31-4.28,1.63c-4.41,1.74-13.39,4.92-14.6,5.79c-2.1,1.5-10.37,40.09-10.62,42.58
					c-0.17,1.69,10.63,5.21,21.65,8.36c-0.1,3.02,0.18,7.28-0.82,11.73c-0.18,0.79-0.44,1.29-0.48,2.33l15.36-0.06
					c0.09-0.79,0.19-1.59,0.29-2.39c0.29-2.4,0.6-4.86,0.9-7.47c4.61,1.19,7.74,1.96,7.74,1.96s4.33-7.31,5.58-10.27
					C112.71,110.89,107.14,109.56,100.47,107.78z M80.62,98.53c-0.15-5.5-0.12-9.33-0.12-9.33c0.54,1.88,1.3,7.27,1.96,12.62
					C80.22,100.69,80.64,99.64,80.62,98.53z"/>
			</g>
		</g>
		<g>
			<g>
				<path class="st8" d="M93.25,56.96c0,0,1.67-3.16,1.21-12.13c-0.13-2.48,13.05,5.89,13.05,5.89s-0.05,0.86-0.07,2.01
					c-0.01,0.48-0.02,1.01-0.02,1.55c0,0.15,0,0.3,0,0.45c0,0.25,0,0.49,0.01,0.73c0.01,0.3,0.02,0.6,0.03,0.88
					c0.02,0.32,0.04,0.63,0.07,0.91c0.05,0.54,0.37,1.5,0.49,1.76C108.62,60.41,98.18,60.49,93.25,56.96z"/>
			</g>
		</g>
		<g>
			<path class="st9" d="M104.3,62.67l2.43,3.26c0,0-1.42,1.91-3.95,0.5L104.3,62.67z"/>
		</g>
		<g>
			<path class="st9" d="M106.08,66.06c0,0,8.9,21.73,7,49.34l-2.81,5.09l-3.16-4.34c0,0-0.51-36.67-3.04-50.19L106.08,66.06z"/>
		</g>
		<g>
			<path class="st8" d="M106.9,59.62l-2.6,3.04c0,0-4.17-0.81-5.4-2.99C97.67,57.5,106.9,59.62,106.9,59.62z"/>
		</g>
		<g>
			<path class="st10" d="M107.5,56.96c0,0-0.3,2.32-3.2,5.71l3.16,4.25l1.71-8.81L107.5,56.96z"/>
		</g>
		<g>
			<path class="st10" d="M94.04,54.17c0,0,6.04,6.83,10.26,8.5l-1.96,4.85L92.7,56.9L94.04,54.17z"/>
		</g>
		<g>
			<g>
				<path class="st7" d="M156.09,115.93c0,0-8.01-7.77-13.26-9.06c-2.43-0.6-5.63-3.95-8.67-7.89c-1-1.3-1.98-2.66-2.92-4.01
					c0,0,0-0.01,0-0.01c-3.73-5.39-6.65-10.55-6.65-10.55s-11.02-12.92-2.18-18.68c0,0,3.79-0.08,5.87,1.05
					c2.14,1.16,6.7,10.68,7.47,12.37c0.77,1.68,9.15,17.34,9.71,17.69c0.56,0.35,1.5,1.64,4.85,3.44c4.1,2.21,10.55,8.68,10.55,8.68
					L156.09,115.93z"/>
			</g>
		</g>
		<g>
			<path class="st11" d="M117.63,124.92c0,0-1.12-0.04-1.6-0.3c0,0-0.84-0.54-1.45-0.88c-0.2-0.11-0.37-0.2-0.49-0.25
				c-0.49-0.2-1.64-0.48-2.69-1.28c-1.05-0.8-4.49-4.02-4.49-4.02l2.22-3.41l1.02-3.38c0,0,8.01,0.8,9.07,1.43
				c0.1,0.06,0.2,0.13,0.29,0.2c0.85,0.63,1.22,1.45,1.63,1.83c0.15,0.14,1.54,1.63,1.47,2.24c-0.11,0.84-0.52,1.38-1.04,1.63
				c0,0-0.28,1.64-1.13,2.37c0,0-0.21,1.52-1.52,2.13C118.93,123.22,118.54,124.74,117.63,124.92z"/>
		</g>
		<g>
			<path class="st12" d="M104.89,21.69c0,0,14.47-3.49,11.42,14.83c-3.05,18.32-6.52,19.81-15.33,16.16
				c-8.82-3.65-8.2-15.37-8.73-21.11C91.72,25.84,100.26,21.96,104.89,21.69z"/>
		</g>
		<g>
			<path class="st12" d="M97.28,34.38c-0.21-1.61-3.41-2.15-3.63,0.27c-0.22,2.42,1.55,6.64,2.75,6.2
				C97.6,40.42,97.58,36.6,97.28,34.38z"/>
		</g>
		<g>
			<path class="st13" d="M93.09,40.94c0,0,0.29-5.76,2.39-5.97c2.1-0.21,2.46,2.1,2.46,2.1l2.13,0.37c0,0-0.75-5.04,1.34-5.95
				c2.09-0.91,13.65,2.58,15.31,1.07c1.66-1.51,0.72-11.73-2.35-13.09c-3.07-1.36-11.53-4.37-17.64-0.11c0,0-4.82-0.48-5.47,3.41
				C90.6,26.68,91.74,38.08,93.09,40.94z"/>
		</g>
		<g>
			<path class="st7" d="M112.89,111.4l-5.98,10.27c0,0-15.83-4.08-19.52-5.12l8.44-10.05C95.83,106.5,108.28,109.35,112.89,111.4z"
				/>
		</g>
		<g>
			<path class="st14" d="M107.46,56.35L107.46,56.35c-7.76-0.79-10.77-6.77-10.77-6.77c4.88,4.84,10.73,4.71,10.73,4.71
				c0,0.15,0,0.3,0,0.45c0,0.25,0,0.49,0.01,0.73C107.43,55.77,107.44,56.06,107.46,56.35z"/>
		</g>
	</g>
	<g>
		<path class="st15" d="M214.65,147.41c-0.42-0.56-1.1-0.93-1.86-0.94c-1.05-0.01-1.95,0.66-2.27,1.6l0,0l0,0
			c-0.08,0.23-0.12,0.47-0.12,0.73c0,0.3,0.05,0.58,0.14,0.84c0.15,0.42,0.42,0.78,0.77,1.05c0.35,0.27,0.77,0.44,1.23,0.48
			c0.06,0.01,0.12,0.01,0.19,0.01c0.04,0,0.08,0,0.12,0c0.01,0,0.03,0,0.04,0c0.24-0.01,0.46-0.06,0.68-0.14
			c0.9-0.33,1.54-1.18,1.56-2.19C215.13,148.32,214.95,147.81,214.65,147.41z M213.36,150.49L213.36,150.49
			c-0.16,0.06-0.33,0.09-0.51,0.1l0,0c-0.04,0-0.08,0-0.12,0c-0.17,0-0.33-0.03-0.48-0.08c-0.21-0.06-0.41-0.16-0.58-0.3
			c-0.06-0.05-0.12-0.1-0.18-0.16c-0.32-0.33-0.52-0.77-0.51-1.27c0-0.13,0.02-0.25,0.05-0.37c0.01-0.06,0.03-0.12,0.05-0.17
			c0.24-0.71,0.91-1.21,1.7-1.2c0.57,0.01,1.07,0.28,1.38,0.7c0.23,0.3,0.37,0.68,0.36,1.1
			C214.52,149.61,214.04,150.25,213.36,150.49z"/>
	</g>
	<g>
		<path class="st12" d="M124.12,102.96c9,9.26,20.88,20.92,20.88,20.92l4.65-8.82c0,0-10.56-12.38-17.71-20.64
			C129.74,95.51,125.71,98.07,124.12,102.96z"/>
	</g>
	<g>
		<g>
			<path class="st12" d="M118.56,115.42c0,0,2.42,1.17,3.05,1.69c0.63,0.52,3.19,2.44,3.82,2.89c0.62,0.45-0.94,1.73-5.52-0.25
				C115.33,117.76,118.56,115.42,118.56,115.42z"/>
		</g>
	</g>
	<g>
		<polygon class="st16" points="118.78,88.91 114.55,128.16 170.12,128.16 174.34,88.91 		"/>
	</g>
	<g>
		<path class="st16" d="M173.29,126.35h-56l4.27-39.68h56L173.29,126.35z M117.77,125.91h55.13l4.17-38.81h-55.13L117.77,125.91z"/>
	</g>
	<g>
		
			<rect x="110.13" y="124.63" transform="matrix(-1 -1.224647e-16 1.224647e-16 -1 229.5454 252.7832)" class="st16" width="9.28" height="3.53"/>
	</g>
	<g>
		<g>
			<defs>
				<rect id="SVGID_3_" x="20.86" y="128.08" width="151.01" height="2.39"/>
			</defs>
			<clipPath id="SVGID_4_">
				<use xlink:href="#SVGID_3_"  style="overflow:visible;"/>
			</clipPath>
			<path class="st17" d="M20.86,128.08v2.39V128.08z"/>
			<rect x="20.86" y="128.08" class="st17" width="2.32" height="2.39"/>
			<rect x="23.18" y="128.08" class="st18" width="2.32" height="2.39"/>
			<rect x="25.5" y="128.08" class="st19" width="2.32" height="2.39"/>
			<rect x="27.82" y="128.08" class="st20" width="2.32" height="2.39"/>
			<rect x="30.15" y="128.08" class="st21" width="2.32" height="2.39"/>
			<rect x="32.47" y="128.08" class="st22" width="2.32" height="2.39"/>
			<rect x="34.79" y="128.08" class="st23" width="2.32" height="2.39"/>
			<rect x="37.12" y="128.08" class="st24" width="2.32" height="2.39"/>
			<rect x="39.44" y="128.08" class="st25" width="2.32" height="2.39"/>
			<rect x="41.76" y="128.08" class="st26" width="2.32" height="2.39"/>
			<rect x="44.09" y="128.08" class="st27" width="2.32" height="2.39"/>
			<rect x="46.41" y="128.08" class="st28" width="2.32" height="2.39"/>
			<rect x="48.73" y="128.08" class="st29" width="2.32" height="2.39"/>
			<rect x="51.06" y="128.08" class="st30" width="2.32" height="2.39"/>
			<rect x="53.38" y="128.08" class="st31" width="2.32" height="2.39"/>
			<rect x="55.7" y="128.08" class="st32" width="2.32" height="2.39"/>
			<rect x="58.03" y="128.08" class="st33" width="2.32" height="2.39"/>
			<rect x="60.35" y="128.08" class="st34" width="2.32" height="2.39"/>
			<rect x="62.67" y="128.08" class="st35" width="2.32" height="2.39"/>
			<rect x="64.99" y="128.08" class="st36" width="2.32" height="2.39"/>
			<rect x="67.32" y="128.08" class="st37" width="2.32" height="2.39"/>
			<rect x="69.64" y="128.08" class="st38" width="2.32" height="2.39"/>
			<rect x="71.96" y="128.08" class="st39" width="2.32" height="2.39"/>
			<rect x="74.29" y="128.08" class="st40" width="2.32" height="2.39"/>
			<rect x="76.61" y="128.08" class="st41" width="2.32" height="2.39"/>
			<rect x="78.93" y="128.08" class="st42" width="2.32" height="2.39"/>
			<rect x="81.26" y="128.08" class="st43" width="2.32" height="2.39"/>
			<rect x="83.58" y="128.08" class="st44" width="2.32" height="2.39"/>
			<rect x="85.9" y="128.08" class="st45" width="2.32" height="2.39"/>
			<rect x="88.23" y="128.08" class="st46" width="2.32" height="2.39"/>
			<rect x="90.55" y="128.08" class="st47" width="2.32" height="2.39"/>
			<rect x="92.87" y="128.08" class="st48" width="2.32" height="2.39"/>
			<rect x="95.2" y="128.08" class="st49" width="2.32" height="2.39"/>
			<rect x="97.52" y="128.08" class="st50" width="2.32" height="2.39"/>
			<rect x="99.84" y="128.08" class="st51" width="2.32" height="2.39"/>
			<rect x="102.17" y="128.08" class="st52" width="2.32" height="2.39"/>
			<rect x="104.49" y="128.08" class="st53" width="2.32" height="2.39"/>
			<rect x="106.81" y="128.08" class="st54" width="2.32" height="2.39"/>
			<rect x="109.14" y="128.08" class="st55" width="2.32" height="2.39"/>
			<rect x="111.46" y="128.08" class="st56" width="2.32" height="2.39"/>
			<rect x="113.78" y="128.08" class="st57" width="2.32" height="2.39"/>
			<rect x="116.11" y="128.08" class="st58" width="2.32" height="2.39"/>
			<rect x="118.43" y="128.08" class="st59" width="2.32" height="2.39"/>
			<rect x="120.75" y="128.08" class="st60" width="2.32" height="2.39"/>
			<rect x="123.07" y="128.08" class="st61" width="2.32" height="2.39"/>
			<rect x="125.4" y="128.08" class="st62" width="2.32" height="2.39"/>
			<rect x="127.72" y="128.08" class="st63" width="2.32" height="2.39"/>
			<rect x="130.04" y="128.08" class="st64" width="2.32" height="2.39"/>
			<rect x="132.37" y="128.08" class="st65" width="2.32" height="2.39"/>
			<rect x="134.69" y="128.08" class="st66" width="2.32" height="2.39"/>
			<rect x="137.01" y="128.08" class="st67" width="2.32" height="2.39"/>
			<rect x="139.34" y="128.08" class="st68" width="2.32" height="2.39"/>
			<rect x="141.66" y="128.08" class="st69" width="2.32" height="2.39"/>
			<rect x="143.98" y="128.08" class="st70" width="2.32" height="2.39"/>
			<rect x="146.31" y="128.08" class="st71" width="2.32" height="2.39"/>
			<rect x="148.63" y="128.08" class="st72" width="2.32" height="2.39"/>
			<rect x="150.95" y="128.08" class="st73" width="2.32" height="2.39"/>
			<rect x="153.28" y="128.08" class="st74" width="2.32" height="2.39"/>
			<rect x="155.6" y="128.08" class="st75" width="2.32" height="2.39"/>
			<rect x="157.92" y="128.08" class="st76" width="2.32" height="2.39"/>
			<rect x="160.24" y="128.08" class="st77" width="2.32" height="2.39"/>
			<rect x="162.57" y="128.08" class="st78" width="2.32" height="2.39"/>
			<rect x="164.89" y="128.08" class="st79" width="2.32" height="2.39"/>
			<rect x="167.21" y="128.08" class="st80" width="2.32" height="2.39"/>
			<rect x="169.54" y="128.08" class="st81" width="2.32" height="2.39"/>
			<path class="st81" d="M171.86,130.47v-2.39V130.47z"/>
		</g>
	</g>
	<g>
		<rect x="133.31" y="179.1" class="st16" width="130.83" height="2.39"/>
	</g>
	<g>
		<path class="st82" d="M141.36,107.9c-0.45,2.18,0.57,4.24,2.28,4.59c1.7,0.35,3.45-1.14,3.89-3.33c0.45-2.19-0.57-4.24-2.28-4.59
			C143.55,104.23,141.81,105.72,141.36,107.9z"/>
	</g>
	<g>
		<g>
			<g>
				<path class="st83" d="M247.33,92.35c0,0,1.28,2.17,1.82,2.53c0.73,0.48,0.27,0.97-0.07,0.97c-0.35,0-2.13,0.13-2.52-0.32
					c-0.39-0.45-0.59-1.78-0.95-2.13c-0.37-0.35-0.74-1.74,0.18-2.07C246.6,91.02,247.33,92.35,247.33,92.35z"/>
			</g>
		</g>
	</g>
	<g>
		<g>
			<g>
				<path class="st84" d="M246.78,91.39c0,0,1.47,2.54,1.72,2.92c0.25,0.38-0.48,0.38-0.93,0.2c-0.45-0.18-1.59-2-1.75-2.34
					c-0.19-0.4-0.03-0.85-0.03-0.85L246.78,91.39z"/>
			</g>
		</g>
	</g>
	<g>
		<g>
			<g>
				<polygon class="st83" points="245.29,92.76 245.63,95.37 245.81,95.38 245.75,93.5 				"/>
			</g>
		</g>
	</g>
	<g>
		<g>
			<g>
				<path class="st83" d="M234.62,92.35c0,0,1.28,2.17,1.82,2.53c0.73,0.48,0.27,0.97-0.07,0.97c-0.35,0-2.13,0.13-2.52-0.32
					c-0.39-0.45-0.59-1.78-0.95-2.13c-0.37-0.35-0.75-1.77,0.18-2.07C233.89,91.06,234.62,92.35,234.62,92.35z"/>
			</g>
		</g>
	</g>
	<g>
		<g>
			<g>
				<path class="st84" d="M234.14,91.4c0,0,1.39,2.54,1.64,2.92c0.25,0.38-0.48,0.38-0.93,0.2c-0.45-0.18-1.59-2-1.75-2.34
					c-0.19-0.4-0.03-0.85-0.03-0.85L234.14,91.4z"/>
			</g>
		</g>
	</g>
	<g>
		<g>
			<g>
				<polygon class="st83" points="232.58,92.76 232.92,95.37 233.1,95.38 233.04,93.5 				"/>
			</g>
		</g>
	</g>
	<g>
		<g>
			<g>
				<path class="st84" d="M228.94,72.57l11.6,5.28c0,0,1.29,0.42,1.44,1.86c0.45,4.49,3.81,11.6,3.81,11.6
					c1.08,0.53,0.99,0.07,0.99,0.07c-0.68-2.18-1.5-11.16-1.8-14.77c-0.06-0.76-0.1-1.29-0.11-1.46c-0.01-0.11-0.13-0.26-0.35-0.44
					c-1.59-1.29-8.14-3.96-8.14-3.96C231.47,70.64,228.94,72.57,228.94,72.57z"/>
			</g>
		</g>
	</g>
	<g>
		<g>
			<g>
				<path class="st84" d="M226.75,74.84c0.36,3.14,4.83,2.78,4.83,2.78h5.42c0,0-1.42,3.17-1.97,5.84
					c-0.58,2.84-1.96,7.86-1.96,7.86s0.09,0.17,1.07,0.08c0,0,4.26-8.49,5.89-10.62c0.35-0.46,1.36-2.95,1.53-4.44
					c0.06-0.5,0.02-0.89-0.16-1.04c-0.19-0.16-0.62-0.45-1.2-0.82c-1.7-1.07-4.65-2.72-6.29-3.09c-2.2-0.49-5.68-1.42-5.68-1.42
					S226.39,71.71,226.75,74.84z"/>
			</g>
		</g>
	</g>
	<g>
		<path class="st85" d="M230.44,50.69c0,0-0.81-1.54-0.42-3.18c0.4-1.64,1.92-3.28,4.15-2.53c2.23,0.75,4.03,2.48,2.7,4.49
			c-1.34,2,1.21,2.91,0.56,3.86c-0.65,0.95-0.4,1.95-0.13,2.17c0.27,0.22,1.16,1.01,1.06,1.95c-0.1,0.94-4.33-2.73-4.33-2.73
			S231.74,50.1,230.44,50.69z"/>
	</g>
	<g>
		<path class="st86" d="M237.24,70.39c0,0-0.34,1.63-9-0.43C228.24,69.96,231.14,69,237.24,70.39z"/>
	</g>
	<g>
		<g>
			<path class="st87" d="M228.14,70.42c-0.13,0.26-0.27,0.51-0.4,0.77c3.17,0.09,6.33,0.18,9.5,0.28c-0.5-1.68-0.34-3.95-0.25-5.67
				c0.11-2.11,1.27-3.57,1.15-5.7c0.63,0.1,0.73,0.12,1.36,0.22c-0.96-2.73-1.29-4.09-4.27-5.14c-0.97-0.34-1.61-0.41-2.66-0.32
				c-3.45,0.28-4.49,0.33-6.19,3.45c2.65,0.42,2.22,1.38,3.02,4.02c0.39,1.29,0.8,2.72,0.59,4.08
				C229.79,67.74,228.14,69.2,228.14,70.42z"/>
		</g>
	</g>
	<g>
		<g>
			<path class="st12" d="M233.65,55.83c-1.41-0.27-1.11-1.05-1.11-1.05s0.07-0.44,0.09-1c0.01-0.14,0.01-0.29,0.01-0.45
				c0-0.23-0.01-0.47-0.04-0.69c-0.12-0.95,2.56-0.38,2.56-0.38s-0.15,1.92,0.21,2.49C235.75,55.32,235.06,56.1,233.65,55.83z"/>
		</g>
	</g>
	<g>
		<g>
			<path class="st12" d="M230.95,54.78c0,0,2.85,3.29,3.9,4.05c0,0,1.21-1.09,0.46-3.98C235.32,54.85,233.95,54.16,230.95,54.78z"/>
		</g>
	</g>
	<g>
		<path class="st12" d="M231.03,46.86c0,0-1.48,2.85-0.01,5.55c1.47,2.7,4.35-1.18,4.54-1.63c0.19-0.45,1.18-3.03-0.79-3.81
			C232.8,46.19,231.45,46.08,231.03,46.86z"/>
	</g>
	<g>
		<path class="st85" d="M231.52,47.87c0,0-1.02,1.34-1.14,2.33c0,0-0.41-1.87,0.74-3.67c1.15-1.8,4.06-0.09,4.45,0.63
			c0.39,0.72,1.53,1.35-0.39,4.43C235.19,51.6,231.73,49.19,231.52,47.87z"/>
	</g>
	<g>
		<path class="st14" d="M233.89,52.69c0,0-0.26,0.56-1.26,1.08c0.01-0.14,0.01-0.29,0.01-0.45
			C232.64,53.33,233.32,53.25,233.89,52.69z"/>
	</g>
	<g>
		<path class="st12" d="M218.93,67.86c0,0-0.7,0.31-1.04,0.17c-0.33-0.14-0.85-0.17-1.01-0.17c-0.22,0-0.9-0.24-0.89,0.02
			c0.01,0.27,1.11,0.45,1.33,0.53c0.22,0.08-0.67,0.58-0.75,0.79c-0.08,0.22,0.93,1.65,1.49,1.24c0.57-0.41,0.88-1.22,0.99-1.28
			c0.12-0.05,0.43-0.28,0.43-0.28L218.93,67.86z"/>
	</g>
	<g>
		<path class="st12" d="M216.68,69.08c0,0-1.65,1.37-1.68,1.55c-0.03,0.18,0.06,0.27,0.22,0.15c0.16-0.12,1.64-1.28,1.64-1.28
			s-1.65,1.95-1.71,2.1c-0.03,0.08,0.13,0.26,0.22,0.2c0.09-0.06,1.85-1.9,1.85-1.9s-1.54,1.83-1.55,1.96
			c-0.01,0.12,0.18,0.25,0.3,0.12c0.12-0.13,1.66-1.74,1.66-1.74s-1.03,1.4-0.97,1.53c0.04,0.08,0.17,0.23,0.42-0.14
			c0.25-0.37,0.95-1.18,0.95-1.18L216.68,69.08z"/>
	</g>
	<g>
		<g>
			<path class="st16" d="M236.44,77.62h-4.86c0,0-4.48,0.36-4.83-2.78c-0.36-3.14,1.47-4.88,1.47-4.88s2.36,0.63,4.43,1.13
				c1.03-0.22,2.28-0.36,3.73-0.33c0,0,8.75,2.89,8.49,4.41C244.87,75.18,241.21,73.23,236.44,77.62z"/>
		</g>
	</g>
	<g>
		<polygon class="st88" points="233.28,72.19 242.54,72.05 237.86,74.43 		"/>
	</g>
	<g>
		<path class="st87" d="M236.16,71.01c0,0-2.08,0.81-4.64,0.08l-0.12-0.95l5.26,0.29L236.16,71.01z"/>
	</g>
	<g>
		<polygon class="st89" points="237.86,74.43 233.28,72.65 233.28,72.19 238.23,73.97 		"/>
	</g>
	<g>
		<g>
			<path class="st90" d="M236.12,71.45c-0.02,0.34,0.32,0.59,0.64,0.45l0.54-0.23c0.16-0.07,0.26-0.24,0.23-0.41
				c-0.22-1.4-0.7-6.85,0-7.79c0.26-0.35,0.42-0.65,0.51-0.91c0.46,1.2,1.04,2.73,1.27,3.56l4.38,5.82l1.47,0.37
				c-1.83-4.41-3.3-6.75-3.3-6.75c-0.29-0.77-1.11-3.1-1.83-5.17c-0.46-1.31-0.88-2.52-1.11-3.16c-0.11-0.33-0.34-0.61-0.64-0.78
				c-0.68-0.41-1.81-1.04-2.83-1.54c0,0-0.01,0-0.01-0.01c-0.03-0.02-0.07-0.03-0.1-0.05c0,0,0,0,0,0c0,0,0,0,0,0
				c1.95,2.95,1.19,11.27,0.8,16.59C236.13,71.44,236.12,71.44,236.12,71.45z"/>
		</g>
		<g>
			<path class="st90" d="M228.9,55.1c-0.62,0.1-2.17,1.6-2.99,3.11c-0.94,1.73-1.89,3.7-2.61,4.35c-1.32,1.19-5,5.4-5.17,5.3
				c-0.07-0.04,1.01,1.26,1.15,1.32c0.07,0.03,6.05-5.15,6.62-5.94c0.54-0.75,2-3.89,2.44-3.82c0,0,0,0,0,0c0,0,0,0,0,0
				c0.03,0.07,0.56,1.22,1.07,2.9c0.01,0.03,0.02,0.06,0.02,0.08c0.35,1.17,0.31,2.44,0.13,3.87c-0.14,1.08-0.95,2.84-1.43,3.7
				c-0.06,0.1-0.04,0.3,0.02,0.45c0,0,0,0,0,0c0.04,0.09,0.09,0.16,0.16,0.19l1.76,0.65l0.41,0.15c0.3,0.11,0.61,0.05,0.84-0.12
				c0.19-0.14,0.33-0.35,0.36-0.61c0.39-3,0.88-6.07,1.28-7.23c1.73-5.07-0.68-8.88-0.68-8.88S229.44,54.9,228.9,55.1z"/>
		</g>
	</g>
	<g>
		<polygon class="st91" points="237.86,74.43 240.62,66.91 249.5,67.05 246.88,73.98 		"/>
	</g>
	<g>
		<path class="st92" d="M243.46,70.23c-0.27,0.54-0.19,1.13,0.18,1.32c0.37,0.19,0.89-0.1,1.16-0.64c0.27-0.54,0.19-1.13-0.18-1.32
			C244.25,69.4,243.73,69.69,243.46,70.23z"/>
	</g>
	<g>
		<path class="st85" d="M234.1,49.7c0,0,0.57,0.88,0.04,1.65c-0.53,0.76,0.13,1.51,0.25,2.32c0.11,0.81-2.19,2.96,0.37,4.04
			c2.57,1.08,3.38-0.71,2.73-1.69c-0.65-0.98-1.12-1.78-1.17-3.18C236.26,51.43,235.8,49.25,234.1,49.7z"/>
	</g>
	<g>
		<polygon class="st93" points="221.55,46.02 226.91,46.02 226.91,49.9 226.91,50.72 226.09,49.9 221.55,49.9 		"/>
	</g>
	<g>
		<g>
			<g>
				<g>
					<g>
						<path class="st3" d="M191.5,105.58c0,0-11.67,11.11-5.99,19.75c5.68,8.65,8.33,1.07,8.33,1.07s3.84,1.16-1.86-9.5
							C189.29,111.88,191.5,105.58,191.5,105.58z"/>
					</g>
				</g>
			</g>
		</g>
		<g>
			<g>
				<g>
					<g>
						<path class="st4" d="M169.92,93.54c0,0-8.92,10.48,3,24.99c11.92,14.51,10.07,22.18,10.07,22.18S199.59,115.48,169.92,93.54z"
							/>
					</g>
				</g>
			</g>
		</g>
		<g>
			<g>
				<g>
					<g>
						<path class="st5" d="M185.68,136.33c5.55,1.12,1.06-15.01-7.26-19.92c-8.32-4.92-15.76-5.4-20.42-10.13
							C158,106.27,158.37,130.8,185.68,136.33z"/>
					</g>
				</g>
			</g>
		</g>
	</g>
	<g>
		<path class="st16" d="M59.02,116.5H42.11c-3.53,0-6.4-2.86-6.4-6.4V79.6c0-3.53,2.86-6.4,6.4-6.4h16.91c3.53,0,6.4,2.86,6.4,6.4
			v30.5C65.42,113.64,62.56,116.5,59.02,116.5z"/>
	</g>
	<g>
		<g>
			<g>
				<g>
					<g>
						<rect x="60.72" y="101.16" class="st94" width="1.54" height="11.71"/>
					</g>
				</g>
			</g>
		</g>
		<g>
			<g>
				<g>
					<g>
						<rect x="57.68" y="102.48" class="st94" width="1.54" height="10.4"/>
					</g>
				</g>
			</g>
		</g>
		<g>
			<g>
				<g>
					<g>
						<rect x="54.38" y="104.19" class="st94" width="1.54" height="8.69"/>
					</g>
				</g>
			</g>
		</g>
		<g>
			<g>
				<g>
					<g>
						<rect x="50.98" y="106.34" class="st94" width="1.54" height="6.54"/>
					</g>
				</g>
			</g>
		</g>
		<g>
			<g>
				<g>
					<polygon class="st94" points="41.8,104.95 41.47,104.83 44.37,96.69 50.66,95.02 52.93,86.09 57.78,83.94 58.87,76.99 
						59.22,77.05 58.1,84.19 53.23,86.34 50.96,95.31 44.64,96.98 					"/>
				</g>
			</g>
		</g>
		<g>
			<g>
				<path class="st16" d="M51.54,94.57c0.33,0.4,0.27,1-0.13,1.33c-0.4,0.33-1,0.27-1.33-0.13c-0.33-0.4-0.27-1,0.13-1.33
					C50.62,94.11,51.21,94.17,51.54,94.57z"/>
			</g>
		</g>
		<g>
			<g>
				<path class="st94" d="M51.52,96.04c-0.48,0.39-1.19,0.32-1.58-0.16c-0.39-0.48-0.32-1.19,0.16-1.58
					c0.48-0.39,1.19-0.32,1.58,0.16C52.07,94.94,52,95.64,51.52,96.04z M50.32,94.57c-0.33,0.27-0.38,0.75-0.11,1.08
					c0.27,0.33,0.75,0.38,1.08,0.11c0.33-0.27,0.38-0.75,0.11-1.08C51.14,94.35,50.65,94.31,50.32,94.57z"/>
			</g>
		</g>
		<g>
			<g>
				<path class="st16" d="M53.83,85.67c0.33,0.4,0.27,1-0.13,1.33c-0.4,0.33-1,0.27-1.33-0.13c-0.33-0.4-0.27-1,0.13-1.33
					C52.91,85.21,53.5,85.27,53.83,85.67z"/>
			</g>
		</g>
		<g>
			<g>
				<path class="st94" d="M53.81,87.14c-0.48,0.39-1.19,0.32-1.58-0.16c-0.39-0.48-0.32-1.19,0.16-1.58
					c0.48-0.39,1.19-0.32,1.58,0.16C54.36,86.04,54.29,86.74,53.81,87.14z M52.62,85.67c-0.33,0.27-0.38,0.75-0.11,1.08
					c0.27,0.33,0.75,0.38,1.08,0.11c0.33-0.27,0.38-0.75,0.11-1.08C53.43,85.45,52.94,85.4,52.62,85.67z"/>
			</g>
		</g>
		<g>
			<g>
				<path class="st16" d="M58.62,83.46c0.33,0.4,0.27,1-0.13,1.33c-0.4,0.33-1,0.27-1.33-0.13c-0.33-0.4-0.27-1,0.13-1.33
					C57.69,83,58.29,83.06,58.62,83.46z"/>
			</g>
		</g>
		<g>
			<g>
				<path class="st94" d="M58.59,84.93c-0.48,0.39-1.19,0.32-1.58-0.16c-0.39-0.48-0.32-1.19,0.16-1.58
					c0.48-0.39,1.19-0.32,1.58,0.16C59.15,83.83,59.07,84.54,58.59,84.93z M57.4,83.47c-0.33,0.27-0.38,0.75-0.11,1.08
					c0.27,0.33,0.75,0.38,1.08,0.11c0.33-0.27,0.38-0.75,0.11-1.08C58.21,83.25,57.73,83.2,57.4,83.47z"/>
			</g>
		</g>
		<g>
			<g>
				<path class="st16" d="M45.27,96.32c0.33,0.4,0.27,1-0.13,1.33c-0.4,0.33-1,0.27-1.33-0.13c-0.33-0.4-0.27-1,0.13-1.33
					C44.35,95.85,44.94,95.91,45.27,96.32z"/>
			</g>
		</g>
		<g>
			<g>
				<path class="st94" d="M45.25,97.78c-0.48,0.39-1.19,0.32-1.58-0.16c-0.39-0.48-0.32-1.19,0.16-1.58
					c0.48-0.39,1.19-0.32,1.58,0.16C45.8,96.69,45.73,97.39,45.25,97.78z M44.05,96.32c-0.33,0.27-0.38,0.75-0.11,1.08
					c0.27,0.33,0.75,0.38,1.08,0.11c0.33-0.27,0.38-0.75,0.11-1.08C44.87,96.1,44.38,96.05,44.05,96.32z"/>
			</g>
		</g>
		<g>
			<g>
				<g>
					<g>
						<path class="st95" d="M47.34,87.45h-7.5c-0.54,0-0.98-0.44-0.98-0.98v0c0-0.54,0.44-0.98,0.98-0.98h7.5
							c0.54,0,0.98,0.44,0.98,0.98v0C48.32,87.01,47.89,87.45,47.34,87.45z"/>
					</g>
				</g>
			</g>
		</g>
		<g>
			<g>
				<g>
					<g>
						<path class="st95" d="M47.34,84.03h-7.5c-0.54,0-0.98-0.44-0.98-0.98v0c0-0.54,0.44-0.98,0.98-0.98h7.5
							c0.54,0,0.98,0.44,0.98,0.98l0,0C48.32,83.59,47.89,84.03,47.34,84.03z"/>
					</g>
				</g>
			</g>
		</g>
	</g>
	<g>
		<g>
			<path class="st13" d="M32.08,89.03c0,0-0.27,2.7,0.23,3.38c0,0-1.32-0.29-1.63-0.74C30.37,91.21,32.08,89.03,32.08,89.03z"/>
		</g>
		<g>
			<g>
				<path class="st12" d="M40.34,97.67c0,0,0.48-0.32,0.55-0.37c0.07-0.05,0.32-0.04,0.6-0.01c0.28,0.03,0.65,0.21,0.67,0.25
					c0.02,0.04,0.07,0.08,0.05,0.2c-0.02,0.12-0.1,0.22-0.1,0.22s0.05,0.16-0.06,0.27c0,0,0.04,0.16-0.11,0.26
					c0,0,0.04,0.15-0.08,0.22c0,0-0.25-0.01-0.34,0.02c-0.09,0.02-0.6-0.03-1.09-0.15C40.44,98.58,39.9,98.46,40.34,97.67z"/>
			</g>
		</g>
		<g>
			<g>
				<path class="st96" d="M41.16,97.89c0,0-0.14,0.25-0.22,0.3c-0.08,0.05,0.37,0.53,0.37,0.53S41.46,98.07,41.16,97.89z"/>
			</g>
		</g>
		<g>
			<g>
				<path class="st12" d="M40.05,97.71c0,0,0.3-0.03,0.49-0.12c0.19-0.09-0.03,0.94-0.03,0.94s-0.45-0.31-0.75-0.32
					C39.47,98.2,40.05,97.71,40.05,97.71z"/>
			</g>
		</g>
		<g>
			<g>
				<path class="st97" d="M27.54,125.04c0,0,0.94,1.38,1.27,1.67c0,0,0.66,0.34,0.68,0.61c0.04,0.52,0.07,0.82-0.8,0.84
					c-0.87,0.02-1.41,0-1.57-0.53c-0.16-0.53-0.43-0.94-0.43-0.94l-0.07,1.37h-0.2c0,0-0.09-1.37-0.1-1.56
					c-0.01-0.19-0.14-0.95,0.27-1.28C27.02,124.9,27.54,125.04,27.54,125.04z"/>
			</g>
		</g>
		<g>
			<g>
				<path class="st97" d="M28.94,126.79c0,0-0.47,0.13-1.03-0.01c-0.56-0.14-1.09-1.47-1.25-1.58l-0.14-0.54h1.09
					c0,0,0.01,0.4,0.18,0.74C27.96,125.73,28.94,126.79,28.94,126.79z"/>
			</g>
		</g>
		<g>
			<g>
				<path class="st97" d="M33.67,124.53c0,0,0.14,0.33,0.41,0.68c0.2,0.26,0.81,1.31,1.07,1.38c0.27,0.07,1.1,0.22,1.17,0.68
					c0.07,0.46,0.11,0.79-0.71,0.83c-0.82,0.04-1.35,0.09-1.74-0.49c-0.39-0.57-1.01-0.99-1.01-0.99v1.5h-0.32
					c0,0-0.15-1.56-0.23-1.67c-0.09-0.11-0.3-1.31,0.45-1.93C33.52,123.9,33.67,124.53,33.67,124.53z"/>
			</g>
		</g>
		<g>
			<g>
				<path class="st97" d="M35.15,126.59c0,0-0.73,0.18-1.01,0c-0.28-0.18-1.23-1.8-1.55-1.89c0,0,0.31-0.62,1.08-0.17
					C33.67,124.53,34.95,126.32,35.15,126.59z"/>
			</g>
		</g>
		<g>
			<g>
				<path class="st98" d="M27.13,102.12c0,0-1.03,1.34-1.31,2.93c-0.28,1.59,0.17,6.94,0.15,7.72c-0.01,0.79-0.69,3.24-0.55,4.72
					c0.15,1.48,0.91,7.67,0.91,7.67l1.79-0.03c0,0-0.36-6.68-0.27-7.3c0.09-0.62,0.38-3.27,0.42-3.53c0.04-0.26,2.04-7.03,2.04-8.18
					S29.62,100.25,27.13,102.12z"/>
			</g>
		</g>
		<g>
			<g>
				<path class="st98" d="M32.31,102.65c0,0,1.7,6.47,1.9,7.37c0.2,0.9,0.6,2.07,0.59,2.23c-0.02,0.16-0.21,2.93-0.21,2.93
					l-0.48,9.41h-1.79c0,0-0.57-5.98-0.67-7.19c-0.09-1.21,0.66-3.07,0.48-3.59c-0.18-0.51-2.95-6.42-2.95-6.42
					S27.09,100.77,32.31,102.65z"/>
			</g>
		</g>
		<g>
			<g>
				<path class="st90" d="M31.79,92.96c0,0,0.68,0.06,1.19,0.61c0.51,0.55,0.99,1.42,1.13,1.72c0.13,0.29,2.02,3.01,2.11,3.07
					c0.1,0.06,0.92-0.16,1.58-0.21c1.07-0.09,2.68-0.64,2.68-0.64l0.24,1.21c0,0-3.96,1.28-4.87,1.05
					c-1.12-0.28-3.69-3.57-3.69-3.57S30.25,93.96,31.79,92.96z"/>
			</g>
		</g>
		<g>
			<g>
				<path class="st90" d="M30.61,92.48c0,0,0.88,0.41,1.18,0.48c0.31,0.06,1.49,1.6,1.7,2.16c0.21,0.56,0,1.4-0.43,2.39
					c-0.43,0.99-0.02,1.32-0.22,2.31c-0.2,0.99-0.2,3.68-0.16,4.23c0.04,0.55-5.65,1.58-6.78,0.58c0,0,0.77-2.53,1.68-3.48
					c0.2-0.21,0.18-1.58,0.04-1.92c-0.13-0.34-1.65-2.89-1.65-2.89s-0.11-2.59,0.55-3.1c0.57-0.45,2.14-0.6,2.42-0.7
					C29.22,92.44,30.03,92.4,30.61,92.48z"/>
			</g>
		</g>
		<g>
			<g>
				<path class="st99" d="M30.89,94.44l0.53-0.63l-0.46-1.65C30.96,92.17,30.8,93.09,30.89,94.44z"/>
			</g>
		</g>
		<g>
			<g>
				<path class="st12" d="M27.54,92.96c0,0-1.11-0.32-1.74,0.9c-0.63,1.22-0.48,1.88-0.62,2.43c-0.15,0.55-0.73,4.22-0.77,4.38
					c-0.04,0.16-0.6,2.03-0.53,2.6c0.07,0.57,0.6,4.92,0.57,5.06c-0.02,0.15,1.01-0.14,1.01-0.14s-0.04-4.43-0.01-4.8
					c0.04-0.37,0.07-2.29,0.35-2.78c0.27-0.49,0.95-3.51,1.1-3.82C27.06,96.47,28.47,93.36,27.54,92.96z"/>
			</g>
		</g>
		<g>
			<g>
				<path class="st12" d="M31.03,91.47c0,0-0.18,1.61-0.14,2.14c0,0-0.91,0.91-1.95-1.07c0,0,0.44-0.82,0.11-1.93
					C28.72,89.49,31.03,91.47,31.03,91.47z"/>
			</g>
		</g>
		<g>
			<g>
				<polygon class="st12" points="30.89,93.61 30.89,94.44 29.91,93.57 				"/>
			</g>
		</g>
		<g>
			<g>
				<polygon class="st99" points="30.89,94.44 30.45,93.9 28.98,92.44 28.43,92.68 				"/>
			</g>
		</g>
		<g>
			<g>
				<polygon class="st100" points="31.42,93.82 32.09,94 30.96,92.17 				"/>
			</g>
		</g>
		<g>
			<g>
				<polygon class="st100" points="30.45,93.9 29.84,94.89 28.41,92.65 29.02,92.34 				"/>
			</g>
		</g>
		<g>
			<path class="st99" d="M33.58,97.87c0,0,0.22-1.46-0.01-2.35c0,0-0.13,0.72-0.44,1.83L33.58,97.87z"/>
		</g>
		<g>
			<path class="st99" d="M26.76,97.68c0,0,0.61-2.01,0.64-2.12c0,0-0.04,1.85-0.27,2.76C27.13,98.32,26.9,97.93,26.76,97.68z"/>
		</g>
		<g>
			<polygon class="st101" points="49.38,87.61 39.82,99.65 40.16,99.91 			"/>
		</g>
		<g>
			<g>
				<path class="st102" d="M42.09,97.53c0,0-0.72-0.07-0.74,0.05c-0.03,0.11,0.03,0.17,0.03,0.17l-0.31,0.11
					c0,0-0.16,0.19,0.09,0.31c0,0-0.17,0.16,0.08,0.25c0,0-0.07,0.15,0.04,0.22c0.11,0.06,0.57,0.09,0.57,0.09s0.1-0.04,0.08-0.22
					c0,0,0.15-0.09,0.11-0.26c0,0,0.11-0.09,0.06-0.27c0,0,0.22-0.22,0.05-0.42C42.17,97.54,42.12,97.53,42.09,97.53z"/>
			</g>
		</g>
		<g>
			<g>
				<path class="st12" d="M40.92,97.3c0,0,0.42,0.27,0.58,0.51c0.04,0.06,0.06,0.12,0.03,0.17c-0.04,0.06-0.17,0.07-0.35-0.03
					c-0.19-0.11-0.48-0.16-0.48-0.16S40.53,97.62,40.92,97.3z"/>
			</g>
		</g>
		<g>
			<path class="st12" d="M30.29,85.99c0,0,1.62-0.04,1.91,1.87c0.3,1.91-0.39,3.6-0.66,3.87c-0.27,0.27-1.89,0.07-2.27-0.93
				c-0.38-0.99-0.94-1.72-0.86-2.57C28.5,87.37,28.3,85.95,30.29,85.99z"/>
		</g>
		<g>
			<path class="st13" d="M32.27,88.58c0,0,0.43-2.39-1.71-2.82c-2.15-0.43-2.9,1.04-3.1,1.91c-0.2,0.87,0.04,3.34,0.04,3.34
				s1.43,1.25,2.29,1.58c0,0-0.72-2.62-0.45-4.5c0,0,1.74,0.27,2.9-0.01C32.23,88.09,32.27,88.48,32.27,88.58z"/>
		</g>
		<g>
			<path class="st14" d="M30.99,91.83c0,0-0.56,0-1.33-0.5c0,0,0.54,0.68,1.29,0.92C30.95,92.25,30.99,91.92,30.99,91.83z"/>
		</g>
		<g>
			
				<rect x="21.89" y="104.64" transform="matrix(0.9869 -0.1612 0.1612 0.9869 -16.913 5.4354)" class="st103" width="6.33" height="4.68"/>
		</g>
		<g>
			<g>
				<g>
					<g>
						<g>
							<g>
								<path class="st12" d="M24.24,109.72c0,0-0.1-0.16-0.11-0.25c0,0,0-0.17-0.01-0.28c0-0.04-0.01-0.07-0.01-0.09
									c-0.02-0.09-0.09-0.27-0.07-0.49c0.01-0.22,0.31-1.16,0.31-1.16l0.55,0.02l0.52-0.06c0,0,0.63,1.2,0.64,1.41
									c0,0.02,0,0.04,0,0.06c-0.01,0.18-0.09,0.3-0.1,0.4c-0.01,0.03-0.08,0.37-0.17,0.41c-0.13,0.06-0.24,0.06-0.32,0.01
									c0,0-0.25,0.11-0.43,0.06c0,0-0.23,0.11-0.44-0.01C24.6,109.74,24.35,109.83,24.24,109.72z"/>
							</g>
						</g>
					</g>
				</g>
			</g>
		</g>
		<g>
			<g>
				<path class="st90" d="M27.54,92.96c0,0-1.11-0.32-1.74,0.9c-0.63,1.22-0.63,1.74-0.72,2.34c-0.08,0.56-0.85,3.9-0.89,4.06
					c-0.04,0.16-0.29,2.25-0.31,3.01c-0.01,0.58,0.12,4.37,0.1,4.51c-0.02,0.15,1.75-0.26,1.75-0.26s-0.2-3.49-0.16-3.86
					c0.04-0.37,0.11-2.19,0.29-2.73c0.21-0.63,1.04-3.8,1.19-4.11C27.2,96.51,28.47,93.36,27.54,92.96z"/>
			</g>
		</g>
	</g>
	<g>
		<g>
			<g>
				<path class="st104" d="M84.76,125.81l0.11-1.07c0,0-1.51-0.01-1.69,0.12c0,0,0.13,0.9,0.14,1.04
					C83.35,126.02,84.76,125.81,84.76,125.81z"/>
			</g>
		</g>
		<g>
			<g>
				<path class="st105" d="M82.19,128.05c1.8-0.02,2.67,0.11,2.86-0.18c0.19-0.29-0.28-2.15-0.28-2.15s-0.43,0.16-1.46,0.06
					c0,0-0.45,0.54-0.88,0.78c-0.43,0.24-1.11,0.33-1.37,0.57C80.88,127.3,80.39,128.06,82.19,128.05z"/>
			</g>
		</g>
		<g>
			<g>
				<path class="st104" d="M74.63,125.81l0.11-1.07c0,0-1.51-0.01-1.69,0.12c0,0,0.13,0.9,0.14,1.04
					C73.22,126.02,74.63,125.81,74.63,125.81z"/>
			</g>
		</g>
		<g>
			<g>
				<path class="st105" d="M72.06,128.05c1.8-0.05,2.67,0.11,2.86-0.18c0.19-0.29-0.28-2.15-0.28-2.15s-0.4,0.17-1.45,0.06
					c0,0-0.45,0.54-0.88,0.78c-0.43,0.24-2.03,0.43-2.28,0.68C69.83,127.4,69.53,128.12,72.06,128.05z"/>
			</g>
		</g>
		<g>
			<g>
				<path class="st6" d="M82.68,101.59c0,0,0.75,2.24,0.65,4.16c-0.1,1.93,0.39,4.03,0.59,6.05c0.22,2.24,1.13,7.55,1.17,8.75
					c0.03,1.2-0.14,5.03-0.14,5.03l-1.82,0.04c0,0-1.53-9.29-1.93-10.23c-0.4-0.95-2.36-7.7-2.43-8.46
					C78.71,106.18,82.68,101.59,82.68,101.59z"/>
			</g>
		</g>
		<g>
			<g>
				<path class="st6" d="M75.02,101.99c0,0-1,5.28-1.13,6.46c-0.13,1.18-0.22,5.71-0.29,6.44c-0.07,0.74-0.44,9.64-0.79,10.74h2.33
					c0,0,1.79-6.48,1.79-9.54s1.38-6.66,2.27-8.68c0.89-2.02,2.93-2.07,3.48-5.82C82.68,101.59,75.76,100.8,75.02,101.99z"/>
			</g>
		</g>
		<g>
			<g>
				<path class="st12" d="M79.76,83.95c0,0-1.84-0.69-2.68,0.71c-0.85,1.4-0.77,4.2,0.16,4.54c0.93,0.34,2.32,0.16,2.79-0.71
					c0.47-0.87,0.9-2.14,0.88-2.99C80.89,84.66,80.24,84.19,79.76,83.95z"/>
			</g>
		</g>
		<g>
			<g>
				<path class="st12" d="M77.54,89.12c0,0,0.07,0.48-0.05,0.72c-0.12,0.24,2.31,0.24,2.31,0.24s0.2-1.29,0.57-2.38
					C80.75,86.61,77.54,89.12,77.54,89.12z"/>
			</g>
		</g>
		<g>
			<g>
				<path class="st106" d="M80.38,87.7c0,0-0.17,0.28-0.85,0.17c-0.69-0.11-1.52-1.02-1.81-1.12c-0.29-0.1-0.29-0.27-0.29-0.27
					l-0.18,0.26l-0.3,0.02c0,0,0.28-0.82-0.14-1.15c-0.42-0.33,0.43-2.64,2.63-1.87c0,0,1.58,0.31,1.67,1.27
					C81.21,86.03,80.75,87.22,80.38,87.7z"/>
			</g>
		</g>
		<g>
			<g>
				<path class="st107" d="M77.35,89.81c0,0,0.01-0.45,0.21-0.5c0.21-0.04,2.27-0.24,2.52-0.14v0.53
					C80.08,89.69,79.6,89.99,77.35,89.81z"/>
			</g>
		</g>
		<g>
			<g>
				<path class="st12" d="M77.47,86.13c0.04-0.16,0.45-0.62,0.6-0.13c0.16,0.49-0.24,1.16-0.46,1.1
					C77.4,87.04,77.37,86.54,77.47,86.13z"/>
			</g>
		</g>
		<g>
			<g>
				<path class="st108" d="M77.35,89.81c0,0-1.13,0.41-2.44,0.96c0,0-1.51,0.56-1.67,2.23c-0.09,0.88-1.03,5.57-1.2,5.97
					c-0.18,0.4-2.26,6.77-2.33,6.9c-0.07,0.13,1.7,0.87,1.82,0.81c0.12-0.06,2.02-5.81,2.21-6.24c0,0,1.09-3.45,1.12-3.96
					c0,0,0.03,1.47,0.09,1.88c0.06,0.41-0.97,8.4-0.94,8.62c0.03,0.22,4.69,0.5,6.55,0.29c1.87-0.21,3.37-0.63,3.37-0.63
					s-1.47-6.3-1.42-7c0.1-1.52,0.61-4.39,0.61-4.39l1.52,2.87l-1.95,5.01l0.45,1.52c0,0,3.62-5.47,3.73-5.96
					c0.12-0.5-0.18-1.14-0.37-1.55c-0.19-0.41-1.44-3.54-1.74-3.98c-0.29-0.44-0.79-2.2-1.99-2.7c-1-0.41-2.69-0.75-2.69-0.75
					L77.35,89.81z"/>
			</g>
		</g>
		<g>
			<g>
				
					<rect x="66.97" y="101.61" transform="matrix(0.9687 0.2484 -0.2484 0.9687 28.235 -14.4446)" class="st109" width="8.8" height="6.14"/>
			</g>
		</g>
		<g>
			<g>
				<path class="st110" d="M68.96,107.16c0,0-0.24,0.39-0.33,0.51c-0.09,0.11,0.22,0.18,0.35,0.07
					C69.11,107.62,68.96,107.16,68.96,107.16z"/>
			</g>
		</g>
		<g>
			<g>
				<path class="st111" d="M70.74,108.5c0,0,0.14-0.15,0.18-0.25c0,0,0.04-0.18,0.08-0.31c0.01-0.04,0.02-0.07,0.03-0.1
					c0.04-0.09,0.16-0.27,0.19-0.52c0.04-0.24,0.14-1.33,0.14-1.33l-0.66-0.17l-0.53-0.11c0,0-1.15,1.14-1.21,1.37
					c-0.01,0.02-0.01,0.04-0.01,0.06c-0.03,0.19,0.02,0.35,0.02,0.45c0,0.04,0,0.42,0.09,0.49c0.12,0.1,0.25,0.12,0.35,0.08
					c0,0,0.25,0.18,0.46,0.17c0,0,0.22,0.18,0.48,0.09C70.34,108.44,70.59,108.59,70.74,108.5z"/>
			</g>
		</g>
		<g>
			<g>
				<path class="st108" d="M73.31,101.61c0,0-1.51,4.58-1.79,5.06c0,0-1.11-0.23-1.82-0.81l1.66-4.94L73.31,101.61z"/>
			</g>
		</g>
	</g>
	<g>
		<g>
			<path class="st112" d="M209.74,108.75c0,0,5.61-16.46-5.1-21.57c-10.71-5.1-19.81,2.27-21.53,6.27
				c-1.72,3.99-1.26,11.25,0.2,16.31c1.47,5.06,1.25,12.77-1.93,15.34c-3.18,2.58-7.13,6.86-6.94,15.57
				c0.12,5.41,21.27-13.83,21.27-13.83L209.74,108.75z"/>
		</g>
		<g>
			<path class="st113" d="M194.69,128.33c0,0-8.81,1.95-12.3,3.99c-3.49,2.04-11.26,11.44-11.26,15.48c0,4.04,33.94,7.81,33.94,7.81
				l6.43,23.49c0,0,17.16-4.19,19.2-7.66c2.04-3.47-6.52-28.36-7.98-33.39c-1.49-5.14-7.64-8.72-14.79-9.72
				C200.79,127.33,194.69,128.33,194.69,128.33z"/>
		</g>
		<g>
			<path class="st12" d="M207.33,128.25c0,0-0.2,10.7-8.69,11.02c-8.49,0.32-6.72-10.27-6.72-10.27S198.13,126.49,207.33,128.25z"/>
		</g>
		<g>
			<path class="st112" d="M210.92,95.96c0,0,3,17.21-5.55,29.65C196.51,138.48,210.92,95.96,210.92,95.96z"/>
		</g>
		<g>
			<path class="st12" d="M205.5,120.68c0,0-0.59,5.12,0.4,8.3c0.99,3.18-12.98,3.27-12.97,0.65c0.01-2.97,1.43-5.46,0.09-10.56
				C191.68,113.99,205.5,120.68,205.5,120.68z"/>
		</g>
		<g>
			<path class="st14" d="M194.67,121.34c0,0,4.41,4.59,10.05,0.48c0,0-0.47,2.94-4.52,3.31
				C196.14,125.51,194.67,121.34,194.67,121.34z"/>
		</g>
		<g>
			<path class="st12" d="M200.19,89.99c0,0,11.14,3.3,9.55,18.76c-1.59,15.46-8.87,14.67-9.55,14.78
				c-0.68,0.11-9.32,0.68-12.05-18.08C185.41,86.69,200.19,89.99,200.19,89.99z"/>
		</g>
		<g>
			<path class="st112" d="M197.32,96.88c0,0,6.05,9.63,12.43,11.86c0,0,3.48-16.16-10.89-19.55c-14.37-3.39-12.12,16.32-11.05,21.58
				C187.81,110.78,190.8,103.05,197.32,96.88z"/>
		</g>
		<g>
			<path class="st114" d="M189.2,95.43c0,0,3.19-6.17,8.57-6.45c5.38-0.28,8.58,4.39,8.58,4.39s-2.1-5.26-8.58-5.26
				C191.3,88.12,189.2,95.43,189.2,95.43z"/>
		</g>
	</g>
	<g>
		<polygon class="st115" points="211.11,143.97 214.88,179.1 165.15,179.1 161.37,143.97 		"/>
	</g>
	<g>
		<path class="st115" d="M213.69,177.9h-50.17l-3.82-35.56h50.17L213.69,177.9z M163.91,177.46h49.3l-3.73-34.7h-49.3L163.91,177.46
			z"/>
	</g>
	<g>
		<path class="st116" d="M191.21,160.97c0.45,2.19-0.57,4.24-2.28,4.59c-1.7,0.35-3.45-1.14-3.89-3.33
			c-0.45-2.19,0.57-4.24,2.28-4.59C189.02,157.29,190.77,158.78,191.21,160.97z"/>
	</g>
	<g>
		
			<rect x="210.18" y="175.57" transform="matrix(-1 -1.224647e-16 1.224647e-16 -1 429.6461 354.6714)" class="st115" width="9.28" height="3.53"/>
	</g>
	<g>
		<path class="st2" d="M181.33,73.63c-4.22,0-7.65-3.43-7.65-7.65c0-4.22,3.43-7.65,7.65-7.65s7.65,3.43,7.65,7.65
			C188.98,70.19,185.55,73.63,181.33,73.63z M181.33,58.76c-3.98,0-7.22,3.24-7.22,7.22c0,3.98,3.24,7.22,7.22,7.22
			s7.22-3.24,7.22-7.22C188.55,62,185.31,58.76,181.33,58.76z"/>
	</g>
	<g>
		<path class="st117" d="M46.4,151.41l-0.01-0.65c1.3-0.01,2.6-0.05,3.89-0.11l0.03,0.65C49.02,151.36,47.71,151.4,46.4,151.41z
			 M42.49,151.37c-1.29-0.04-2.6-0.1-3.91-0.18l0.04-0.65c1.3,0.08,2.61,0.14,3.89,0.18L42.49,151.37z M54.22,151.04l-0.06-0.65
			c1.28-0.11,2.58-0.25,3.87-0.41l0.08,0.65C56.82,150.79,55.51,150.93,54.22,151.04z M34.68,150.88c-1.33-0.13-2.64-0.3-3.89-0.5
			l0.1-0.64c1.23,0.2,2.53,0.37,3.85,0.5L34.68,150.88z M61.98,150.05l-0.11-0.64c1.25-0.21,2.54-0.45,3.82-0.72l0.13,0.64
			C64.53,149.6,63.24,149.84,61.98,150.05z M26.94,149.6c-1.31-0.32-2.58-0.69-3.77-1.1l0.21-0.61c1.17,0.4,2.42,0.77,3.71,1.08
			L26.94,149.6z M69.64,148.48l-0.15-0.63c1.19-0.29,2.43-0.6,3.77-0.96l0.17,0.63C72.08,147.88,70.84,148.19,69.64,148.48z
			 M19.53,147.02c-1.22-0.58-2.37-1.23-3.43-1.93l0.36-0.54c1.03,0.68,2.16,1.32,3.35,1.89L19.53,147.02z M77.2,146.48l-0.18-0.63
			c0.54-0.15,1.08-0.31,1.62-0.46c0.72-0.2,1.43-0.41,2.14-0.6l0.18,0.63c-0.7,0.2-1.42,0.4-2.14,0.6
			C78.28,146.18,77.74,146.33,77.2,146.48z M111.1,145.94c-1.2-0.57-2.4-1.07-3.57-1.49l0.22-0.61c1.19,0.43,2.41,0.93,3.63,1.51
			L111.1,145.94z M84.71,144.41l-0.16-0.63c1.4-0.36,2.65-0.65,3.81-0.89l0.13,0.64C87.34,143.77,86.1,144.06,84.71,144.41z
			 M103.83,143.36c-1.26-0.29-2.54-0.5-3.81-0.63l0.07-0.65c1.3,0.13,2.6,0.35,3.89,0.64L103.83,143.36z M92.31,142.88l-0.08-0.65
			c1.36-0.17,2.65-0.27,3.92-0.3l0.01,0.65C94.92,142.62,93.66,142.71,92.31,142.88z M12.99,142.66c-0.97-0.91-1.86-1.89-2.64-2.94
			l0.52-0.39c0.76,1.01,1.62,1.97,2.56,2.85L12.99,142.66z M8.29,136.34c-0.57-1.16-1.05-2.4-1.42-3.69l0.62-0.18
			c0.36,1.25,0.83,2.46,1.38,3.58L8.29,136.34z M6.06,128.79c-0.17-1.26-0.26-2.59-0.27-3.93l0.65,0c0.01,1.32,0.09,2.62,0.26,3.85
			L6.06,128.79z M6.63,120.99l-0.65-0.07c0.13-1.27,0.33-2.58,0.59-3.89l0.64,0.13C6.95,118.45,6.76,119.74,6.63,120.99z
			 M8.12,113.4l-0.63-0.18c0.66-2.28,1.25-3.68,1.28-3.73l0.6,0.26C9.37,109.75,8.77,111.15,8.12,113.4z"/>
	</g>
	<g>
		<path class="st117" d="M214.78,34.46c-0.01-0.01-1.1-0.97-3.04-2.42l0.39-0.52c1.97,1.47,3.08,2.45,3.09,2.46L214.78,34.46z
			 M208.56,29.8c-1.07-0.71-2.18-1.42-3.29-2.08l0.34-0.56c1.12,0.67,2.23,1.38,3.31,2.1L208.56,29.8z M201.89,25.79
			c-1.14-0.62-2.31-1.21-3.47-1.76l0.28-0.59c1.17,0.56,2.34,1.16,3.49,1.78L201.89,25.79z M194.88,22.43
			c-1.2-0.5-2.42-0.98-3.62-1.41l0.22-0.61c1.21,0.43,2.44,0.91,3.66,1.42L194.88,22.43z M145.46,21.64l-0.01-0.65
			c1.26-0.03,2.55-0.15,3.84-0.36l0.11,0.64C148.07,21.49,146.75,21.61,145.46,21.64z M141.52,21.44c-1.27-0.16-2.57-0.41-3.87-0.76
			l0.17-0.63c1.27,0.34,2.54,0.59,3.78,0.74L141.52,21.44z M153.22,20.39l-0.18-0.62c0.42-0.12,0.84-0.26,1.27-0.4
			c0.81-0.27,1.64-0.53,2.46-0.76l0.18,0.63c-0.81,0.23-1.63,0.48-2.43,0.75C154.08,20.12,153.65,20.26,153.22,20.39z M187.56,19.82
			c-1.25-0.37-2.51-0.7-3.76-0.99l0.15-0.63c1.26,0.29,2.53,0.63,3.79,1L187.56,19.82z M133.92,19.44
			c-1.15-0.45-2.32-0.96-3.59-1.58l0.28-0.59c1.26,0.61,2.41,1.12,3.54,1.56L133.92,19.44z M160.71,18.32l-0.13-0.64
			c1.28-0.26,2.58-0.47,3.88-0.63l0.08,0.65C163.26,17.86,161.97,18.07,160.71,18.32z M180,18.08c-1.28-0.21-2.58-0.38-3.85-0.5
			l0.06-0.65c1.29,0.12,2.59,0.3,3.89,0.51L180,18.08z M65.69,17.46l-0.35-0.55c1.11-0.72,2.23-1.42,3.32-2.08l0.34,0.56
			C67.91,16.05,66.8,16.74,65.69,17.46z M168.4,17.38l-0.03-0.65c1.29-0.06,2.61-0.07,3.92-0.04l-0.02,0.65
			C170.98,17.3,169.68,17.32,168.4,17.38z M126.85,16.06c-1.1-0.6-2.2-1.22-3.41-1.9l0.32-0.57c1.21,0.68,2.3,1.3,3.4,1.9
			L126.85,16.06z M72.36,13.45l-0.31-0.57c1.17-0.64,2.33-1.26,3.47-1.82l0.29,0.58C74.67,12.2,73.51,12.81,72.36,13.45z
			 M120.04,12.26c-1.27-0.7-2.4-1.29-3.44-1.81l0.29-0.58c1.05,0.52,2.18,1.12,3.46,1.82L120.04,12.26z M79.32,10l-0.26-0.6
			c1.23-0.53,2.45-1.02,3.64-1.46l0.22,0.61C81.74,8.99,80.53,9.48,79.32,10z M113.07,8.82c-1.25-0.53-2.43-0.97-3.62-1.36l0.2-0.62
			c1.21,0.4,2.41,0.85,3.68,1.38L113.07,8.82z M86.61,7.35l-0.18-0.63c1.28-0.37,2.57-0.69,3.81-0.94l0.13,0.64
			C89.14,6.68,87.87,6.99,86.61,7.35z M105.72,6.44c-1.26-0.28-2.54-0.48-3.81-0.62l0.07-0.65c1.29,0.14,2.6,0.35,3.88,0.63
			L105.72,6.44z M94.19,5.84l-0.07-0.65c1.32-0.14,2.64-0.21,3.93-0.22l0,0.65C96.79,5.63,95.49,5.7,94.19,5.84z"/>
	</g>
	<g>
		<g>
			<g>
				<g>
					<polygon class="st118" points="133.74,153.08 117.39,148.32 122.29,146.85 					"/>
				</g>
			</g>
		</g>
		<g>
			<g>
				<g>
					<polygon class="st119" points="133.74,153.08 127.63,146.94 123.87,147.7 					"/>
				</g>
			</g>
		</g>
		<g>
			<g>
				<g>
					<polygon class="st120" points="121.15,149.42 121.28,151.31 133.74,153.08 					"/>
				</g>
			</g>
		</g>
	</g>
	<g>
		<g>
			<g>
				<g>
					<polygon class="st118" points="51.45,28.28 65.86,20.22 60.91,19.89 					"/>
				</g>
			</g>
		</g>
		<g>
			<g>
				<g>
					<polygon class="st119" points="51.45,28.28 55.89,21.14 59.61,21.04 					"/>
				</g>
			</g>
		</g>
		<g>
			<g>
				<g>
					<polygon class="st120" points="62.55,22.07 62.84,23.89 51.45,28.28 					"/>
				</g>
			</g>
		</g>
	</g>
</g>
</svg>
