<?xml version="1.0" encoding="utf-8"?>
<!-- Generator: Adobe Illustrator 24.3.0, SVG Export Plug-In . SVG Version: 6.00 Build 0)  -->
<svg version="1.1" id="Layer_1" xmlns="http://www.w3.org/2000/svg" xmlns:xlink="http://www.w3.org/1999/xlink" x="0px" y="0px"
	 viewBox="0 0 600 400" style="enable-background:new 0 0 600 400;" xml:space="preserve">
<style type="text/css">
	.st0{fill:#E0F3FD;}
	.st1{fill:#FFDACF;}
	.st2{fill:#FFEBDE;}
	.st3{fill:#FFFFFF;}
	.st4{fill:#FFC000;}
	.st5{fill:#FF8F00;}
	.st6{fill:#FFD660;}
	.st7{fill:#F18800;}
	.st8{fill:#FFA421;}
	.st9{fill:#522D34;}
	.st10{fill:#71659C;}
	.st11{fill:#5F5583;}
	.st12{fill:#E0D0FF;}
	.st13{fill:#A594E4;}
	.st14{fill:#AE9DE4;}
</style>
<g>
	<path class="st0" d="M562,193.37c7.67,78.61-66.44,167.52-228.41,183.32S63.67,317.67,56,239.06
		c-7.67-78.61,34.32-256.66,240.47-168S554.33,114.76,562,193.37z"/>
	<path class="st1" d="M370.57,330.19c0,0,101.22-16.53,105.26-51.75c4.03-35.22-80.99-0.88-80.99-0.88s37.69-64.02,21.06-83.93
		c-16.64-19.91-64.02,50.23-64.02,50.23s7.74-73.98-14.67-76.97c-22.41-2.99-43.09,154.16-43.09,154.16L370.57,330.19z"/>
	<path class="st2" d="M397.04,223.92c6.11-9.31,12.14-18.67,18.16-28.04c0.37-0.58,0.74-1.15,1.11-1.73
		c-0.13-0.18-0.27-0.35-0.41-0.52c-0.17-0.2-0.34-0.38-0.51-0.56c-5.71,8.89-11.43,17.78-17.21,26.62
		c-6.05,9.26-12.17,18.47-18.43,27.59c-6.2,9.04-12.54,17.98-19.08,26.78c-6.47,8.69-13.14,17.23-20.08,25.55
		c-6.81,8.17-13.89,16.12-21.28,23.76c-0.2,0.21-0.4,0.41-0.6,0.62l1.7,0.2c6.45-6.68,12.66-13.59,18.67-20.67
		c6.99-8.24,13.7-16.72,20.21-25.35c6.61-8.77,13.01-17.7,19.26-26.74C384.83,242.35,390.97,233.16,397.04,223.92z"/>
	<path class="st2" d="M475.73,273.36c-0.08-0.46-0.19-0.91-0.31-1.33c-9.92,3.68-19.84,7.37-29.76,11.05
		c-11.19,4.15-22.38,8.31-33.57,12.46c-11.14,4.13-22.27,8.27-33.41,12.4c-11.19,4.15-22.38,8.31-33.57,12.46
		c-4.58,1.7-9.16,3.4-13.74,5.1l2.95,0.35c2.33-0.86,4.65-1.73,6.98-2.59c11.19-4.15,22.38-8.31,33.57-12.46
		c11.14-4.13,22.27-8.27,33.41-12.4c11.19-4.15,22.38-8.31,33.57-12.46c11.14-4.13,22.27-8.27,33.41-12.4
		C475.42,273.48,475.57,273.42,475.73,273.36z"/>
	<path class="st2" d="M321.91,317.56c1.81-9.06,3.44-18.15,4.93-27.26c1.6-9.83,3.04-19.68,4.35-29.55
		c1.36-10.28,2.57-20.58,3.64-30.9c1.09-10.52,2.03-21.05,2.82-31.59c0.77-10.25,1.38-20.52,1.84-30.79
		c-0.44-0.17-0.88-0.31-1.35-0.41c-0.4,9.09-0.92,18.17-1.57,27.24c-0.74,10.45-1.64,20.89-2.68,31.32
		c-1.03,10.36-2.21,20.7-3.53,31.02c-1.28,9.96-2.7,19.9-4.27,29.81c-1.46,9.18-3.06,18.34-4.84,27.46
		c-0.21,1.1-0.43,2.19-0.65,3.29C320.43,318.06,321.74,318.42,321.91,317.56z"/>
	<path class="st1" d="M232.27,330.38c0,0-92.14-23.93-96.18-59.1c-4.03-35.18,80.68,2.45,80.68,2.45s-46.47-59.84-29.83-79.73
		c16.64-19.88,62.25,53.04,62.25,53.04s-5.96-76.76,16.44-79.75c22.41-2.98,35.79,150.65,35.79,150.65L232.27,330.38z"/>
	<path class="st2" d="M265.54,192.57c0.82,9.58,1.83,19.14,2.93,28.68c1.14,9.88,2.4,19.75,3.72,29.61c1.28,9.59,2.63,19.16,4,28.74
		c1.24,8.61,2.5,17.22,3.76,25.83c0.14,0.96,0.28,1.91,0.42,2.86c0.13,0.87,1.44,0.5,1.31-0.36c-1.22-8.41-2.46-16.81-3.67-25.22
		c-1.37-9.46-2.71-18.93-3.99-28.41c-1.34-9.87-2.61-19.76-3.78-29.65c-1.14-9.59-2.18-19.18-3.04-28.8
		c-0.78-8.65-1.43-17.32-1.78-26c-0.03-0.83-0.06-1.67-0.09-2.51c-0.46,0.08-0.91,0.19-1.35,0.32
		C264.26,175.98,264.83,184.28,265.54,192.57z"/>
	<ellipse class="st3" cx="297.62" cy="332.66" rx="77.32" ry="11.42"/>
	<path class="st2" d="M257.21,292.99c6.58,7.71,13.34,15.27,20.27,22.67c0.86,0.92,1.73,1.84,2.6,2.76c0.6,0.64,1.57-0.33,0.96-0.96
		c-6.96-7.35-13.75-14.86-20.37-22.52c-6.69-7.75-13.2-15.66-19.53-23.7c-6.41-8.15-12.64-16.45-18.69-24.88
		c-6.1-8.51-12.01-17.15-17.74-25.92c-5.76-8.83-11.34-17.78-16.72-26.84c-0.09-0.15-0.18-0.3-0.26-0.45
		c-0.27,0.26-0.53,0.54-0.78,0.85c-0.06,0.07-0.11,0.14-0.17,0.21c4.76,8.02,9.67,15.95,14.73,23.78
		c5.71,8.84,11.6,17.55,17.69,26.13c5.99,8.44,12.16,16.75,18.51,24.92C244.03,277.18,250.53,285.16,257.21,292.99z"/>
	<path class="st2" d="M262.5,315.86c1.08,0.18,2.17,0.35,3.25,0.52c0.86,0.13,1.23-1.18,0.36-1.31c-8.82-1.36-17.59-3.09-26.26-5.19
		c-8.74-2.12-17.39-4.61-25.93-7.45c-8.64-2.88-17.16-6.11-25.53-9.69c-8.46-3.61-16.77-7.57-24.91-11.85
		c-8.26-4.34-16.34-9-24.23-13.98c-0.94-0.59-1.88-1.19-2.82-1.8c-0.13,0.45-0.23,0.93-0.3,1.42c7.73,4.95,15.65,9.62,23.74,13.97
		c8.15,4.38,16.47,8.44,24.94,12.15c8.32,3.65,16.78,6.96,25.36,9.93c8.55,2.95,17.22,5.55,25.99,7.77
		C244.86,312.57,253.65,314.41,262.5,315.86z"/>
	<g>
		<polygon class="st4" points="402.76,82.73 431.14,76.87 457.46,207.94 427.57,214.12 		"/>
		
			<ellipse transform="matrix(0.9793 -0.2023 0.2023 0.9793 -21.3044 87.4913)" class="st4" cx="417.37" cy="147.97" rx="53.09" ry="66.84"/>
		<g>
			<path class="st5" d="M406.63,122.12l-37.75,7.8c-0.34,2.43-0.58,4.9-0.7,7.41l39.89-8.24L406.63,122.12z"/>
			<path class="st5" d="M409.75,161.75l-1.44-6.97l-37.35,7.71c0.62,2.33,1.34,4.61,2.14,6.83L409.75,161.75z"/>
			<path class="st5" d="M398.09,140.38l-29.79,6.15c0.16,2.35,0.42,4.72,0.79,7.11l30.43-6.29L398.09,140.38z"/>
			<path class="st5" d="M415.17,103.85l-41.53,8.58c-1.06,2.51-1.97,5.13-2.73,7.84l45.7-9.44L415.17,103.85z"/>
			<path class="st5" d="M379.2,102.05l45.95-9.49l-1.44-6.97l-37.19,7.68C383.81,95.87,381.36,98.82,379.2,102.05z"/>
			<path class="st5" d="M439.21,197.26l-38.69,7.99c3.27,2.11,6.68,3.85,10.2,5.16l29.93-6.18L439.21,197.26z"/>
			<path class="st5" d="M427.23,183.55l-41.33,8.54c1.79,2.18,3.69,4.21,5.67,6.1l37.1-7.66L427.23,183.55z"/>
			<path class="st5" d="M420.23,176.07l-1.44-6.97l-42.09,8.69c1.12,2.26,2.33,4.43,3.63,6.52L420.23,176.07z"/>
		</g>
		
			<ellipse transform="matrix(0.9793 -0.2023 0.2023 0.9793 -19.645 92.7531)" class="st4" cx="443.94" cy="142.48" rx="53.09" ry="66.84"/>
		<path class="st6" d="M398.81,101.55c-6.18,11.08-9.3,24.88-8.45,39.54l88.35,55.7c8.85-8.25,15.03-20.15,17.61-33.76
			L398.81,101.55z"/>
		<path class="st6" d="M402.53,95.73l94.83,59.78c0.57-6.54,0.34-13.37-0.8-20.31l-81.74-51.53
			C410.14,86.85,406.01,90.94,402.53,95.73z"/>
		
			<ellipse transform="matrix(0.9793 -0.2023 0.2023 0.9793 -19.645 92.7529)" class="st7" cx="443.94" cy="142.48" rx="43.41" ry="54.65"/>
		<g>
			<path class="st8" d="M405.95,111.08c-5.6,11.24-7.56,25.51-4.52,40.19c0.15,0.72,0.32,1.42,0.48,2.13l62.32,39.28
				c10.94-5.76,18.81-17.14,22.03-30.98L405.95,111.08z"/>
			<path class="st8" d="M422,93.21c-4.9,2.91-9.13,6.98-12.54,11.91l78.04,49.19c0.69-6.53,0.41-13.45-1.03-20.46L422,93.21z"/>
		</g>
		<path class="st5" d="M433.83,88.8c21.76-1.24,42.81,17.97,48.47,45.39c6.11,29.56-7.98,57.45-31.45,62.3
			c-0.31,0.06-0.63,0.11-0.94,0.16c1.7-0.1,3.39-0.3,5.09-0.65c23.48-4.85,37.56-32.74,31.45-62.3
			C480.42,104.54,457,84.67,433.83,88.8z"/>
	</g>
	<polygon class="st4" points="499.19,83.84 500.9,59.75 503.99,83.7 518.61,85.68 504.13,88.5 502.39,111.43 499.33,88.64 
		484.71,86.66 	"/>
	<polygon class="st4" points="523.01,109.92 524.13,94.03 526.17,109.83 535.82,111.13 526.26,112.99 525.12,128.12 523.1,113.09 
		513.45,111.78 	"/>
	<path class="st4" d="M92.02,115.06c0,0-39.91-20.89-35-26.02c4.91-5.13,25.12,5.19,25.12,5.19s-5.13-22.76,2.94-22.87
		C93.15,71.25,92.02,115.06,92.02,115.06z"/>
	<path class="st4" d="M109.09,89.04c0,0-9.19-12.87-6.58-13.95c2.61-1.09,5.6,3.34,5.6,3.34s-0.1-6.25,2.87-5
		C113.94,74.67,109.09,89.04,109.09,89.04z"/>
	<g>
		<circle class="st4" cx="169.94" cy="142.28" r="69.02"/>
		<path class="st5" d="M110.69,148.63c-3.5-32.72,20.18-62.08,52.9-65.58c32.72-3.5,60.99,24.55,64.49,57.27
			c3.5,32.72-16.12,56.69-48.84,60.19C146.53,204,114.2,181.34,110.69,148.63z"/>
		
			<ellipse transform="matrix(0.99 -0.1411 0.1411 0.99 -18.3715 25.3943)" class="st3" cx="169.94" cy="142.28" rx="54.19" ry="54.19"/>
		<path class="st9" d="M170.86,151.72c-0.18,0-0.35-0.06-0.5-0.17l-16.17-12.7c-0.36-0.28-0.42-0.79-0.14-1.15
			c0.28-0.36,0.79-0.42,1.15-0.14l15.53,12.2l24.38-30.49c0.28-0.35,0.8-0.41,1.15-0.13c0.35,0.28,0.41,0.8,0.13,1.15l-24.89,31.12
			C171.34,151.61,171.1,151.72,170.86,151.72z"/>
		<path class="st9" d="M166.05,106.51c-0.28,0-0.51-0.21-0.54-0.49l-1.17-10.93c-0.03-0.3,0.18-0.57,0.48-0.6
			c0.3-0.03,0.57,0.18,0.6,0.48l1.17,10.93c0.03,0.3-0.18,0.57-0.48,0.6C166.09,106.51,166.07,106.51,166.05,106.51z"/>
		<path class="st9" d="M175.12,191.22c-0.28,0-0.51-0.21-0.54-0.49l-1.17-10.93c-0.03-0.3,0.18-0.57,0.48-0.6
			c0.3-0.03,0.57,0.18,0.6,0.48l1.17,10.93c0.03,0.3-0.18,0.57-0.48,0.6C175.16,191.22,175.14,191.22,175.12,191.22z"/>
		<path class="st9" d="M206.89,139.45c-0.28,0-0.51-0.21-0.54-0.49c-0.03-0.3,0.18-0.57,0.48-0.6l10.93-1.17
			c0.3-0.03,0.57,0.18,0.6,0.48c0.03,0.3-0.18,0.57-0.48,0.6l-10.93,1.17C206.93,139.45,206.91,139.45,206.89,139.45z"/>
		<path class="st9" d="M122.18,148.52c-0.28,0-0.51-0.21-0.54-0.49c-0.03-0.3,0.18-0.57,0.48-0.6l10.93-1.17
			c0.3-0.03,0.57,0.18,0.6,0.48c0.03,0.3-0.18,0.57-0.48,0.6l-10.93,1.17C122.22,148.52,122.2,148.52,122.18,148.52z"/>
		<path class="st3" d="M113.94,157.18c1.98,6.83,4.81,12.02,1.76,12.9c-3.05,0.88-7.12-3.94-9.1-10.78
			c-1.98-6.83-1.11-13.09,1.93-13.97C111.58,144.44,111.96,150.34,113.94,157.18z"/>
		<path class="st5" d="M217.15,184.17c1.47,3.59-7.02,13.03-20.99,18.75c-13.97,5.73-28.13,5.57-29.6,1.99
			c-1.47-3.59,8.18-4.1,22.15-9.83C202.68,189.36,215.68,180.59,217.15,184.17z"/>
		<path class="st5" d="M226.6,117.45c2.21-0.59,6.92,4.46,8.98,12.22c2.06,7.76,0.68,15.3-1.53,15.89
			c-2.21,0.59-1.64-4.58-3.69-12.35C228.29,125.45,224.38,118.04,226.6,117.45z"/>
	</g>
	<path class="st10" d="M291.64,243.86l-30.51,86.22c9.48,9.9,67.8,8.81,72.77,0l-30.51-86.22H291.64z"/>
	<path class="st11" d="M321.99,335.15l-19.39-85.49l-5.82,0.08l-2.86,87.33C303.96,337.29,314.29,336.62,321.99,335.15z"/>
	<path class="st12" d="M280.14,336.12l17.2-95.3l-25.82,93.83C274.11,335.25,277.03,335.74,280.14,336.12z"/>
	<path class="st11" d="M297.93,261.96c3.72,0,7.17-1.64,10-4.43l-4.24-12.34l-12.13-0.59l-4.23,12.31
		C290.26,260.07,293.93,261.96,297.93,261.96z"/>
	<path class="st10" d="M427.47,249.74h-259.9c-3.44,0-6.23-2.79-6.23-6.23v-0.72H433.7v0.72
		C433.7,246.95,430.91,249.74,427.47,249.74z"/>
	<polygon class="st11" points="330.96,249.74 264.56,249.74 260.57,242.79 334.46,242.79 	"/>
	<circle class="st12" cx="297.34" cy="247.23" r="11.55"/>
	<circle class="st11" cx="297.34" cy="247.23" r="8.17"/>
	<ellipse class="st10" cx="297.34" cy="248.11" rx="6.76" ry="7.29"/>
	<path class="st13" d="M297.34,235.68c-6.38,0-11.55,5.17-11.55,11.55c0,0.83,0.09,1.65,0.26,2.43c2.88-1.06,6.68-1.94,11.63-2.24
		c4.28-0.26,7.95,0.59,11.02,1.94c0.13-0.69,0.2-1.4,0.2-2.13C308.89,240.85,303.72,235.68,297.34,235.68z"/>
	<path class="st11" d="M297.34,239.06c-4.51,0-8.17,3.66-8.17,8.17c0,0.49,0.05,0.97,0.13,1.43c2.34-0.59,5.1-1.04,8.37-1.24
		c2.86-0.17,5.45,0.15,7.78,0.79c0.04-0.32,0.06-0.65,0.06-0.98C305.51,242.72,301.85,239.06,297.34,239.06z"/>
	<path class="st12" d="M209.31,239.62h-87.34c-8.27,0-14.98-6.71-14.98-14.98v-1.72h117.3v1.72
		C224.29,232.91,217.58,239.62,209.31,239.62z"/>
	<path class="st12" d="M473.07,239.62h-87.34c-8.27,0-14.98-6.71-14.98-14.98v-1.72h117.3v1.72
		C488.05,232.91,481.34,239.62,473.07,239.62z"/>
	<rect x="161.34" y="239.62" class="st11" width="8.6" height="3.17"/>
	<rect x="425.1" y="239.62" class="st11" width="8.6" height="3.17"/>
	<g>
		<polygon class="st14" points="207.19,222.92 199.87,222.92 194.56,239.62 201.88,239.62 		"/>
		<polygon class="st14" points="170.82,239.62 190.69,239.62 196,222.92 176.12,222.92 		"/>
	</g>
	<g>
		<polygon class="st3" points="148.08,222.92 140.76,222.92 135.45,239.62 142.77,239.62 		"/>
		<polygon class="st3" points="122.74,239.62 130.06,239.62 135.37,222.92 128.04,222.92 		"/>
	</g>
	<g>
		<polygon class="st14" points="471.62,222.92 464.3,222.92 458.99,239.62 466.32,239.62 		"/>
		<polygon class="st14" points="435.25,239.62 455.13,239.62 460.44,222.92 440.56,222.92 		"/>
	</g>
	<g>
		<polygon class="st3" points="412.52,222.92 405.19,222.92 399.89,239.62 407.21,239.62 		"/>
		<polygon class="st3" points="387.17,239.62 394.49,239.62 399.8,222.92 392.48,222.92 		"/>
	</g>
	<path class="st12" d="M292.16,248.93c0.29,1.26,0.15,2.36-0.31,2.47c-0.46,0.1-1.06-0.83-1.34-2.09c-0.29-1.26-0.15-2.36,0.31-2.47
		C291.28,246.73,291.88,247.67,292.16,248.93z"/>
	<g>
		<polygon class="st11" points="211.35,249.74 215.36,242.79 178.29,242.79 174.28,249.74 		"/>
		<polygon class="st11" points="234.92,242.79 221.26,242.79 217.25,249.74 230.91,249.74 		"/>
	</g>
	<g>
		<polygon class="st11" points="390.83,249.74 394.84,242.79 357.77,242.79 353.76,249.74 		"/>
		<polygon class="st11" points="414.39,242.79 400.74,242.79 396.73,249.74 410.38,249.74 		"/>
	</g>
	<path class="st12" d="M226.71,247.04h-40.77c-0.58,0-1.04-0.47-1.04-1.04v-0.24c0-0.58,0.47-1.04,1.04-1.04h40.77
		c0.58,0,1.04,0.47,1.04,1.04V246C227.76,246.57,227.29,247.04,226.71,247.04z"/>
	<path class="st12" d="M240.29,247.04h-6.64c-0.58,0-1.04-0.47-1.04-1.04v-0.24c0-0.58,0.47-1.04,1.04-1.04h6.64
		c0.58,0,1.04,0.47,1.04,1.04V246C241.34,246.57,240.87,247.04,240.29,247.04z"/>
	<path class="st12" d="M370.56,247.04h-27.38c-0.58,0-1.04-0.47-1.04-1.04v-0.24c0-0.58,0.47-1.04,1.04-1.04h27.38
		c0.58,0,1.04,0.47,1.04,1.04V246C371.6,246.57,371.13,247.04,370.56,247.04z"/>
	<path class="st12" d="M379.89,247.04h-3.91c-0.58,0-1.04-0.47-1.04-1.04v-0.24c0-0.58,0.47-1.04,1.04-1.04h3.91
		c0.58,0,1.04,0.47,1.04,1.04V246C380.93,246.57,380.47,247.04,379.89,247.04z"/>
</g>
<path class="st5" d="M463.13,105.24l-42.95,2l0.27,5.47l10.09-0.47c7.48-0.35,13.93,4.89,15.13,11.94l-24.61,1.14l0.22,4.56
	l24.41-1.14c-1.05,6.56-6.72,11.74-13.77,12.07l-10.09,0.47l0.27,5.47l0.11-0.01L449.44,181l7.88-0.37l-27.22-34.24l2.09-0.1
	c10.15-0.47,18.22-8.21,19.19-17.81l12.85-0.6l-0.22-4.56l-12.71,0.59c-0.67-4.93-3.18-9.25-6.81-12.33l18.91-0.88L463.13,105.24z"
	/>
<path class="st6" d="M466.19,104.33l-42.95,1.99l0.26,5.47l10.09-0.47c7.49-0.35,13.93,4.89,15.12,11.94l-24.61,1.14l0.22,4.56
	l24.42-1.13c-1.06,6.56-6.73,11.74-13.78,12.07l-10.09,0.47l0.26,5.47l0.11-0.01l27.18,34.24l7.88-0.37l-27.18-34.24l2.09-0.1
	c10.15-0.47,18.23-8.21,19.21-17.81l12.85-0.6l-0.22-4.56l-12.71,0.59c-0.66-4.93-3.17-9.25-6.8-12.33l18.91-0.88L466.19,104.33z"/>
<g>
	<path class="st4" d="M435.18,145.39c9.85-0.45,17.73-7.75,19.08-16.96l-8.01-5.03l-22.18,1.01l0.22,4.56l24.42-1.11
		c-1.06,6.56-6.73,11.74-13.78,12.06l-10.09,0.46l0.26,5.47l0.11-0.01l27.18,34.26l7.88-0.36l-27.18-34.26L435.18,145.39z"/>
	<polygon class="st4" points="456.86,110.27 466.42,109.84 466.16,104.36 448.71,105.16 	"/>
	<polygon class="st4" points="423.34,109.02 423.47,111.8 427.47,111.61 	"/>
</g>
</svg>
