<?xml version="1.0" encoding="utf-8"?>
<!-- Generator: Adobe Illustrator 24.3.0, SVG Export Plug-In . SVG Version: 6.00 Build 0)  -->
<svg version="1.1" xmlns="http://www.w3.org/2000/svg" xmlns:xlink="http://www.w3.org/1999/xlink" x="0px" y="0px"
	 viewBox="0 0 3000 2772.61" style="enable-background:new 0 0 3000 2772.61;" xml:space="preserve">
<style type="text/css">
	.st0{opacity:0.4;}
	.st1{fill:#C2E5F9;}
	.st2{fill:none;stroke:#1B1B43;stroke-width:4.2942;stroke-linecap:round;stroke-linejoin:round;stroke-miterlimit:10;}
	.st3{fill:#FFFFFF;}
</style>
<g id="BACKGROUND">
</g>
<g id="OBJECTS">
	<g>
		<g class="st0">
			<path class="st1" d="M2426.66,131.57c213.22,57.98,426.35,168.52,535.42,360.71c15.21,26.78,28.05,54.6,38.98,83.11
				l-30.53,1943.48c-122.71,87.83-271.92,138.05-422.73,142.39c-115.28,3.3-236.46-22.48-323.17-98.53
				c-116.92-102.59-147.18-273.26-139.67-428.62c7.51-155.39,45.19-309.67,33.89-464.84c-13.65-186.69-96.9-360.13-177.69-528.98
				c-80.79-168.85-162.01-343.76-171.05-530.72c-9-186.96,71.76-390.89,240.36-472.16C2138.2,75.8,2289.81,94.38,2426.66,131.57z"/>
		</g>
		<g class="st0">
			<path class="st1" d="M1807.46,1324.91c105.38,37.35,158.85,102.04,167.95,186.6c9.09,84.43-11.17,168.22-9.07,252.61
				c1.45,58.41-5.48,119.15-58,156.66c-55.51,39.65-150.47,76.42-216.47,36.89c-64.35-38.55-80.27-123.72-43.82-183.12
				c13.54-22.07,35.55-47.91,34.48-74.79c-1.71-43.18-26.39-85.04-50.33-125.78c-23.94-40.74-47.92-82.89-48.13-126.02
				C1583.54,1337.37,1705.62,1288.81,1807.46,1324.91z"/>
		</g>
	</g>
	<g>
		<path class="st1" d="M1277.68,1729.93c-8.58,0-15.57-7.16-15.57-15.97c0-8.81,6.98-15.97,15.57-15.97
			c8.58,0,15.57,7.16,15.57,15.97C1293.25,1722.77,1286.27,1729.93,1277.68,1729.93z M1277.68,1702.29
			c-6.22,0-11.27,5.24-11.27,11.67s5.06,11.67,11.27,11.67c6.22,0,11.27-5.24,11.27-11.67S1283.9,1702.29,1277.68,1702.29z"/>
		<path class="st1" d="M160.84,1480.95c-10.71,0-19.43-9.21-19.43-20.53c0-11.32,8.72-20.53,19.43-20.53
			c10.71,0,19.43,9.21,19.43,20.53C180.27,1471.74,171.55,1480.95,160.84,1480.95z M160.84,1444.18c-8.34,0-15.13,7.29-15.13,16.24
			c0,8.95,6.79,16.24,15.13,16.24c8.35,0,15.13-7.29,15.13-16.24C175.97,1451.46,169.19,1444.18,160.84,1444.18z"/>
		<ellipse class="st1" cx="962.4" cy="1935.97" rx="15.03" ry="14.94"/>
		<ellipse class="st1" cx="2859.67" cy="1406.29" rx="19.32" ry="19.2"/>
		<path class="st1" d="M1604.58,1297c-10.31,0-18.69-8.8-18.69-19.61c0-10.81,8.39-19.61,18.69-19.61s18.69,8.8,18.69,19.61
			C1623.27,1288.2,1614.89,1297,1604.58,1297z M1604.58,1262.07c-7.94,0-14.4,6.87-14.4,15.32c0,8.45,6.46,15.32,14.4,15.32
			s14.4-6.87,14.4-15.32C1618.98,1268.94,1612.52,1262.07,1604.58,1262.07z"/>
		<path class="st1" d="M2137.67,1431.43l-21.22-21.72l21.65-22.16l21.22,21.72L2137.67,1431.43z M2122.46,1409.71l15.22,15.57
			l15.65-16.02l-15.22-15.57L2122.46,1409.71z"/>
		
			<rect x="271.72" y="1180.35" transform="matrix(0.7071 0.7071 -0.7071 0.7071 927.9496 148.0841)" class="st1" width="27.01" height="27.65"/>
		<path class="st1" d="M791.67,1746.89l-21.22-21.72l21.65-22.16l21.22,21.72L791.67,1746.89z M776.46,1725.17l15.22,15.57
			l15.65-16.02l-15.22-15.57L776.46,1725.17z"/>
		<path class="st1" d="M2792.63,1071.44l-18.98-18.98l19.36-19.36l18.98,18.98L2792.63,1071.44z M2779.73,1052.47l12.91,12.9
			l13.28-13.28l-12.9-12.9L2779.73,1052.47z"/>
		<g>
			<path class="st1" d="M1427.68,1769.92h-203.84c-1.22,0-2.21-0.99-2.21-2.21c0-1.22,0.99-2.21,2.21-2.21h203.84
				c1.22,0,2.21,0.99,2.21,2.21C1429.89,1768.93,1428.9,1769.92,1427.68,1769.92z"/>
			<path class="st1" d="M1262.4,1813.89h-38.56c-1.22,0-2.21-0.99-2.21-2.21s0.99-2.21,2.21-2.21h38.56c1.22,0,2.21,0.99,2.21,2.21
				S1263.62,1813.89,1262.4,1813.89z"/>
			<path class="st1" d="M1373.37,1813.89h-79.75c-1.22,0-2.21-0.99-2.21-2.21s0.99-2.21,2.21-2.21h79.75c1.22,0,2.21,0.99,2.21,2.21
				S1374.59,1813.89,1373.37,1813.89z"/>
			<path class="st1" d="M1427.68,1857.86h-203.84c-1.22,0-2.21-0.99-2.21-2.21s0.99-2.21,2.21-2.21h203.84
				c1.22,0,2.21,0.99,2.21,2.21S1428.9,1857.86,1427.68,1857.86z"/>
		</g>
	</g>
	<path class="st2" d="M2571.85,2053.37"/>
	<path class="st2" d="M2517.09,2057.5"/>
	<g>
		<g>
			<path class="st1" d="M2040.97,1175.81c0-41.37-33.54-74.91-74.91-74.91s-74.91,33.54-74.91,74.91c0,34.87,23.85,64.08,56.1,72.44
				l-8.02,28.63l26.86-26.16C2007.45,1250.7,2040.97,1217.17,2040.97,1175.81z"/>
			<g>
				<circle class="st3" cx="1937.07" cy="1174.24" r="7.78"/>
				<circle class="st3" cx="1966.05" cy="1174.24" r="7.78"/>
				<circle class="st3" cx="1995.04" cy="1174.24" r="7.78"/>
			</g>
		</g>
		<g>
			<path class="st1" d="M2338.21,1214.51l-22.8-13.41c3.07-8.18,4.83-17.01,4.83-26.27c0-41.37-33.54-74.91-74.91-74.91
				s-74.91,33.54-74.91,74.91c0,41.37,33.54,74.91,74.91,74.91c25.74,0,48.43-12.99,61.92-32.76L2338.21,1214.51z"/>
			<g>
				<circle class="st3" cx="2217.03" cy="1172.63" r="7.78"/>
				<circle class="st3" cx="2246.02" cy="1172.63" r="7.78"/>
				<circle class="st3" cx="2275.01" cy="1172.63" r="7.78"/>
			</g>
		</g>
	</g>
</g>
</svg>
