<?xml version="1.0" encoding="utf-8"?>
<!-- Generator: Adobe Illustrator 24.3.0, SVG Export Plug-In . SVG Version: 6.00 Build 0)  -->
<svg version="1.1" xmlns="http://www.w3.org/2000/svg" xmlns:xlink="http://www.w3.org/1999/xlink" x="0px" y="0px"
	 viewBox="0 0 3000 2000" style="enable-background:new 0 0 3000 2000;" xml:space="preserve">
<style type="text/css">
	.st0{opacity:0.4;}
	.st1{fill:#E5E5FF;}
	.st2{fill:#CBCBFF;}
	.st3{fill:#1B1B43;}
	.st4{fill:#FFFFFF;}
	.st5{fill:#BE443D;}
	.st6{fill:#FE5B52;}
	.st7{fill:#5254CF;}
	.st8{fill:#FFBC96;}
	.st9{fill:#D28572;}
	.st10{opacity:0.5;fill:#FF9289;}
	.st11{fill:#925D4F;}
	.st12{opacity:0.2;fill:#BE443D;}
	.st13{fill:#FFB147;}
	.st14{fill:none;stroke:#1B1B43;stroke-width:4.2942;stroke-linecap:round;stroke-linejoin:round;stroke-miterlimit:10;}
	.st15{opacity:0.6;fill:#CBCBFF;}
</style>
<g id="BACKGROUND">
</g>
<g id="OBJECTS">
	<g>
		<g>
			<g class="st0">
				<path class="st1" d="M2739.79,1097.42c-54.62,214.11-161.8,428.95-352.25,541.02c-26.54,15.63-54.15,28.9-82.49,40.28H361.33
					c-89.75-121.31-142.31-269.72-149.01-420.44c-5.11-115.21,18.77-236.78,93.44-324.68C406.5,815.07,576.68,782.14,732.13,787.2
					c155.49,5.07,310.34,40.32,465.32,26.58c186.45-16.58,358.56-102.54,526.12-185.98c167.56-83.44,341.17-167.39,527.97-179.37
					c186.8-11.94,391.97,65.62,475.88,232.92C2791.02,808.12,2774.83,960,2739.79,1097.42z"/>
			</g>
			<g class="st0">
				<path class="st1" d="M1536.87,497.04c-35.69,105.95-99.53,160.43-183.94,170.86c-84.27,10.41-168.38-8.53-252.72-5.1
					c-58.38,2.37-119.22-3.61-157.55-55.53c-40.51-54.88-78.78-149.26-40.28-215.86c37.53-64.94,122.44-82.2,182.41-46.7
					c22.28,13.19,48.46,34.79,75.33,33.3c43.15-2.39,84.61-27.72,124.98-52.3c40.36-24.57,82.12-49.22,125.24-50.1
					C1520.9,273.34,1571.37,394.65,1536.87,497.04z"/>
			</g>
		</g>
		<g>
			<path class="st2" d="M1277.68,1265.44c-8.58,0-15.57-7.16-15.57-15.97s6.98-15.97,15.57-15.97c8.58,0,15.57,7.16,15.57,15.97
				S1286.27,1265.44,1277.68,1265.44z M1277.68,1237.8c-6.22,0-11.27,5.24-11.27,11.67s5.06,11.67,11.27,11.67
				c6.22,0,11.27-5.24,11.27-11.67S1283.9,1237.8,1277.68,1237.8z"/>
			<path class="st2" d="M160.84,1016.46c-10.71,0-19.43-9.21-19.43-20.53c0-11.32,8.72-20.53,19.43-20.53
				c10.71,0,19.43,9.21,19.43,20.53C180.27,1007.25,171.55,1016.46,160.84,1016.46z M160.84,979.69c-8.34,0-15.13,7.29-15.13,16.24
				c0,8.95,6.79,16.24,15.13,16.24c8.35,0,15.13-7.29,15.13-16.24C175.97,986.97,169.19,979.69,160.84,979.69z"/>
			<ellipse class="st2" cx="962.4" cy="1471.48" rx="15.03" ry="14.94"/>
			<ellipse class="st2" cx="2859.67" cy="941.8" rx="19.32" ry="19.2"/>
			<path class="st2" d="M1604.58,832.51c-10.31,0-18.69-8.8-18.69-19.61c0-10.81,8.39-19.61,18.69-19.61s18.69,8.8,18.69,19.61
				C1623.27,823.71,1614.89,832.51,1604.58,832.51z M1604.58,797.58c-7.94,0-14.4,6.87-14.4,15.32c0,8.45,6.46,15.32,14.4,15.32
				s14.4-6.87,14.4-15.32C1618.98,804.45,1612.52,797.58,1604.58,797.58z"/>
			<path class="st2" d="M2137.67,966.94l-21.22-21.72l21.65-22.16l21.22,21.72L2137.67,966.94z M2122.46,945.22l15.22,15.57
				l15.65-16.02l-15.22-15.57L2122.46,945.22z"/>
			
				<rect x="271.72" y="715.86" transform="matrix(0.7071 0.7071 -0.7071 0.7071 599.5051 12.0384)" class="st2" width="27.01" height="27.65"/>
			<path class="st2" d="M791.67,1282.4l-21.22-21.72l21.65-22.16l21.22,21.72L791.67,1282.4z M776.46,1260.68l15.22,15.57
				l15.65-16.02l-15.22-15.57L776.46,1260.68z"/>
			<path class="st2" d="M2792.63,606.95l-18.98-18.98l19.36-19.36l18.98,18.98L2792.63,606.95z M2779.73,587.97l12.91,12.9
				l13.28-13.28l-12.9-12.9L2779.73,587.97z"/>
			<g>
				<path class="st2" d="M1427.68,1305.43h-203.84c-1.22,0-2.21-0.99-2.21-2.21s0.99-2.21,2.21-2.21h203.84
					c1.22,0,2.21,0.99,2.21,2.21S1428.9,1305.43,1427.68,1305.43z"/>
				<path class="st2" d="M1262.4,1349.4h-38.56c-1.22,0-2.21-0.99-2.21-2.21s0.99-2.21,2.21-2.21h38.56c1.22,0,2.21,0.99,2.21,2.21
					S1263.62,1349.4,1262.4,1349.4z"/>
				<path class="st2" d="M1373.37,1349.4h-79.75c-1.22,0-2.21-0.99-2.21-2.21s0.99-2.21,2.21-2.21h79.75c1.22,0,2.21,0.99,2.21,2.21
					S1374.59,1349.4,1373.37,1349.4z"/>
				<path class="st2" d="M1427.68,1393.37h-203.84c-1.22,0-2.21-0.99-2.21-2.21s0.99-2.21,2.21-2.21h203.84
					c1.22,0,2.21,0.99,2.21,2.21S1428.9,1393.37,1427.68,1393.37z"/>
			</g>
		</g>
		<g>
			<path class="st3" d="M1919.89,1682.44c-1.19,0-2.15-0.96-2.15-2.15v-341.66c0-1.19,0.96-2.15,2.15-2.15s2.15,0.96,2.15,2.15
				v341.66C1922.03,1681.48,1921.07,1682.44,1919.89,1682.44z"/>
			<g>
				<path class="st4" d="M1990.97,1680.29H1848.8v-0.7c0-16.45,13.34-29.79,29.79-29.79h82.59c16.45,0,29.79,13.34,29.79,29.79
					V1680.29z"/>
				<path class="st3" d="M1992.58,1681.9h-145.39v-2.31c0-17.31,14.09-31.4,31.4-31.4h82.59c17.31,0,31.4,14.09,31.4,31.4V1681.9z
					 M1850.43,1678.68h138.92c-0.48-15.12-12.93-27.27-28.17-27.27h-82.59C1863.36,1651.41,1850.91,1663.56,1850.43,1678.68z"/>
			</g>
			<path class="st2" d="M2015.6,1353.1h-191.42v-35.32h156.91c19.06,0,34.51,15.45,34.51,34.51V1353.1z"/>
		</g>
		<g>
			<g>
				<g>
					<polygon class="st2" points="1642.06,1598.48 1649.53,1680.29 1537.48,1680.29 1587.47,1631.2 1586.9,1599.13 					"/>
					<g>
						<line class="st4" x1="1578.28" y1="1639.17" x2="1594.92" y2="1647.22"/>
						<path class="st3" d="M1594.91,1649.37c-0.31,0-0.63-0.07-0.93-0.21l-16.64-8.05c-1.07-0.52-1.51-1.8-1-2.87
							c0.52-1.07,1.8-1.51,2.87-1l16.64,8.05c1.07,0.52,1.51,1.8,1,2.87C1596.48,1648.92,1595.71,1649.37,1594.91,1649.37z"/>
					</g>
					<g>
						<line class="st4" x1="1567.54" y1="1650.98" x2="1584.18" y2="1659.03"/>
						<path class="st3" d="M1584.18,1661.18c-0.31,0-0.63-0.07-0.93-0.21l-16.64-8.05c-1.07-0.52-1.51-1.8-1-2.87
							c0.52-1.07,1.8-1.51,2.87-1l16.64,8.05c1.07,0.52,1.51,1.8,1,2.87C1585.74,1660.73,1584.98,1661.18,1584.18,1661.18z"/>
					</g>
					<path class="st3" d="M1615.31,1681.04c-1.09,0-2.03-0.83-2.13-1.94c-0.99-10.12,2.65-18.96,10.25-24.87
						c7.16-5.57,16.86-7.56,24.13-4.94c1.12,0.4,1.69,1.63,1.29,2.75c-0.4,1.11-1.63,1.7-2.75,1.29
						c-5.85-2.11-14.09-0.34-20.04,4.29c-6.4,4.98-9.46,12.46-8.62,21.06c0.12,1.18-0.75,2.23-1.93,2.35
						C1615.45,1681.03,1615.38,1681.04,1615.31,1681.04z"/>
				</g>
				<path class="st5" d="M1795.67,1230.86l-137.35,32.58c-47.97,13.33-81.81,57.32-83.27,108.75l-3.12,242.49l86.2,1.19
					l43.66-251.38L1795.67,1230.86z"/>
			</g>
			<g>
				<g>
					<polygon class="st2" points="1838.85,1580.66 1900.82,1655.67 1810.5,1724.42 1823.34,1654.41 1794.75,1615.03 					"/>
					<g>
						<line class="st4" x1="1822.58" y1="1661.23" x2="1840.7" y2="1657.56"/>
						<path class="st3" d="M1822.58,1663.38c-1,0-1.9-0.7-2.1-1.72c-0.24-1.16,0.52-2.29,1.68-2.53l18.12-3.67
							c1.16-0.24,2.29,0.52,2.53,1.68s-0.52,2.29-1.68,2.53l-18.12,3.67C1822.87,1663.36,1822.72,1663.38,1822.58,1663.38z"/>
					</g>
					<g>
						<line class="st4" x1="1821.19" y1="1677.13" x2="1839.31" y2="1673.46"/>
						<path class="st3" d="M1821.19,1679.27c-1,0-1.9-0.7-2.1-1.72c-0.24-1.16,0.52-2.29,1.68-2.53l18.12-3.67
							c1.16-0.24,2.29,0.52,2.53,1.68s-0.52,2.29-1.68,2.53l-18.12,3.67C1821.47,1679.26,1821.33,1679.27,1821.19,1679.27z"/>
					</g>
					<path class="st3" d="M1880.99,1671.95c-0.41,0-0.83-0.12-1.19-0.36c-7.8-5.22-10.41-16.6-9.53-24.97
						c0.83-7.95,4.47-13.78,9.99-15.99c1.1-0.44,2.35,0.1,2.79,1.2c0.44,1.1-0.09,2.35-1.2,2.79c-3.93,1.57-6.66,6.22-7.31,12.45
						c-0.77,7.35,1.61,16.91,7.65,20.95c0.99,0.66,1.25,1.99,0.59,2.98C1882.36,1671.62,1881.68,1671.95,1880.99,1671.95z"/>
				</g>
				<path class="st6" d="M1962.01,1253.42l-10.81,44.09c-0.71,3.28-2.05,6.98-3.94,10.85c-9.62,19.73-27.78,32.49-47.81,35.15
					l-141,39.09l119.16,210.41l-75.15,51.53l-139.92-198.61c-31.81-45.62-21.86-111.78,21.57-143.38
					c14.86-10.81,26.33-18.61,28-18.24l98.58-54.16L1962.01,1253.42z"/>
			</g>
			<g>
				<path class="st7" d="M1696.19,1168.2l-2.99,87.56c84.21-14.43,179.44-21.03,268.67-2.35c17.91-39.09,11.94-70.76-3.73-107.11
					L1696.19,1168.2z"/>
				<path class="st7" d="M1675.48,1199.42c0,0-73.26,6.4-85.23-45.58c-8.9-38.61,24.04-99.12,53.42-143.31
					c23.36-35.14,55.08-61.95,91.27-77.75l41.28-18.02l58.91,21.24l93.95,57.12l23.6,202.3
					C1952.67,1195.42,1674.07,1199.42,1675.48,1199.42z"/>
				<g>
					<path class="st8" d="M1883.88,1126.37c0,0-13.6,2.17-13.6,2.17c-11.96,1.91-30.72,5.82-42.94,9.42
						c-26.57,7.83-37.84,39.18-37.84,39.18l24.42,1.48l42.4-18.25l33.9,1.57L1883.88,1126.37z"/>
					<g>
						<path class="st9" d="M1808.82,1176.74c-0.35,0-0.69-0.17-0.89-0.48c-0.33-0.49-0.2-1.16,0.29-1.49l21.2-14.22
							c0.49-0.33,1.16-0.2,1.49,0.29c0.33,0.49,0.2,1.16-0.29,1.49l-21.2,14.22C1809.23,1176.68,1809.03,1176.74,1808.82,1176.74z"
							/>
						<path class="st9" d="M1799.69,1176.2c-0.27,0-0.55-0.1-0.76-0.31c-0.42-0.42-0.42-1.1,0-1.52l16.37-16.37
							c0.42-0.42,1.1-0.42,1.52,0c0.42,0.42,0.42,1.1,0,1.52l-16.37,16.37C1800.24,1176.1,1799.97,1176.2,1799.69,1176.2z"/>
					</g>
				</g>
				<path class="st7" d="M1807.38,912.54l66.12,17.02c17.71,4.83,40.34,16.74,51.71,27.91c30.65,30.1,86.6,108.79,90.18,160.32
					c1.87,26.91-15.53,48.99-49.11,53.84l-73.82,10.65l-22.39-53.95l67.91-17.2l-61.94-99.29L1807.38,912.54z"/>
				<path class="st3" d="M1891.79,1183.45l-22.98-55.65l67.48-17.36l-65.31-104.1c-0.32-0.5-0.16-1.16,0.34-1.48
					c0.5-0.32,1.16-0.16,1.48,0.34l66.88,106.59l-67.94,17.47l21.4,51.82l72.99-10.53c0.59-0.09,1.13,0.32,1.22,0.91
					c0.08,0.59-0.32,1.13-0.91,1.22L1891.79,1183.45z"/>
				<path class="st3" d="M1788.1,977.24c-13.93,0-27.89-5.73-38.97-16.13c-0.43-0.41-0.45-1.08-0.05-1.52
					c0.41-0.43,1.08-0.45,1.52-0.05c11.96,11.23,27.39,16.81,42.33,15.3c15.5-1.56,29.26-10.26,39.79-25.16
					c0.34-0.48,1.01-0.6,1.5-0.26c0.48,0.34,0.6,1.01,0.26,1.5c-10.9,15.42-25.19,24.43-41.33,26.06
					C1791.47,977.16,1789.78,977.24,1788.1,977.24z"/>
				<path class="st3" d="M1687.6,1070.91c-0.15,0-0.31-0.03-0.46-0.1c-0.54-0.25-0.77-0.89-0.52-1.43l27.2-57.97
					c0.25-0.54,0.89-0.77,1.43-0.52c0.54,0.25,0.77,0.89,0.52,1.43l-27.2,57.97C1688.39,1070.68,1688,1070.91,1687.6,1070.91z"/>
				<g>
					<path class="st3" d="M1714.68,797.34c-4.04-6.3-5.27-14.33-3.29-21.55c1.98-7.22,7.13-13.5,13.82-16.86
						c5.34-2.68,12.71-3.1,16.51,1.51c8.86-8.76,24.13-10.01,34.3-2.81c3.11,2.18,11.48-2.6,14.64-3.37
						c6.15-1.49,12.33-0.72,17.25,3.8c4.14,3.8,5.99,10.3,3.44,15.31c2.96-5.79,24.04,1.83,27.29,4.37
						c16.36,12.79,15.44,40.76,1.76,55.19c-2.69,2.83-6.81,4.83-7.87,8.59c-1.33,4.71-2.34,2.47-0.71,7.08
						c5.46,15.37-7.16,31.91-23.43,30.7L1714.68,797.34z"/>
					<path class="st8" d="M1795.25,959.78c-17.87,3.88-35.18-8.13-38.64-26.77l-1.07-5.8l-7.2-38.66l-0.56-3.03l64.81-14l8.83,47.45
						C1824.88,937.65,1813.17,955.91,1795.25,959.78z"/>
					<path class="st9" d="M1801.34,889.24c-9.2,17.98-24.02,31.02-45.81,37.97l-7.2-38.66L1801.34,889.24z"/>
					<path class="st8" d="M1787.29,899.84c-26.88,12.2-51.79,6.74-58.62-30.14c-1.29-6.91-1.93-14.94-1.85-24.18
						c0.04-2.58,0.13-5.28,0.26-8.07c1.33-25.16-5.8-36.26,0.94-44.77c11.94-15.12,30.57-8.74,46.51-8.74
						c25.46,0,42.47,12.84,44.1,46.59C1819.97,857.63,1815.29,887.17,1787.29,899.84z"/>
					<path class="st3" d="M1718.73,782.48c-19.52,4.86-11.66,35.02,6.08,36.5c7.85,0.66,22.9-7.58,23.07-17.36
						c-0.14,8.07,5.72,15.8,13.19,17.4c7.47,1.6,15.7-3.1,18.55-10.59c1.23,4.29,4.52,7.85,8.54,9.26
						c4.02,1.41,8.66,0.62,12.07-2.04c-2.43,7.9,1.77,16.74,8,21.79c6.23,5.05,14.09,7.16,21.72,9.09l-10.66-58.9
						c0,0-56.36-15.35-57.97-15.35C1759.71,772.28,1718.76,782.48,1718.73,782.48z"/>
					<ellipse class="st8" cx="1820.27" cy="848.55" rx="15.46" ry="16.19"/>
					<g>
						<path class="st3" d="M1766.43,838.94c0,3.08,1.79,5.58,3.99,5.58s3.99-2.5,3.99-5.58c0-3.08-1.79-5.58-3.99-5.58
							S1766.43,835.85,1766.43,838.94z"/>
						<path class="st3" d="M1742.5,837.88c0,3.08,1.79,5.58,3.99,5.58s3.99-2.5,3.99-5.58c0-3.08-1.79-5.58-3.99-5.58
							S1742.5,834.79,1742.5,837.88z"/>
						<path class="st9" d="M1755.39,865.95c-0.12,0-0.23-0.02-0.35-0.06l-0.24-0.08c-2.34-0.8-5.56-1.91-7-4.37
							c-1.78-3.04,1.03-6.28,2.08-7.5c2.44-2.82,5.27-6.65,5.43-11.27c0.02-0.59,0.55-1.05,1.11-1.04c0.59,0.02,1.06,0.52,1.04,1.11
							c-0.18,5.29-3.28,9.51-5.95,12.6c-1.95,2.25-2.54,3.84-1.85,5.01c1.04,1.78,3.71,2.69,5.84,3.43l0.25,0.08
							c0.56,0.19,0.86,0.8,0.67,1.36C1756.25,865.67,1755.83,865.95,1755.39,865.95z"/>
						<path class="st4" d="M1768.27,868.64l-21.64,5.58C1746.63,874.22,1758.99,891.45,1768.27,868.64z"/>
						<path class="st3" d="M1781.47,832.93c-1.09-1.58-2.27-2.85-3.67-3.77c-1.37-0.94-2.91-1.55-4.5-1.82
							c-1.59-0.27-3.2-0.21-4.72,0.23c-1.52,0.44-2.92,1.3-4.21,2.69l-1.47-0.71c0.42-2.21,2.07-4.26,4.21-5.36
							c2.13-1.13,4.63-1.4,6.93-0.96c2.31,0.43,4.48,1.56,6.1,3.21c1.62,1.65,2.68,3.8,2.88,5.98L1781.47,832.93z"/>
						<path class="st3" d="M1737.64,829.63c0.12-1.9,1.27-3.65,2.75-4.86c1.5-1.21,3.4-1.93,5.36-2.03
							c1.96-0.12,3.97,0.43,5.55,1.52c1.59,1.07,2.74,2.59,3.33,4.25l-1.31,0.98c-1.36-0.84-2.55-1.54-3.76-1.98
							c-1.21-0.44-2.4-0.64-3.62-0.6c-1.21,0.04-2.44,0.33-3.59,0.87c-1.16,0.52-2.22,1.28-3.17,2.38L1737.64,829.63z"/>
						
							<ellipse transform="matrix(0.9872 -0.1596 0.1596 0.9872 -113.8776 295.9611)" class="st10" cx="1785.83" cy="857.03" rx="12.16" ry="12.16"/>
						<path class="st10" d="M1740.79,857.24c0.17,6.05-4.21,11.42-10.35,12.32c-0.6,0.09-1.2,0.13-1.76,0.13
							c-1.29-6.91-1.93-14.94-1.85-24.18c6.57-0.99,12.67,3.48,13.78,9.96l0.04,0.26C1740.75,856.26,1740.75,856.73,1740.79,857.24z
							"/>
					</g>
					<path class="st9" d="M1815.53,856.02c-0.55,0-1.02-0.43-1.07-0.99c-0.63-7.92,2.19-13.42,8.39-16.35
						c0.54-0.25,1.18-0.02,1.43,0.51c0.25,0.54,0.02,1.18-0.51,1.43c-5.39,2.55-7.73,7.2-7.17,14.24c0.05,0.59-0.39,1.11-0.99,1.16
						C1815.59,856.02,1815.56,856.02,1815.53,856.02z"/>
				</g>
			</g>
			<g>
				<rect x="1769.32" y="1176.3" class="st3" width="103.74" height="24.24"/>
				<polygon class="st2" points="1803.01,1200.54 1631.54,1200.54 1570.53,1036.36 1742,1036.36 				"/>
			</g>
		</g>
		<g>
			<path class="st3" d="M1096.12,1594.75C1096.12,1594.75,1096.12,1594.75,1096.12,1594.75c-1.19,0-2.15-0.96-2.15-2.15l0.08-562.13
				c0-1.19,0.96-2.15,2.15-2.15c0,0,0,0,0,0c1.19,0,2.15,0.96,2.15,2.15l-0.08,562.13
				C1098.27,1593.79,1097.31,1594.75,1096.12,1594.75z"/>
			<path class="st3" d="M1253.86,1681.91c-0.35,0-0.71-0.09-1.04-0.27l-156.63-86.67l-156.63,86.67c-1.04,0.57-2.34,0.2-2.92-0.84
				c-0.57-1.04-0.2-2.34,0.84-2.92l158.71-87.82l158.71,87.82c1.04,0.57,1.41,1.88,0.84,2.92
				C1255.35,1681.51,1254.62,1681.91,1253.86,1681.91z"/>
			<g>
				<rect x="783.08" y="456.75" class="st4" width="626.23" height="628.11"/>
				<path class="st3" d="M1410.92,1086.47H781.47V455.14h629.45V1086.47z M784.69,1083.25h623.01V458.36H784.69V1083.25z"/>
			</g>
			<g>
				<rect x="856.3" y="921.57" class="st2" width="48" height="21.86"/>
				<rect x="919.86" y="930.88" class="st3" width="210.15" height="3.22"/>
				<rect x="856.3" y="964.13" class="st7" width="48" height="21.86"/>
				<rect x="919.86" y="973.45" class="st3" width="210.15" height="3.22"/>
			</g>
			<g>
				<g>
					<rect x="878.62" y="720.02" class="st2" width="21.63" height="72.27"/>
					<rect x="923.33" y="698.14" class="st2" width="21.63" height="94.15"/>
					<rect x="968.04" y="659.55" class="st2" width="21.63" height="132.74"/>
					<rect x="1012.75" y="624.35" class="st2" width="21.63" height="167.94"/>
					<rect x="1057.46" y="588.28" class="st2" width="21.63" height="204.01"/>
					<rect x="1102.16" y="572.46" class="st2" width="21.63" height="219.83"/>
					<rect x="1146.87" y="589.53" class="st2" width="21.63" height="202.76"/>
					<rect x="1191.58" y="609.3" class="st2" width="21.63" height="182.99"/>
					<rect x="1236.29" y="572.46" class="st2" width="21.63" height="219.83"/>
					<rect x="1281" y="551.7" class="st2" width="21.63" height="240.59"/>
					<rect x="1325.71" y="524.1" class="st2" width="21.63" height="268.19"/>
				</g>
				<polygon class="st3" points="1361.34,793.98 847.78,793.98 847.78,512.31 852.07,512.31 852.07,789.69 1361.34,789.69 				"/>
				<polygon class="st7" points="889.82,754.17 889.06,749.94 933.21,742 975.26,707.16 975.44,707.06 1021.29,681.79 
					1066.41,645.24 1113.94,634.76 1154.88,668.29 1199.11,694.29 1246.69,631.86 1292.07,617.32 1340.26,594.56 1342.09,598.44 
					1293.51,621.37 1249.29,635.54 1200.22,699.92 1152.29,671.71 1112.83,639.4 1068.32,649.21 1023.7,685.37 1023.53,685.46 
					977.69,710.73 935.08,746.03 				"/>
			</g>
			<rect x="940.17" y="821.49" class="st2" width="312.04" height="15.75"/>
			<g>
				<path class="st2" d="M1273.44,954.15l40.99-64.3c-11.85-7.57-25.89-12.01-40.99-12.01c-42.15,0-76.32,34.17-76.32,76.32
					c0,42.15,34.17,76.32,76.32,76.32c42.15,0,76.32-34.17,76.32-76.32c0-1.4-0.14-2.77-0.21-4.15L1273.44,954.15z"/>
				<path class="st7" d="M1349.55,950c-1.36-25.3-15-47.3-35.12-60.15l-40.99,64.3L1349.55,950z"/>
			</g>
		</g>
		<g>
			<g>
				<polygon class="st2" points="576.26,1594.19 567.91,1680.53 693.17,1680.53 637.29,1628.73 637.93,1594.88 				"/>
				<path class="st3" d="M624.69,1644.54c-0.83,0-1.62-0.49-1.97-1.3c-0.47-1.09,0.03-2.35,1.12-2.82l18-7.77
					c1.09-0.47,2.35,0.03,2.82,1.12c0.47,1.09-0.03,2.35-1.12,2.82l-18,7.77C625.26,1644.48,624.97,1644.54,624.69,1644.54z"/>
				<path class="st3" d="M635.42,1656.7c-0.83,0-1.62-0.49-1.97-1.3c-0.47-1.09,0.03-2.35,1.12-2.82l18-7.77
					c1.09-0.47,2.35,0.03,2.82,1.12c0.47,1.09-0.03,2.35-1.12,2.82l-18,7.77C636,1656.65,635.71,1656.7,635.42,1656.7z"/>
				<path class="st3" d="M571.15,1644.1c9.09,1.38,18.12,4.45,24.36,11.52c5.8,6.57,8.07,15.47,8.95,23.99
					c0.28,2.72,4.58,2.75,4.29,0c-0.99-9.57-3.49-19.16-9.86-26.62c-6.69-7.84-16.67-11.52-26.61-13.02
					C569.59,1639.55,568.43,1643.69,571.15,1644.1L571.15,1644.1z"/>
			</g>
			<g>
				<polygon class="st2" points="429.31,1595.05 419.64,1680.53 302.89,1680.53 349.14,1633.91 368.52,1594.88 				"/>
				<path class="st3" d="M367.14,1643.82c-0.28,0-0.57-0.06-0.85-0.18l-18-7.77c-1.09-0.47-1.59-1.73-1.12-2.82
					c0.47-1.09,1.73-1.59,2.82-1.12l18,7.77c1.09,0.47,1.59,1.73,1.12,2.82C368.76,1643.34,367.97,1643.82,367.14,1643.82z"/>
				<path class="st3" d="M356.4,1655.99c-0.28,0-0.57-0.06-0.85-0.18l-18-7.77c-1.09-0.47-1.59-1.73-1.12-2.82
					c0.47-1.09,1.73-1.59,2.82-1.12l18,7.77c1.09,0.47,1.59,1.73,1.12,2.82C358.03,1655.5,357.23,1655.99,356.4,1655.99z"/>
				<path class="st3" d="M422.04,1640.32c-9.94,1.51-19.92,5.19-26.61,13.02c-6.37,7.46-8.87,17.05-9.86,26.62
					c-0.29,2.75,4.01,2.73,4.29,0c0.88-8.52,3.15-17.42,8.95-23.99c6.24-7.07,15.28-10.14,24.36-11.52
					C425.9,1644.05,424.74,1639.91,422.04,1640.32L422.04,1640.32z"/>
			</g>
			<polygon class="st7" points="454.34,1013.26 335.5,1614.91 447.27,1614.91 586.02,968.36 			"/>
			<polygon class="st7" points="542.51,1004.97 561.78,1611.46 660.06,1611.46 656.2,973.88 			"/>
			<polygon class="st4" points="640.68,997.37 470.75,1019.47 474.9,725.21 613.05,721.06 			"/>
			<g>
				<path class="st9" d="M561.44,638.15v75.83c0,21.04-2.31,36.82-23.78,37.9c-13.81,0.69-32.94-7.71-38.61-19.39
					c-2.71-5.5-4.21-11.81-4.21-18.51v-75.83H561.44z"/>
				<path class="st11" d="M561.42,668.93v35.64c-18.73-4.68-41.62-19.31-52.92-35.64H561.42z"/>
				<path class="st9" d="M561.44,685.22c-1.33,0.43-2.79,0.73-4.34,0.94c-11.25,1.67-26.54-0.13-40.54-7.69
					c-7.77-4.17-15.2-10.13-21.26-18.25c-0.17-0.17-0.3-0.39-0.47-0.6c-1.59-2.15-3.09-4.47-4.47-6.96l-2.75-9.75l-4.12-14.47
					l-11.34-40.02l55.65-27.44c0,0,42.34,8.8,46.55,11.55c-0.73,7.64-0.82,15.29-0.52,22.8c0.39,10.74,1.59,21.13,2.66,30.88
					c0.99,8.5,1.89,16.49,2.19,23.66C579.47,667.91,576.55,681.05,561.44,685.22z"/>
				<path class="st3" d="M481.76,645.17c0,0,15.56-5.17,13.51-8.38c-3.09-4.84-12.29-19.34-2.6-35.92
					c1.93-3.31,12.26-5.98,15.74-7.25c4.36-1.6,8.85-2.88,13.42-3.59c6.65-1.04,13.35-0.78,19.87,0.95c9.02,2.4,17.8,8.6,27.37,6.17
					c6.9-1.75,14.75-7.27,16.62-14.94c1.06-4.35,0.1-9.03-1.8-13.05c-11.73-24.86-40.18-26.45-63.06-24.27
					c-18.67,1.78-33.54,9.31-43.59,26.83c-0.38,0.67-2.28,5.26-2.79,5.32C450.02,580.15,463.45,635.07,481.76,645.17z"/>
				<ellipse class="st9" cx="487.81" cy="644.98" rx="16.18" ry="17.17"/>
				<path class="st3" d="M493.13,595.52c0.58,14.4,1.54,29.61,0.79,44.02c-0.23,4.4-1.6,3.93-3.27,2.06
					c-2.03-2.28-3.47-6.21-3.9-10.71l-2.22-22.98L493.13,595.52z"/>
				<g>
					<path class="st3" d="M535.56,624.09c0,3.16-1.83,5.73-4.1,5.73c-2.26,0-4.1-2.56-4.1-5.73c0-3.16,1.83-5.73,4.1-5.73
						C533.73,618.36,535.56,620.92,535.56,624.09z"/>
					<path class="st3" d="M560.11,623c0,3.16-1.83,5.73-4.1,5.73c-2.26,0-4.1-2.56-4.1-5.73c0-3.16,1.83-5.73,4.1-5.73
						C558.27,617.27,560.11,619.84,560.11,623z"/>
					<path class="st11" d="M546.88,651.76c-0.45,0-0.86-0.28-1.02-0.72c-0.19-0.56,0.1-1.17,0.67-1.36l0.25-0.09
						c2.2-0.75,4.93-1.69,6.01-3.53c0.71-1.21,0.1-2.85-1.9-5.17c-2.74-3.16-5.91-7.48-6.1-12.9c-0.02-0.59,0.44-1.09,1.04-1.11
						c0.58-0.02,1.09,0.44,1.11,1.04c0.16,4.75,3.06,8.68,5.57,11.57c1.08,1.25,3.95,4.55,2.13,7.66c-1.48,2.52-4.76,3.65-7.16,4.47
						l-0.25,0.09C547.12,651.74,547,651.76,546.88,651.76z"/>
					<path class="st4" d="M533.67,654.55l22.19,5.72C555.86,660.28,537.06,675.24,533.67,654.55z"/>
					<path class="st3" d="M518.15,616.38c0.94-1.47,2.28-2.65,3.8-3.59c1.53-0.92,3.27-1.53,5.08-1.78
						c3.61-0.51,7.46,0.57,9.94,3.07l-0.76,1.49c-1.61-0.18-3.06-0.38-4.48-0.44c-1.41-0.07-2.78-0.04-4.14,0.12
						c-1.36,0.16-2.72,0.46-4.09,0.88c-1.38,0.4-2.75,0.96-4.26,1.53L518.15,616.38z"/>
					<path class="st3" d="M562.67,614.52c-1.45-0.28-2.75-0.7-4-0.98c-1.24-0.31-2.4-0.53-3.51-0.59c-1.11-0.06-2.18,0.02-3.33,0.24
						c-1.15,0.22-2.35,0.61-3.75,1l-1.06-1.3c0.8-1.36,2.01-2.48,3.5-3.25c1.48-0.77,3.26-1.11,4.95-0.96
						c1.7,0.13,3.28,0.69,4.63,1.46c1.35,0.8,2.52,1.76,3.46,2.95L562.67,614.52z"/>
					
						<ellipse transform="matrix(0.7364 -0.6765 0.6765 0.7364 -299.9181 519.5027)" class="st12" cx="516.76" cy="644.66" rx="12.48" ry="12.48"/>
					<path class="st12" d="M578.7,649.88c-1.5,0.64-3.13,0.99-4.85,0.99c-6.4,0-11.64-4.77-12.41-10.91
						c-0.04-0.52-0.09-1.03-0.09-1.55v-0.26c0.13-6.78,5.67-12.24,12.5-12.24c0.9,0,1.8,0.09,2.66,0.3
						C577.5,634.72,578.4,642.71,578.7,649.88z"/>
				</g>
			</g>
			<path class="st13" d="M494.85,713.98c71.57,96.19,33.24,336.58,16.66,381.13l-106.72-8.29l33.16-176.14l-53.88-60.1
				L494.85,713.98z"/>
			<path class="st3" d="M518.15,908.09c5.85-18.01-7.14-38.66-29.44-60.61l-13.86,29.84L518.15,908.09z"/>
			<path class="st3" d="M488.81,1067.37c-0.1,0-0.21-0.01-0.31-0.05c-0.57-0.17-0.89-0.77-0.72-1.34
				c20.08-67.06,23.58-160.23,24.47-224.48c0.01-0.59,0.49-1.06,1.07-1.06c0.01,0,0.01,0,0.02,0c0.59,0.01,1.07,0.5,1.06,1.09
				c-1.85,134.42-14.9,192.82-24.56,225.06C489.7,1067.07,489.27,1067.37,488.81,1067.37z"/>
			<g>
				<path class="st9" d="M552.87,846.82c0.06-7.94-0.91-16.13-5.97-22.02c-2.84-3.3-13.09,0.02-18.71,2.68
					c-0.27,0.13,6.8-32.23,3.84-34.59c-3.65-2.92-7.41-0.97-9.09,2.38c-2.83,5.65-4.73,12.25-6.93,18.18
					c-3.29,8.89-7.33,16.55-14.61,22.83c-5.77,4.98-12.38,8.01-15.23,15.63c-2.12,5.67-1.42,11.53-0.76,17.42
					c0.72,6.49,2.03,12.96,4.6,18.99c1.21,2.83,2.94,5.89,5.91,7.14c3.55,1.49,7.86-0.54,11.25-1.85
					c7.63-2.96,15.36-5.67,23.17-8.13c6.41-2.02,12.9-5.26,17.32-10.48c4.57-5.4,4.41-11.43,4.77-18.11
					C552.62,853.72,552.84,850.3,552.87,846.82z M494.41,876.31c0.03,0.01,0.06,0.01,0.09,0.02
					C494.07,876.84,494.02,876.85,494.41,876.31z"/>
				<g>
					<path class="st11" d="M534.25,841.71c-0.72,0-1.38-0.49-1.56-1.23c-0.21-0.86,0.32-1.74,1.18-1.95l16.1-3.94
						c0.86-0.21,1.73,0.32,1.95,1.18c0.21,0.86-0.32,1.74-1.18,1.95l-16.1,3.94C534.51,841.69,534.38,841.71,534.25,841.71z"/>
					<path class="st11" d="M535.33,854.59c-0.72,0-1.38-0.49-1.56-1.23c-0.21-0.86,0.32-1.74,1.18-1.95l16.1-3.94
						c0.86-0.21,1.73,0.32,1.95,1.18c0.21,0.86-0.32,1.74-1.18,1.95l-16.1,3.94C535.58,854.57,535.45,854.59,535.33,854.59z"/>
					<path class="st11" d="M534.97,868.19c-0.72,0-1.38-0.49-1.56-1.23c-0.21-0.86,0.32-1.74,1.18-1.95l16.1-3.94
						c0.86-0.21,1.73,0.32,1.95,1.18c0.21,0.86-0.32,1.74-1.18,1.95l-16.1,3.94C535.22,868.17,535.1,868.19,534.97,868.19z"/>
				</g>
			</g>
			<path class="st13" d="M517.81,907.57c-18.25,17.82-38.69,33.88-60.25,47.49c-20.7,13.1-44.62,26.54-69.69,27.78
				c-38.73,1.93-55.35-39.16-53.81-72.06c1.72-37.4,21.47-71.67,39.33-103.58c17.86-31.95,43.29-60.59,77.34-75.53
				c0.26-0.09,0.52-0.21,0.77-0.3l43.33-18.77v1.37c0,6.7,1.5,13.01,4.21,18.51l-68.36,144.67l58.01-29.67
				C493.93,868.36,504.15,888.29,517.81,907.57z"/>
			<path class="st3" d="M392.01,895.74c-0.39,0-0.77-0.21-0.96-0.58c-0.27-0.53-0.06-1.17,0.46-1.45l95.81-49.16
				c0.53-0.27,1.17-0.06,1.45,0.46c0.27,0.53,0.06,1.17-0.46,1.45l-95.81,49.16C392.34,895.7,392.18,895.74,392.01,895.74z"/>
			<path class="st3" d="M425.83,973.57c-0.34,0-0.67-0.16-0.88-0.45c-0.34-0.48-0.23-1.15,0.26-1.5l91.98-64.93
				c0.48-0.34,1.15-0.23,1.5,0.26c0.34,0.48,0.23,1.15-0.26,1.5l-91.98,64.93C426.26,973.51,426.04,973.57,425.83,973.57z"/>
			<path class="st3" d="M418.31,881.25c-0.14,0-0.28-0.03-0.42-0.08c-0.55-0.23-0.8-0.86-0.57-1.41l27.38-64.95
				c0.23-0.55,0.86-0.8,1.41-0.57c0.55,0.23,0.8,0.86,0.57,1.41l-27.38,64.95C419.13,881,418.73,881.25,418.31,881.25z"/>
			<path class="st3" d="M503.84,834.01c-0.34,0-0.68-0.17-0.89-0.47l-36.08-53.39l16.62-52.03c0.18-0.56,0.79-0.87,1.35-0.7
				c0.57,0.18,0.88,0.78,0.7,1.35l-16.3,51.03l35.49,52.53c0.33,0.49,0.2,1.16-0.29,1.49C504.25,833.95,504.05,834.01,503.84,834.01
				z"/>
			<g>
				<g>
					<path class="st9" d="M954.13,731.05c-1.16,11.48-11.75,9.38-16.78,18.71c-6.09,11.29-22.67,23.23-35.8,15.12
						c-6.99-4.32-12.14-11.35-14.79-19.13c-3.82-11.22,7.1-27,12.96-35.47c5.68-8.21,19.59-10.74,29.03-10.84
						c6.21-0.06,13.38,5.01,17.06,10.97C949.62,716.6,954.85,723.89,954.13,731.05z"/>
					<path class="st9" d="M958.63,729.79c1.88,4.44-3.18,8.2-10.14,11.13c-6.96,2.94-13.18,3.95-15.05-0.49
						c-2.02-4.79,3.18-8.2,10.14-11.13C950.53,726.36,956.17,723.97,958.63,729.79z"/>
					
						<ellipse transform="matrix(0.9212 -0.3892 0.3892 0.9212 -208.1438 424.1498)" class="st9" cx="942.85" cy="725.83" rx="16.8" ry="6.18"/>
					
						<rect x="961.89" y="576.31" transform="matrix(0.852 0.5235 -0.5235 0.852 484.6606 -409.2)" class="st3" width="8.59" height="152.85"/>
					<path class="st9" d="M900.04,712.84c5.33,0.98,10.49-5.13,15.79-4.02c7.77,1.62,13.1,0.94,21.54-2.29
						c4.56-1.74,11.01-6.56,11.16-12.03c0.04-1.61-0.39-3.45-1.81-4.22c-1.97-1.08-4.26,0.51-6.12,1.77
						c-12.02,8.13-28.41,0.54-41.21,20.54L900.04,712.84z"/>
					<path class="st9" d="M950.96,709.27c2.72,3.86-1.1,8.41-9.28,14.24c-8.18,5.83-12.83,7.37-14.21,2.85
						c-0.88-2.87-1.09-7.11,7.09-12.94C942.74,707.59,947.39,704.22,950.96,709.27z"/>
					<g>
						<path class="st11" d="M912.01,736.59c-0.32,0-0.63-0.14-0.84-0.41c-0.37-0.46-0.29-1.14,0.17-1.51
							c6.35-5.04,8.59-11.23,6.87-18.92c-0.13-0.58,0.23-1.15,0.81-1.28c0.58-0.13,1.15,0.23,1.28,0.81
							c1.92,8.57-0.57,15.46-7.63,21.07C912.48,736.51,912.24,736.59,912.01,736.59z"/>
						<path class="st11" d="M931.41,725.81c-1.65,0-3.15-0.69-4.03-1.89c-0.6-0.82-0.86-1.93-0.68-2.98
							c0.16-0.95,0.65-1.74,1.39-2.25c0.49-0.33,1.16-0.21,1.49,0.28c0.34,0.49,0.21,1.16-0.28,1.49c-0.34,0.23-0.45,0.62-0.48,0.84
							c-0.08,0.47,0.03,0.99,0.3,1.34c0.53,0.73,1.6,1.12,2.72,0.99c1.41-0.16,6.54-1.72,7.42-2.33c0.49-0.34,1.16-0.22,1.49,0.27
							c0.34,0.49,0.22,1.16-0.27,1.49c-1.33,0.93-6.92,2.54-8.41,2.71C931.86,725.8,931.63,725.81,931.41,725.81z"/>
						<path class="st11" d="M936.47,733.41c-0.97,0-2.27-0.21-3.15-1.21c-0.74-0.84-0.99-2.09-0.66-3.26
							c0.22-0.79,2.78-5.78,3.66-6.51c0.46-0.38,1.13-0.32,1.51,0.14c0.37,0.45,0.32,1.11-0.12,1.49c-0.52,0.55-2.77,4.75-2.99,5.46
							c-0.13,0.46-0.05,0.97,0.21,1.26c0.37,0.42,1.17,0.57,2.38,0.42c3.01-0.36,5.96-1.44,8.81-2.47c0.56-0.2,1.17,0.08,1.38,0.64
							c0.2,0.56-0.08,1.17-0.64,1.38c-2.97,1.08-6.03,2.19-9.29,2.59C937.34,733.36,936.94,733.41,936.47,733.41z"/>
						<path class="st11" d="M941.63,742.63c-0.94,0-1.9-0.09-2.86-0.28c-1.24-0.24-2.17-0.92-2.53-1.88
							c-1.24-3.22,3.26-8.17,5.18-9.51c0.49-0.34,1.16-0.22,1.49,0.27c0.34,0.49,0.22,1.16-0.27,1.49c-1.79,1.25-5.03,5.35-4.4,6.97
							c0.09,0.23,0.47,0.45,0.94,0.54c2.17,0.42,4.31,0.29,6.2-0.39c0.56-0.2,1.17,0.09,1.37,0.65c0.2,0.56-0.09,1.17-0.65,1.37
							C944.69,742.38,943.18,742.63,941.63,742.63z"/>
					</g>
				</g>
				<path class="st13" d="M653.46,826.75l51.46,30.39c50.04,29.26,99.47,25.56,145.06-17.27l70.8-67l-43.52-46.63
					c-30.76,29.3-90.14,87.38-139.83,53.52c0,0-54.58-39.97-54.58-39.97c-21.45-14.41-45.61-24.29-71-29.03l-50.46-8.37
					c-6.03,79.01,21.21,263.52,53.73,369.92l92.22-35.23C692.83,989.43,667.62,884.43,653.46,826.75z"/>
				<path class="st3" d="M666.3,884.47c-0.5,0-0.94-0.34-1.05-0.85l-21.47-99.84c-0.12-0.58,0.24-1.15,0.82-1.27
					c0.58-0.13,1.15,0.24,1.27,0.82l21.47,99.84c0.12,0.58-0.24,1.15-0.82,1.27C666.45,884.46,666.37,884.47,666.3,884.47z"/>
				<path class="st3" d="M630.26,1043.22c-0.51,0-0.96-0.36-1.05-0.88l-41.31-223.8l15.68-43.48l-34.12-62.56
					c-0.28-0.52-0.09-1.17,0.43-1.46c0.52-0.28,1.17-0.09,1.46,0.43l34.59,63.4l-15.81,43.84l41.2,223.23
					c0.11,0.58-0.28,1.14-0.86,1.25C630.39,1043.21,630.33,1043.22,630.26,1043.22z"/>
				<path class="st3" d="M900.33,776.76c-0.28,0-0.57-0.11-0.78-0.33l-30.77-32.21c-0.41-0.43-0.39-1.11,0.03-1.52
					c0.43-0.41,1.11-0.39,1.52,0.03l30.77,32.21c0.41,0.43,0.39,1.11-0.03,1.52C900.87,776.66,900.6,776.76,900.33,776.76z"/>
			</g>
			<path class="st3" d="M496.68,904.87c-0.23,0-0.47-0.08-0.66-0.23c-10.9-8.57-18.05-22.12-21.86-41.43
				c-0.11-0.58,0.26-1.15,0.85-1.26c0.58-0.11,1.15,0.26,1.26,0.85c3.7,18.78,10.6,31.92,21.08,40.16c0.47,0.37,0.55,1.04,0.18,1.51
				C497.31,904.72,497,904.87,496.68,904.87z"/>
			<path class="st3" d="M544.99,1159.3c-0.07,0-0.13-0.01-0.2-0.02c-0.58-0.11-0.96-0.67-0.85-1.25l11.81-62.27
				c0.11-0.58,0.66-0.96,1.25-0.85c0.58,0.11,0.96,0.67,0.85,1.25l-11.81,62.27C545.95,1158.94,545.5,1159.3,544.99,1159.3z"/>
		</g>
		<g>
			<rect x="1706.21" y="1199.18" class="st3" width="14.6" height="480.95"/>
			<rect x="2290.21" y="1199.18" class="st3" width="14.6" height="480.95"/>
			<g>
				<rect x="1499.21" y="1197.57" class="st4" width="1057.08" height="26.87"/>
				<path class="st3" d="M2557.9,1226.04H1497.6v-30.09h1060.3V1226.04z M1500.82,1222.82h1053.86v-23.65H1500.82V1222.82z"/>
			</g>
		</g>
		<path class="st14" d="M2571.85,1588.88"/>
		<path class="st14" d="M2517.09,1593.01"/>
		<g>
			<g>
				<g>
					<polygon class="st2" points="2652.26,1537.84 2721.55,1613.53 2650.98,1682.22 2653.64,1612.56 2612.47,1577.76 					"/>
					<g>
						<path class="st3" d="M2652.43,1615.18c-0.92,0-1.77-0.59-2.05-1.51c-0.35-1.13,0.29-2.33,1.42-2.68l19.98-6.16
							c1.13-0.35,2.34,0.29,2.68,1.42c0.35,1.13-0.29,2.33-1.42,2.68l-19.98,6.16C2652.85,1615.15,2652.64,1615.18,2652.43,1615.18z
							"/>
						<path class="st3" d="M2652.78,1632.26c-0.92,0-1.77-0.59-2.05-1.51c-0.35-1.13,0.29-2.33,1.42-2.68l19.98-6.16
							c1.13-0.35,2.33,0.29,2.68,1.42c0.35,1.13-0.29,2.33-1.42,2.68l-19.98,6.16C2653.21,1632.23,2652.99,1632.26,2652.78,1632.26z
							"/>
						<path class="st3" d="M2701.77,1629.92c-0.21,0-0.42-0.03-0.63-0.1c-7.67-2.36-13.29-10.16-13.66-18.96
							c-0.35-8.35,4.01-15.17,11.67-18.26c1.1-0.44,2.35,0.09,2.79,1.19c0.44,1.1-0.09,2.35-1.19,2.79
							c-8.5,3.42-9.11,10.99-8.98,14.09c0.3,7.02,4.67,13.2,10.63,15.04c1.13,0.35,1.77,1.55,1.42,2.68
							C2703.54,1629.33,2702.69,1629.92,2701.77,1629.92z"/>
					</g>
				</g>
				<g>
					<path class="st13" d="M2444.09,1024.03l-51.57,204.76c-12.99,51.56-0.07,106.2,34.61,146.5l187.59,217.92l64.27-55.8
						l-164.18-219.4l25.71-328.89L2444.09,1024.03z"/>
					<path class="st3" d="M2441.94,1085.22c-0.43,0-0.83-0.26-1-0.68c-0.22-0.55,0.05-1.17,0.6-1.4c18.8-7.52,27-26.66,24.38-56.88
						c-0.05-0.59,0.39-1.11,0.98-1.16c0.58-0.05,1.11,0.39,1.16,0.98c2.71,31.28-5.94,51.15-25.72,59.06
						C2442.21,1085.2,2442.07,1085.22,2441.94,1085.22z"/>
					<path class="st3" d="M2612.28,1569.03c-0.33,0-0.65-0.15-0.86-0.43c-0.36-0.47-0.26-1.15,0.21-1.5l39.98-30.11
						c0.47-0.36,1.15-0.26,1.5,0.21c0.36,0.47,0.26,1.15-0.21,1.5l-39.98,30.11C2612.73,1568.96,2612.5,1569.03,2612.28,1569.03z"/>
				</g>
			</g>
			<g>
				<g>
					<polygon class="st2" points="2575.07,1589.95 2579.44,1682.47 2464.48,1682.47 2515.77,1634.8 2518.48,1590.59 					"/>
					<g>
						<path class="st3" d="M2534.26,1646.68c-0.34,0-0.68-0.08-1-0.25l-18.5-9.74c-1.05-0.55-1.45-1.85-0.9-2.9
							c0.55-1.05,1.85-1.45,2.9-0.9l18.5,9.74c1.05,0.55,1.45,1.85,0.9,2.9C2535.78,1646.27,2535.04,1646.68,2534.26,1646.68z"/>
						<path class="st3" d="M2522.46,1659.03c-0.34,0-0.68-0.08-1-0.25l-18.5-9.74c-1.05-0.55-1.45-1.85-0.9-2.9
							c0.55-1.05,1.85-1.45,2.9-0.9l18.5,9.74c1.05,0.55,1.45,1.85,0.9,2.9C2523.97,1658.61,2523.23,1659.03,2522.46,1659.03z"/>
						<path class="st3" d="M2551.18,1681.84c-0.77,0-1.51-0.41-1.9-1.14c-4.16-7.81-2.47-18.28,4.1-25.45
							c6.23-6.79,14.94-8.73,23.32-5.17c1.09,0.46,1.6,1.72,1.14,2.82c-0.46,1.09-1.72,1.6-2.82,1.14
							c-6.63-2.81-13.54-1.27-18.48,4.12c-5.36,5.85-6.79,14.3-3.48,20.54c0.56,1.05,0.16,2.35-0.89,2.9
							C2551.86,1681.76,2551.52,1681.84,2551.18,1681.84z"/>
					</g>
				</g>
				<g>
					<path class="st13" d="M2518.58,1006.14l-29.09,312.05l13.78,292.05l84.43-4.58l35.68-482.86
						c12.88-41.87,16.1-74.07,10.82-112.1L2518.58,1006.14z"/>
					<path class="st3" d="M2609.42,1083.61c-0.07,0-0.14-0.01-0.21-0.02c-26.68-5.15-42.48-30.25-40.23-63.93
						c0.04-0.59,0.53-1.05,1.14-1c0.59,0.04,1.04,0.55,1,1.14c-1,14.96,1.81,29.08,7.92,39.77c6.72,11.77,17.29,19.34,30.58,21.91
						c0.58,0.11,0.96,0.67,0.85,1.26C2610.37,1083.25,2609.92,1083.61,2609.42,1083.61z"/>
					<path class="st3" d="M2502.06,1610.54c-0.57,0-1.04-0.45-1.07-1.02l-13.96-300.95c0-0.05,0-0.11,0-0.16l24.69-242.62
						c0.06-0.59,0.58-1.03,1.18-0.96c0.59,0.06,1.02,0.59,0.96,1.18l-24.68,242.54l13.9,299.8l83.61-3.72l20.22-280.08
						c0.04-0.59,0.54-1.04,1.15-0.99c0.59,0.04,1.04,0.56,0.99,1.15l-20.29,281.03c-0.04,0.54-0.48,0.97-1.02,1l-85.63,3.81
						C2502.09,1610.54,2502.08,1610.54,2502.06,1610.54z"/>
					<path class="st3" d="M2517.09,1594.08c-0.57,0-1.04-0.44-1.07-1.02c-0.03-0.59,0.42-1.1,1.02-1.13l57.98-3.06
						c0.6-0.03,1.1,0.42,1.13,1.02s-0.42,1.1-1.02,1.13l-57.98,3.06C2517.13,1594.08,2517.11,1594.08,2517.09,1594.08z"/>
				</g>
			</g>
			<path class="st3" d="M2632.76,793.75c62.86-67.03-58.78-69.24-53.95-132.05c5.1-66.3-42.41-62.8-42.41-62.8
				s-42.37-37.54-77.3-2.15c-42.77,43.34-9.34,67.67-42.41,104.13c-49.26,54.33,8.56,114.87,8.56,114.87L2632.76,793.75z"/>
			<g>
				<g>
					<path class="st8" d="M2774.82,752.74c1.5-1.17,32.42-34.1,32.42-34.1s12.31-48.77,16.91-43.17c4.6,5.6-2.34,36.12-2.34,36.12
						s21.66-0.42,23.58,4.85c1.92,5.27,1.01,35.45-40.38,67.65L2774.82,752.74z"/>
					<path class="st8" d="M2809.1,721.25c-1.22-8.92-5.91-24.96-8.86-25.24s-3.74,12.06-3.97,21.45
						c-0.37,15.24-7.22,27.48-4.42,28.44C2798.16,748.06,2810.04,728.11,2809.1,721.25z"/>
					<g>
						<path class="st9" d="M2822.97,732.16c-0.47,0-0.92-0.1-1.33-0.29c-1.28-0.63-1.95-2.02-1.98-4.15
							c-0.05-3.53,0.64-7.12,1.99-10.38c0.24-0.58,0.92-0.86,1.49-0.62c0.58,0.24,0.86,0.91,0.62,1.49
							c-1.23,2.97-1.86,6.25-1.81,9.47c0.02,1.16,0.26,1.92,0.69,2.13c0.27,0.13,0.7,0.07,1.08-0.16c1.95-1.19,3.8-4.66,4.94-9.27
							c0.15-0.61,0.77-0.98,1.38-0.83c0.61,0.15,0.99,0.77,0.83,1.38c-0.77,3.09-2.56,8.59-5.97,10.67
							C2824.31,731.97,2823.63,732.16,2822.97,732.16z"/>
						<path class="st9" d="M2828.79,735.13c-0.69,0-1.35-0.22-1.85-0.65c-1.03-0.88-1.1-2.26-1.06-3.21c0.1-2.6,0.67-5.12,1.68-7.52
							c0.25-0.58,0.92-0.85,1.5-0.61c0.58,0.25,0.85,0.92,0.61,1.5c-0.9,2.14-1.41,4.4-1.5,6.72c-0.03,0.75,0.06,1.21,0.26,1.39
							c0.17,0.14,0.54,0.14,0.85-0.01c0.47-0.22,0.9-0.7,1.26-1.12c2.73-3.24,4.56-7.16,5.31-11.33c0.11-0.62,0.7-1.03,1.33-0.92
							c0.62,0.11,1.03,0.7,0.92,1.33c-0.82,4.56-2.83,8.85-5.81,12.4c-0.56,0.66-1.19,1.33-2.05,1.73
							C2829.77,735.03,2829.28,735.13,2828.79,735.13z"/>
						<path class="st9" d="M2836.98,735.13c-0.69,0-1.35-0.22-1.85-0.65c-1.03-0.88-1.1-2.26-1.06-3.22c0.06-1.5,0.3-2.79,0.59-4.29
							c0.2-1.07,0.41-2.18,0.59-3.53c0.08-0.63,0.66-1.07,1.28-0.99c0.63,0.08,1.07,0.65,0.99,1.28c-0.18,1.42-0.41,2.61-0.61,3.66
							c-0.27,1.41-0.5,2.62-0.55,3.95c-0.03,0.75,0.06,1.21,0.26,1.39c0.17,0.14,0.54,0.14,0.85-0.01c0.47-0.22,0.9-0.69,1.26-1.12
							c2.72-3.24,4.56-7.16,5.31-11.33c0.11-0.62,0.71-1.03,1.33-0.92c0.62,0.11,1.04,0.71,0.92,1.33
							c-0.82,4.56-2.83,8.85-5.81,12.4c-0.56,0.66-1.19,1.33-2.05,1.73C2837.96,735.03,2837.46,735.13,2836.98,735.13z"/>
						<path class="st9" d="M2812.44,741.59c-0.11,0-0.21-0.01-0.32-0.04c-0.61-0.17-0.96-0.81-0.78-1.41
							c2.14-7.42,1.15-13.19-3.11-18.14c-0.41-0.48-0.36-1.2,0.12-1.61c0.48-0.41,1.2-0.36,1.61,0.12
							c4.75,5.51,5.92,12.14,3.57,20.26C2813.39,741.26,2812.93,741.59,2812.44,741.59z"/>
					</g>
				</g>
				<path class="st2" d="M2576.77,820.89l85.79,56.43c21.27,15.81,50.18,15.05,68.78-3.22c5.11-5.02,87.05-91.26,87.05-91.26
					l-30.28-44.05l-85.14,81.05l-79.19-62.16c-6.34-4.69-13.62-7.74-21.23-8.87l-97.75-14.58
					C2504.81,734.23,2574.3,819.05,2576.77,820.89z"/>
			</g>
			<g>
				<path class="st8" d="M2270.89,1046.22l-18.97,25.77c-26.84,2.51-45.09,12.17-60.66,28.45l100.02-0.18l21.11-56.18
					L2270.89,1046.22z"/>
				<path class="st2" d="M2502.29,735.31c-26.55,13.78-51.11,23.13-76.45,38.26c-8.14,4.86-16.46,12.2-24.65,21.82
					c-9.55,11.21-17.15,23.86-23.22,37.16l-37.65,83.4l-84.45,151.01l59.4,1.43l78.01-128.11L2502.29,735.31z"/>
			</g>
			<path class="st2" d="M2449.52,794.94c-58.09,38.16-8.23,121.33-19.1,229.3c-1.32,13.13,10.46,23.88,23.32,20.93
				c50.41-11.56,114.29-15.95,165.38-12.13c11.9,0.89,21.69-9.22,20.54-21.1c-16.53-62.19-23.99-131.53-20.32-209.66l-85.01-68.22
				l-60.47,17.27L2449.52,794.94z"/>
			<path class="st8" d="M2487.03,664.37v83.72c0,19.08,17.66,24.26,30.52,23.6c10.94-0.56,27.64-6.78,27.45-23.6v-83.72H2487.03z"/>
			<path class="st9" d="M2487.03,703.49v39.27c15.7-3.57,36.23-17.46,43.21-36.71L2487.03,703.49z"/>
			<path class="st8" d="M2562.22,623.91l-15.61,50.68c-2.95,14.27-4.55,24.22-16.08,33.14c-17.33,13.41-38.03,16.8-45.31,11.95
				c-11.64-7.78-16.06-13.8-17.56-23.83c-0.99-6.38-0.82-14.43-0.6-25.58c0.26-13.44,0.6-31.47-1.03-56.65
				c-0.21-3.46,44.62-20.95,44.62-20.95L2562.22,623.91z"/>
			<path class="st3" d="M2549.03,665.47c-3.49-12.88-12.7-13.78-18.79-37.04c-31.67,17.71-49.38-15.03-76.62,33.28l1.21-39.72
				l17.18-23.62l34.08-7.78l56.09,22.28l9.12,26.3L2549.03,665.47z"/>
			
				<ellipse transform="matrix(0.3027 -0.9531 0.9531 0.3027 1137.481 2891.7261)" class="st8" cx="2544.95" cy="668.51" rx="16.35" ry="16.15"/>
			<g>
				<path class="st3" d="M2426.37,919.36c-0.53,0-0.99-0.39-1.06-0.92l-10.74-75.15c-0.08-0.59,0.32-1.13,0.91-1.21
					c0.59-0.08,1.13,0.33,1.21,0.91l10.74,75.15c0.08,0.59-0.32,1.13-0.91,1.21C2426.48,919.35,2426.42,919.36,2426.37,919.36z"/>
				<path class="st3" d="M2642.69,865.68c-0.22,0-0.44-0.07-0.63-0.2l-48.31-34.89c-0.48-0.35-0.59-1.02-0.24-1.5
					c0.35-0.48,1.02-0.59,1.5-0.24l48.31,34.89c0.48,0.35,0.59,1.02,0.24,1.5C2643.35,865.53,2643.03,865.68,2642.69,865.68z"/>
				<path class="st3" d="M2512.71,783.73c-11.14,0-21.5-4.33-29.55-10.41c-0.47-0.36-0.57-1.03-0.21-1.5
					c0.36-0.47,1.03-0.57,1.5-0.21c15.11,11.41,38.75,16.38,59.8-3.85c0.43-0.41,1.11-0.4,1.52,0.03c0.41,0.43,0.4,1.11-0.03,1.52
					C2534.93,779.69,2523.46,783.73,2512.71,783.73z"/>
				<path class="st3" d="M2547.15,1003.09c-0.45,0-0.86-0.28-1.02-0.73c-0.19-0.56,0.11-1.17,0.67-1.36
					c23.18-7.94,39.1-30.34,48.69-68.49c0.14-0.58,0.73-0.92,1.3-0.78c0.58,0.14,0.92,0.73,0.78,1.3c-9.78,38.9-26.16,61.8-50.08,70
					C2547.38,1003.08,2547.26,1003.09,2547.15,1003.09z"/>
				<path class="st3" d="M2360.35,928.48c-0.13,0-0.26-0.02-0.39-0.07l-18.61-7.16c-0.55-0.21-0.83-0.83-0.62-1.39
					c0.21-0.55,0.83-0.83,1.39-0.62l18.61,7.16c0.55,0.21,0.83,0.83,0.62,1.39C2361.19,928.22,2360.78,928.48,2360.35,928.48z"/>
				<path class="st3" d="M2689.57,833.3c-0.29,0-0.58-0.12-0.79-0.35c-0.4-0.44-0.38-1.11,0.06-1.52l13.4-12.38
					c0.44-0.4,1.12-0.38,1.52,0.06c0.4,0.44,0.38,1.11-0.06,1.52l-13.4,12.38C2690.09,833.2,2689.83,833.3,2689.57,833.3z"/>
			</g>
			<g>
				<path class="st3" d="M2476,661.65c0.19,2.48,1.87,4.36,3.75,4.22c1.88-0.15,3.25-2.27,3.06-4.75c-0.19-2.48-1.87-4.36-3.75-4.22
					C2477.18,657.04,2475.81,659.17,2476,661.65z"/>
				<path class="st9" d="M2491.27,684.24c-0.09,0-0.18-0.01-0.27-0.03l-0.21-0.06c-2.08-0.54-4.92-1.27-6.35-3.33
					c-1.78-2.57,0.44-5.58,1.28-6.71c1.88-2.54,4.02-5.97,3.85-9.87c-0.03-0.59,0.43-1.09,1.03-1.12c0.6-0.02,1.09,0.43,1.12,1.03
					c0.2,4.57-2.18,8.41-4.27,11.24c-1.47,1.98-1.86,3.32-1.25,4.21c0.97,1.4,3.27,1.99,5.12,2.47l0.22,0.06
					c0.57,0.15,0.92,0.73,0.77,1.31C2492.18,683.92,2491.75,684.24,2491.27,684.24z"/>
				<path class="st4" d="M2502.84,686.24l-18.49,4.82C2484.35,691.06,2494.96,705.76,2502.84,686.24z"/>
				<path class="st3" d="M2511.86,650.2c-1.44-0.68-2.82-1.26-4.23-1.67c-1.41-0.41-2.82-0.66-4.21-0.7
					c-1.39-0.03-2.76,0.12-4.06,0.54c-1.31,0.42-2.54,1.11-3.77,2.07l-1.02-0.74c0.66-1.63,1.99-3.05,3.63-3.91
					c1.63-0.88,3.51-1.26,5.32-1.17c1.81,0.08,3.57,0.57,5.14,1.36c1.56,0.79,2.96,1.89,4,3.25L2511.86,650.2z"/>
				<path class="st3" d="M2472.19,653.67c0.88-2.82,3.61-5.09,6.71-5.64c1.54-0.3,3.15-0.16,4.61,0.34c1.45,0.5,2.76,1.37,3.66,2.55
					l-0.74,1.02c-1.27-0.39-2.44-0.68-3.59-0.82c-1.15-0.14-2.28-0.1-3.37,0.08c-1.1,0.19-2.16,0.54-3.19,1.07
					c-1.03,0.53-2,1.24-3.02,2.09L2472.19,653.67z"/>
				<path class="st10" d="M2478.1,680.93c0.47,6.48-4.12,12.2-10.43,13.14c-0.99-6.1-0.82-13.78-0.6-24.43
					C2472.86,670.24,2477.63,674.92,2478.1,680.93z"/>
				
					<ellipse transform="matrix(0.9397 -0.342 0.342 0.9397 -78.7911 901.8834)" class="st10" cx="2518.24" cy="674.38" rx="12.3" ry="12.3"/>
				<path class="st3" d="M2500.6,658.7c0.19,2.48,1.87,4.36,3.75,4.22c1.88-0.15,3.25-2.27,3.06-4.75
					c-0.19-2.48-1.87-4.36-3.75-4.22C2501.77,654.09,2500.41,656.22,2500.6,658.7z"/>
			</g>
			<path class="st9" d="M2543.57,674.41c-0.56,0-1.03-0.44-1.07-1c-0.54-8.25,2.88-13.21,10.16-14.72c0.59-0.12,1.15,0.25,1.27,0.83
				c0.12,0.58-0.25,1.15-0.83,1.27c-6.24,1.3-8.92,5.26-8.45,12.48c0.04,0.59-0.41,1.1-1,1.14
				C2543.62,674.41,2543.59,674.41,2543.57,674.41z"/>
		</g>
		<g>
			<g>
				<rect x="2145.04" y="1100.55" class="st4" width="182.86" height="96.89"/>
				<path class="st3" d="M2329.49,1199.04h-186.05v-100.08h186.05V1199.04z M2146.64,1195.85h179.67v-93.71h-179.67V1195.85z"/>
			</g>
			<polygon class="st15" points="2327.88,1131.38 2146.45,1159.03 2146.45,1117.7 			"/>
			<g>
				<rect x="2129.75" y="1100.55" class="st4" width="213.45" height="31.13"/>
				<path class="st3" d="M2344.8,1133.29h-216.67v-34.35h216.67V1133.29z M2131.36,1130.07h210.23v-27.91h-210.23V1130.07z"/>
			</g>
		</g>
		<g>
			<path class="st2" d="M2040.97,711.32c0-41.37-33.54-74.91-74.91-74.91s-74.91,33.54-74.91,74.91c0,34.87,23.85,64.08,56.1,72.44
				l-8.02,28.63l26.86-26.16C2007.45,786.21,2040.97,752.68,2040.97,711.32z"/>
			<g>
				<circle class="st4" cx="1937.07" cy="709.75" r="7.78"/>
				<circle class="st4" cx="1966.05" cy="709.75" r="7.78"/>
				<circle class="st4" cx="1995.04" cy="709.75" r="7.78"/>
			</g>
		</g>
		<g>
			<path class="st2" d="M2338.21,750.02l-22.8-13.41c3.07-8.18,4.83-17.01,4.83-26.27c0-41.37-33.54-74.91-74.91-74.91
				s-74.91,33.54-74.91,74.91c0,41.37,33.54,74.91,74.91,74.91c25.74,0,48.43-12.99,61.92-32.76L2338.21,750.02z"/>
			<g>
				<circle class="st4" cx="2217.03" cy="708.14" r="7.78"/>
				<circle class="st4" cx="2246.02" cy="708.14" r="7.78"/>
				<circle class="st4" cx="2275.01" cy="708.14" r="7.78"/>
			</g>
		</g>
		<path class="st3" d="M1818.21,1681.93H122.61c-0.89,0-1.61-0.72-1.61-1.61s0.72-1.61,1.61-1.61h1695.6c0.89,0,1.61,0.72,1.61,1.61
			S1819.1,1681.93,1818.21,1681.93z"/>
		<path class="st3" d="M2866.12,1682.47h-975.98c-1.19,0-2.15-0.96-2.15-2.15s0.96-2.15,2.15-2.15h975.98
			c1.19,0,2.15,0.96,2.15,2.15S2867.31,1682.47,2866.12,1682.47z"/>
	</g>
</g>
</svg>
