<svg xmlns:xlink="http://www.w3.org/1999/xlink" id="3-up--b" xmlns="http://www.w3.org/2000/svg" viewBox="0 0 222.82 193.72" width="222.82"  height="193.72" >
<path d="M8.73 181.6l-.3 7.88 4.36 2.3 5.1-1.12 1.3-3.47-3.67-6.8-6.78 1.2z" fill="#5e686d"></path>
<g fill="#995a4d">
<path d="M17.9 102.62l16.44-3c-.24 10.6-.55 20.93-.9 24.23-.8 7.6 4.54 49 4.54 49l-6.58.08c-1.35-6.83-3.86-13.35-5.26-17.68-8-24.82-4.52-36.3-4.52-36.3a87.79 87.79 0 01-3.72-16.33z"></path>
<path d="M5.05 98.7l17.3-.54-4.6 24.68c-2 7.66-3.88 51.75-3.88 51.75l-5.4.87c-.35-7.2-2.16-16.9-2.94-21.56-4.43-26.63.87-37.9.87-37.9a90.88 90.88 0 01-1.34-17.31z"></path>
</g>
<path d="M26.2 26.63s2-.8 2.47-.42 0 4.85-.47 5.47-2.82.78-2.82.78a21.59 21.59 0 00.82-5.83zM20.5 38.4c.42-1.4 2.1-3 3.16-3.93 0 0-5.87 1.2-9.12-.47 0 0-2.37-2.4-2.9-1.23 0 0 1.68 6.57-2.15 9-.83.53 1.36 1.38 1.92 1.94A27.67 27.67 0 0015 46.13a8 8 0 007 .87c.65-.28 2.2-4.8 1.36-5-1.17-.26-1.9.1-2.84-.15-.66-.17-.18-2.34-.02-3.46z" fill="#8e5349"></path>
<g fill="#995a4d">
<path d="M12.37 16.33c.08 0 14.44 1 14.64 1.26s.26 9.27.17 10.24-1.12 6.2-1.7 6.95a54.55 54.55 0 01-4.77 4.42 6.33 6.33 0 01-2.64-.2c-.36-.27-6-4.22-6.27-5.38-.14-.5-1.3-6.4-.6-7.92s1.15-9.37 1.15-9.37z"></path>
<path d="M11.35 25.88s-1.93-1-2.4-.66-.45 4.78-.08 5.5 2.73 1.06 2.73 1.06a21.59 21.59 0 01-.24-5.89z"></path>
</g>
<g fill="#f2e1df">
<circle cx="27.28" cy="31.76" r=".84" transform="rotate(-87.12002 27.28037902 31.7598163)"></circle>
<circle cx="10.18" cy="30.9" r=".84" transform="rotate(-87.12002 10.17880839 30.8964065)"></circle>
</g>
<path d="M7.86 18.86c0-.1.1-.17.13-.26.38-1 1.3-4.84 1.5-5.53S9.14 10 9.5 9.22s2-1.12 3.3-1.43 2.33-1.95 3.72-2.2a9.09 9.09 0 014.56.52c.47.4 3.48-.25 4.44.4s1.32 2.27 2.13 2.5 2.86.47 3.32 2.1c.1.32.48 2.34 1.1 2.54s1.4 2.05 1 2.28.06 2.5 0 3.24-.7.86-1.95 1.23a2.93 2.93 0 00-1.7 1.74 10.47 10.47 0 01-2.16 6.07s0-7.15-.74-7.87-3.73-.94-5-1c-2.94-.18-4.72 4.24-6.64 7.7a6.11 6.11 0 01-3.52 2.8 12 12 0 01-2.67-3.89c-.64-1.93-1.2-6.3-.84-7.07z" fill="#452a24"></path>
<path d="M43.67 101.47a33.71 33.71 0 00-1.66-5c.34-.26-7.8-24.64-7.8-24.64C31.18 46.44 29.84 43.57 23 42c-4-.92 3.78 30.72 3.78 30.72l9.28 22.9c.12 0 1.5 6.2 1.5 6.2a11 11 0 00-.89 2.67 4.48 4.48 0 001.06 2.5c.27.77 1.2.62 1.2.62.25 1 .92.73.92.73.5-.43 2.06-1.5 2.06-1.5.8-.68 2-3.9 1.77-5.37z" fill="#995a4d"></path>
<path d="M39 97.52a36.79 36.79 0 00.88 4.22s-1.35 2-.55 2.88a15.35 15.35 0 002.45-2.36l-1 3c-.1.4-1.44 1.22-1.56 1.9 0 0-1-.36-1.1-.9 0 0-.9-1-.88-1.7a19.33 19.33 0 01.67-2.62s-1.37-2.7-.67-4.55c-.04-.1 1.63.2 1.75.13z" fill="#8e5349"></path>
<path d="M2.16 151.1c.57.26 11.14 1.64 16.1 1.07 1.35-.15 1-28.95 1-28.95 1.1-.16.13 22.3 1 22.14 1.92-.35 18-7 18-7.24.3-1.35-2.06-19.48-4.67-51.46-.32-3.9-2.84-21-4.3-27.26a62.42 62.42 0 00-3-9.38c-1-2.78-1-5.3-1.8-7.6-.3-.85-2.53-.58-3.32-.55 0 0 .74 2.63-.12 3.1-3.82 2.12-5 .68-7.56-2.84-2.3-3.1-4.18-1.58-4.18-1.58s-11.27 5.92-7.2 20.6c1.42 5.14-.43 20.36-1.7 42.94-1.42 24.98 1.1 46.7 1.74 47zm1.5-99.56c.12-2.9 1-5.3 3.7-5.53l.87-.23C11.4 45.53 12 48.44 12 51.2l-.5 15.1c-7.36 2.1-7.84-14.75-7.84-14.75z" fill="#efdfca"></path>
<path d="M27.07 57.242l-5.9 2.12-.47-1.308 5.9-2.12z" fill="#f79737"></path>
<path d="M35.56 75.92l-3.4-12.2 7.73-1.17.94 12.56-5.26.8z" fill="#fee3cf"></path>
<path d="M31.46 64.32l.02-1.6 8.8-1.45.58 1.63-9.4 1.43z" fill="#999492"></path>
<path d="M40.53 66.84c-.38-.5-7.12 1.3-7.12 1.3L33 66.6l-2.24 2.77c-.2-.38-17.5 1.27-17.5 1.27-2.17-11.44.28-15-.8-21.4-.42-2.53-2.6-5.4-5.9-4.06-8.44 3.4 1.06 34.57 1.06 34.57 8 .37 20.8-4.5 20.83-4.6a18.38 18.38 0 003.09-1.51 22.39 22.39 0 003.54.48c1.17 0 4.87-.42 5.5-1.86a9.63 9.63 0 00-.06-5.42zM37.4 168.6s3.87 8 9.58 7.9c2.3 0 4.94-1.75 5.88-1 1.68 1.28-5.67 5.52-8.22 6s-5.93-2.4-8.2-2.16-3.27.9-4.7-.07c-2.4-1.6-.3-8.4-.3-8.4s1.6-3.43 5.95-2.27z" fill="#995a4d"></path>
<path d="M50 175.62a4.49 4.49 0 011.58 2.59s-4.3 3.6-6.42 4-5.1-.72-6.6-1.45S41.4 174 41.4 174a26.05 26.05 0 005.13 1.84 12.64 12.64 0 003.46-.22z" fill="#abb9c6"></path>
<path d="M53.38 176.48s.36-.7.68-.42 1.4 2.4 1.57 2.54-1.15 1.8-3.56 3.28-6 3.42-7.83 3.67-5.3-2.48-5.3-2.48l2.7 3.84-5.6 3.1-5-9a12.16 12.16 0 015.86-1.13c1.42.2 6 2.48 7.7 2.17s8.76-5.56 8.76-5.56zM7.8 184.24a33 33 0 00.64 5.25c.53 2.27 3.37 3.7 5.1 4.12 1.28.3 4.58.14 5.57-2.74a11.51 11.51 0 000-4.35s-.78 2.77-3.18 3a7.46 7.46 0 01-8.12-5.28z" fill="#88959e"></path>
<path d="M13.85 174.32s4.56 12.62 4.06 13.76-4.15 1.66-6.3.68a5.74 5.74 0 01-3.66-5.84 56.23 56.23 0 01.66-8c.47-1.92 3-3.6 3-3.6z" fill="#995a4d"></path>
<path d="M11.3 178.46a7.77 7.77 0 00-3.15 1.35s-.64 4.62-.15 6.25 3.62 2.7 3.62 2.7a8.67 8.67 0 013-2.15c1.5-.48 4.58.58 4.58.58s.5.14-.9-3a55.55 55.55 0 00-2.73-5.18 9.46 9.46 0 00-2.79-.62" fill="#abb9c6"></path>
<g fill="#c8915c">
<path d="M89.45 138.72L89 175.1c-.06 3.92 5.26 3.7 5.7.9.1-.65 6.27-35.28 6.26-36s-7.25-9.3-11.5-1.27zm19.8-3.07c-.13.2 3.84 37.86 4.15 38.57s5.22 1.75 5.5 0c.12-.73 2.7-34.18 1.83-36.26s-6.52-9.96-11.5-2.3z"></path>
<path d="M118.9 174.2s-.62 6.22 1 8.3 3.27 5.12 2.68 6.52-4.1 1.8-6.37.38-3.4-2.37-3.4-3.66a42.36 42.36 0 01.39-5.14c.63-3.75.05-6 .24-6.38s4.7-2.44 5.47-.03zm-29.63 1.4s-14.4 5.6-16.4 5.65-1.47.63.27 1.72 8.25 2.08 10.44 1.7 6.3-2.73 8.28-2.42 2.24 1.47 2.53.2-.55-5.16-.55-5.16c-.23-.2-1.74-3.92-4.58-1.67z"></path>
</g>
<path d="M88.9 174.33c-.35 0-12.45 6.3-15 6.4s-4.16.15-4.83 1.66 7.44 2.58 8.54 2.8 6.1.6 7.13.1 3.93-2.07 3.93-2.07l-.5 2.76 5.48.87s1.7-8.92 1.14-11.32c0 0-1.67 1.56-2.46 1.43s-.65-2.3-3.44-2.65z" fill="#f4caae"></path>
<path d="M76.46 183.86c-6.6-.94-7-2.1-7-2.1a2.33 2.33 0 00-.4.62c-.67 1.5 7.44 2.58 8.54 2.8s6.1.6 7.13.1 3.93-2.07 3.93-2.07L88.2 186l5.48.87.72-4.3a12.34 12.34 0 00-6.8.27c-3.97 1.65-4.53 1.96-11.13 1.02z" fill="#76707c"></path>
<path d="M113.25 173.74s3-1.74 5.37.1c.45.36-.07 2.54 3 9.95a31.6 31.6 0 011.56 4 2.4 2.4 0 01-2.86 2.26c-1.63-.43-6.06-2.16-7.55-4.16s.97-7.05.48-12.15z" fill="#f4caae"></path>
<path d="M112.34 183s-.55 2.15.08 3.36a11.79 11.79 0 005.7 4.23c2.66.94 4.46.3 5.07-.7s-.15-2.63-.4-3.3c0 0 .62 1.66-.44 2.22a5.82 5.82 0 01-4.92 0 8.68 8.68 0 01-4.41-3.6 8.39 8.39 0 01-.67-2.23z" fill="#76707c"></path>
<path d="M83.72 181.213l8.015-4.455.447.804-8.015 4.455zm29.952 2.412l.078-9.67.97.008-.078 9.67z" fill="#ddb199"></path>
<path d="M84.95 100.3a13.34 13.34 0 011.34 5.28c0 .7.07.75-.45.78s-.66-1.38-1.1-2.42-1.74-4.12.2-3.64z" fill="#bc875b"></path>
<path d="M84.85 99.84a18.53 18.53 0 01.47 3.22l-.23 6.15c-.1.9.54 2.3-.28 2.16a4 4 0 01-2.48-1.7c-.9-1.3-2.37-2.3-2.7-2.88-.53-.9.07-5.9.93-7.62.5-.96 2.7-3.08 4.3.67z" fill="#c8915c"></path>
<path d="M86.12 41.93c-2 3.8-3.74 24.94-4.65 29.5s-2.22 6.12-1.88 29.92l6.17-1C90 80.52 89.5 76.53 90.1 73.7a2.55 2.55 0 000-.68c1.3-5.23 4.1-24.94 4.28-26.76.4-3.57-5.8-8.9-8.26-4.34z" fill="#e5b4b1"></path>
<path d="M123.05 110a183.69 183.69 0 00-3.19-28 12.34 12.34 0 00-.32-1.69 5.31 5.31 0 00-.18-.67c-2.76-10.43-3.12-9.44-3.12-9.44l-18.92-1S95 72 93.64 78.4a4.81 4.81 0 00-.38 1.1A184.93 184.93 0 0089 109.11c-1.34 19.28-5.23 24.45-1 30.3s33.87 3.36 33.87 3.36a189.19 189.19 0 001.18-32.78z" fill="#ff6b06"></path>
<path d="M111.7 87c-.06 2.1 1.25 3.67 2.6 5.14a12.26 12.26 0 004.38 3.37c.4.16.58-.5.18-.66a10.91 10.91 0 01-3.86-2.93c-1.32-1.4-2.7-2.86-2.65-4.92 0-.44-.67-.43-.7 0z" fill="#db5c05"></path>
<g fill="#c8915c">
<path d="M90.2 39a48.78 48.78 0 017.67-3.65 19.07 19.07 0 013.66-1.14 14 14 0 016.9.66 27.66 27.66 0 016.22 3.19 1.11 1.11 0 01.58.69 1.05 1.05 0 01-.15.59 11.86 11.86 0 01-7.71 6 18.67 18.67 0 01-9.92-.43c-3.15-.93-6.32-2.65-7.77-5.6"></path>
<path d="M98.66 28.62a36.84 36.84 0 01.4 7.74c-.08 1-.63 1.08.08 1.86s2 .56 3 .42 2.18-.4 3.26-.65a21.39 21.39 0 002.25-.45c-.17-2.6-.7-5.12-.4-7.74.07-.64.7-1.35 0-1.84a2.29 2.29 0 00-1.14-.35c-1.1 0-1.6 1-2.77.63a15.49 15.49 0 01-3-1.61c-2.15-1.1-2.03.37-1.7 2z"></path>
<path d="M96.34 20.24c.34 5.8 2.46 8.45 4.48 10.15 1.12.94 9.57 3.07 11-6.24 1.73-11.33-6.14-12.3-6.14-12.3-4-2.46-9.68 2.6-9.34 8.4z"></path>
</g>
<path d="M97.3 8.36a11.87 11.87 0 00-3.2 4.91 3.58 3.58 0 000 1.33l.24 1.47a26.36 26.36 0 001.12 4.76A3.81 3.81 0 0096.63 23c1 .63.85-.67.84-1.3 0-1.56.7-2.54 1.25-3.94A9.71 9.71 0 0199.87 15c1.08 2.42 3.48 2.42 5.94 2.76l2.86.34c.7.06 1.93-.16 2.47.37a5.83 5.83 0 01.71 1.8c.2.7-.2 1.76.32 2.33a3.35 3.35 0 001.72.54c1.24.1 2.4-.65 3.54 0a16.61 16.61 0 003.57 1.6c5.8 1.86 11.68 1.2 17.28-1 1.85-.7 4.16-.66 5.78-1.75 1.35-.92 2.32-2.7 3.24-4 1.82-2.6 3.36-4 1.7-7.16a11.42 11.42 0 00-7.17-5.73c-2.84-.76-5.9-.18-8.8-.26a32 32 0 01-4.12-.6 20.51 20.51 0 00-4.84.2 25.25 25.25 0 01-5.56.09c-1.14-.17-2.2-.65-3.36-.76a31.8 31.8 0 00-11.67 1.61c-2.15.7-4.58 1.33-6.2 2.98z" fill="#7c7684"></path>
<path d="M95.67 36a90.35 90.35 0 00-8.17 4.37c-.85.62 0 16.3.82 20.1.5 2.28 1.77 19.34 2.4 20.12s13.68 1.6 13.68 1.6c4.3 6.34 14.24 5.84 16.84 4.47l-.75-28.82.73-17.18L110.94 36a8 8 0 01-7.9 4.19c-5.5-.46-7.37-4.2-7.37-4.2z" fill="#e5c3c3"></path>
<path d="M93.95 42.5a6.32 6.32 0 00-.78.9c-.3.42.4.8.7.4a5.23 5.23 0 01.65-.74c.38-.35-.2-.9-.56-.56zm2.45 6.7a.4.4 0 00.21-.77A1.23 1.23 0 0196 48c-.34-.4-.9.2-.56.57a2 2 0 00.95.62zm8.6-1.98l-.73.33c-.47.2-.06.9.4.7l.73-.33c.47-.22.05-.9-.4-.7zm-3.1-3.84a2.69 2.69 0 00-.88.67c-.34.4.23 1 .57.56a2.11 2.11 0 01.71-.54c.47-.22.06-.9-.4-.7zm9.53-1.08a2.73 2.73 0 00-.84-.29c-.5-.08-.7.7-.2.77a2.06 2.06 0 01.62.23c.5.22.9-.47.43-.7zm1 7.58a2.77 2.77 0 01.4-.85c.3-.42-.4-.82-.7-.4a3.45 3.45 0 00-.48 1 .405.405 0 00.77.25zm4.98-4.76l.94.16c.5.1.7-.7.2-.77l-.94-.16c-.5-.1-.72.65-.2.77zm-1.64-6.05a2.8 2.8 0 00-1.09.47c-.42.3 0 1 .4.7a2.22 2.22 0 01.9-.39c.5-.1.28-.84-.22-.77zm-27.5 7.15a.9.9 0 01-.41-.17c-.43-.3-.82.4-.4.7a1.73 1.73 0 00.82.28c.5.06.5-.74-.01-.8zm1.03-5.78c.06-.5-.74-.5-.8 0a1.72 1.72 0 00.07.71.4.4 0 00.77-.22 1.15 1.15 0 01-.04-.49zm1.58 13.72a.58.58 0 01.26-.25c.45-.25 0-.94-.4-.7a1.37 1.37 0 00-.55.54.403.403 0 00.7.4zm5.28 1.34a2.57 2.57 0 00.32 1c.25.45.94 0 .7-.4a1.56 1.56 0 01-.21-.6c-.06-.5-.86-.5-.8.01zm6.57-.26a5.91 5.91 0 001-.43c.46-.24 0-.93-.4-.7a4.79 4.79 0 01-.85.34.411.411 0 00.26.78zm7.47-.04c-.43-.3-.82.4-.4.7a5 5 0 01.66.53c.37.35.94-.22.56-.57a6.2 6.2 0 00-.82-.65zm-4.44 4.35l-.67.54c-.4.32.17.88.57.56l.67-.54c.4-.33-.18-.88-.57-.56zm11.54-5.8c.35.38.9-.2.56-.57a2.75 2.75 0 00-.95-.66c-.47-.2-.87.5-.4.7a2.19 2.19 0 01.79.54zm-2.45 6.33c-.42-.3-.82.4-.4.7l.94.65c.42.3.82-.4.4-.7zM98.4 61.5c-.3-.42-1 0-.7.4a2.56 2.56 0 00.48.54c.4.33 1-.24.56-.57a1.81 1.81 0 01-.35-.38zm-7.4-.96a1.52 1.52 0 01.56-.05c.5 0 .5-.76 0-.8a2.16 2.16 0 00-.77.08.4.4 0 00.21.77zm.72 6.68a2 2 0 01.9-.5.4.4 0 00-.22-.72 2.78 2.78 0 00-1.25.7c-.37.3.2.88.57.52zm4.75 2.6l-.75-.5c-.43-.3-.82.4-.4.7l.75.5c.43.3.83-.4.4-.7zm7.18-2.43a5.15 5.15 0 00-1 .7c-.4.33.18.9.57.56a4.32 4.32 0 01.87-.57c.43-.24.02-.92-.44-.7zm6.82.6c-.34-.38-.9.2-.56.57l.47.53c.34.38.9-.2.56-.57zm7.13 0l-.8.48a.401.401 0 00.41.69l.8-.48a.401.401 0 00-.41-.69zm-2.68 5.94c-.35-.38-.9.2-.56.57l.54.6c.35.38.9-.2.56-.57zm-8.18.33l-.65.62c-.37.36.2.92.57.56l.65-.62c.38-.36-.2-.92-.57-.56zm5.9 6.8c-.46-.24-.86.46-.4.7a1.48 1.48 0 01.51.4c.3.4 1 0 .7-.4a2.38 2.38 0 00-.8-.68zm5.8-1.48a11.08 11.08 0 00-.94.65c-.4.3 0 1 .4.7a11.06 11.06 0 01.94-.65.401.401 0 00-.41-.69zm-16.93-1.17l-.48-.24c-.46-.23-.86.46-.4.7l.48.24c.46.23.9-.46.4-.7zm-3.5-3.8a9.06 9.06 0 00-1.27 1.08.4.4 0 00.57.56 7.94 7.94 0 011.11-1c.45-.26.05-.93-.4-.64zm-5.9-1.02a.9.9 0 00-.75-.29c-.5 0-.5.85 0 .8a.14.14 0 01.19.06c.36.37.92-.18.56-.57zm.75 5l-.54.53c-.37.36.2.92.57.56l.54-.53c.37-.36-.2-.92-.57-.56z" fill="#e2aba6"></path>
<path d="M118.08 90s-3.4 1.84-4.7 4.3c0 0-.53 1.12.26 1.35s.36 1.3 1.2 1.55.6 1.1 1.8 1.07a1.13 1.13 0 001.15.66c.8-.1 2.7-.24 2.84-.65a18.66 18.66 0 00.94-2.28c-.08-.18-.3-.44-.92-.2a5.22 5.22 0 00.88-1.12 6.29 6.29 0 00.52-2l-.35-3.48z" fill="#c8915c"></path>
<path d="M135.95 65.64a.76.76 0 00-.07-.39c-.54-1-10.93-21.95-14.67-24.63-4-2.84-7.87 3.8-6.14 6.66.82 1.35 7.17 14 11 19-1.3 2.47-3.28 9.67-8.5 23l4.86 3.64c12.47-18.35 13.8-25.42 13.8-25.42a6.35 6.35 0 00-.27-1.86z" fill="#e5b4b1"></path>
<path d="M151.46 53.15a4.89 4.89 0 00-1.39-4.15c-1.6-1.9-3.46-2.67-7.08-4-1.35-.5-4.76-1.64-5.26-1.17s.24 1.52.76 2.25 1.08 3.13 1.37 3.6 1.38 1.56 1.47 1.9a2.3 2.3 0 00.63 1.33 12.78 12.78 0 003.85 2.78l.2.08a5.53 5.53 0 012 1.06c.3.42 3.44-3.67 3.44-3.68z" fill="#ffa378"></path>
<path d="M149.6 50.84a3.42 3.42 0 00-1.1-3c-1.24-1.37-2.67-1.95-5.46-3-1-.38-3.66-1.2-4-.88s.2 1.1.6 1.62a27 27 0 011.08 2.6c.23.34 1.07 1.13 1.14 1.37a1.64 1.64 0 00.5 1 10.05 10.05 0 003 2l.16.06a4.44 4.44 0 011.51.78c.2.38 2.57-2.53 2.57-2.55z" fill="#ea9475"></path>
<path d="M168.5 50.38c-.8 1.32-1 14.33-1 14.33l-16-11.57-3.5 3.62s18.45 21 21 21 9.35-9.36 9.35-9.36l-3.37-21z" fill="#ffa378"></path>
<g fill="#efdfca">
<path d="M183.88 186.07c-.67.13-23 2.07-23 2.07s-.44 1.7 0 2.12 4 1.94 9.25 1.1c6.25-1 13.6-2.5 14-3a8.09 8.09 0 00-.25-2.28zM206.42 185.4c-.43.24-22.93 3.44-22.93 3.44s-.45 1.95.77 2.68c.9.54 8.68 1.05 12.25.1s10.27-3.6 10.3-4.48a5.82 5.82 0 00-.4-1.73z"></path>
</g>
<path d="M176.8 181.16s-11.9 5.34-13.9 5.92-2.07 1.06-2.07 1.06 2.9 1.82 9.82.78 12.4-2.6 13.1-2.65-1.2-5.55-1.2-5.55zm26.7-1.16c-1.43-.43-5.74.45-5.74.45a51.26 51.26 0 01-12.48 7.38c-6.67 2.55 6.72 2.36 10.5 1.74s10.5-3.55 10.65-4.15-1.5-5-2.92-5.42z" fill="#384f63"></path>
<path d="M176.33 176.65l.47 4.5a5.12 5.12 0 005.74-.45l-.48-4.24zm26.67-.9l-5.73.18.47 4.5a5.12 5.12 0 005.74-.45z" fill="#ffa378"></path>
<path d="M174 80.74s-6.58 44.43-5.9 55 6 41.23 6 41.23 5.43 2.87 9.38.15c0 0-1.46-27.55-1.46-40.4s7.54-34.64 7.54-34.64l2.38 74.15s8.27 2.7 11.34-.34l2.73-83.92a39.34 39.34 0 00-1.46-9.23z" fill="#8c8c8c"></path>
<path d="M180.5 30.06s-6.4.73-8.3 4.3.3 27.68.7 37.93-1.62 17.35-.34 18.8 28.94.45 32.67-5.36c1.42-2.2 1.65-29.15 1.65-29.15s7 .17 11.46-3.23c0 0-3.32-17.17-6.4-19.53s-16.06-3.47-16.06-3.47z" fill="#7fdbc9"></path>
<g fill="#ffa378">
<path d="M196.74 25.33l1.26 7.2s-10.7 7.56-13 5.4 1.45-12.5-1-16.54c0-.01 7.36 5.35 12.74 3.92z"></path>
<path d="M185 6a82.13 82.13 0 01-4.7 6.88c-.42.54-1.82 1.1-1.9 1.8s1 .65 1.35 1.06c.43.58 0 .56-.34.93-.6.76.07 1 .85 1.27a2.63 2.63 0 00-1.35.1c-.62.4 0 .9-.22 1.42-.38 1-1.72 1.35-.38 2.4a21.33 21.33 0 006.7 3.34s11.37 3.55 14.58-2.2 6.93-12.54 3.4-13.8S188.78-1.26 185 6z"></path>
</g>
<path d="M204.7 19.27c2.42-4.1.27-8.84-2.88-11.82a38.09 38.09 0 00-5.74-4.74c-3-1.9-13.1-5.48-12.94 1a7.26 7.26 0 002.38 5.61c1.8 1.45 7 2.6 5.28 5.88-.32.6-1.4 1.83-.16 2.15s1.35-1.22 2.3-1.3.63 1.24.46 1.8c-.68 2.14-.58 3.6.85 5.37a4.4 4.4 0 007.22-.15c.92-1.34 2.16-2.2 3-3.5z" fill="#f26200"></path>
<path d="M175.9 31.72c-1.56-.78-6.16 5.24-6.7 7.57s-1.16 9.62-1.16 9.62l-.34 3.52 10 1.57z" fill="#7fdbc9"></path>
<path d="M208.53 55.78s4.43 10 3.67 12.62-6.2 18.4-8.95 18.34-4.44 1.6-6.34 2.4 1 1.73 4.68.08l4.7 5a24.13 24.13 0 013.8-6.69c2.57-3.1 12.4-15.46 12.73-18.52s-4.48-15.7-4.48-15.7z" fill="#ffa378"></path>
<rect x="141.54" y="39.57" width="2.13" height="16.85" rx=".67" transform="rotate(-35 141.51805206 48.30394626)" fill="#4a3737"></rect>
<path d="M137.986 41.874l.972-.67 8.736 12.682-.972.67z" fill="#50719c"></path>
<path d="M141.03 44.2l.97 3.5 2.94 4.27-.97-3.5-2.94-4.27z" fill="#5e85b8"></path>
<path d="M150.2 54s1.8-1.75.75-5.1a7.6 7.6 0 00-3.21-3.63c-1.5-.75-2.9-2.5-3.17-2.23s-.5 1.1.27 2.35 2.33 1.73 2.37 2.45c.26 4.62.8 7.28 3 6.17zm-7.3-4.92c-.16-1.13-1.2-1.4-1.3-.87l-.15.75a9.54 9.54 0 00-.06-1.85c-.24-1.17-1.32-1.22-1.4-.63v.25a10.91 10.91 0 00-.35-2c-.4-1.16-1.46-.9-1.45-.25l.12 4.45a.46.46 0 00.12.3c.5.53.9.65 1.2.45l-.1.9a.51.51 0 00.08.35c.56.83 1.08.94 1.4.47l-.05.28c-.16 1.1 1.4 1.8 1.7.56a10.86 10.86 0 00.24-3.16z" fill="#ffa378"></path>
</svg>