<?xml version="1.0" encoding="utf-8"?>
<!-- Generator: Adobe Illustrator 24.3.0, SVG Export Plug-In . SVG Version: 6.00 Build 0)  -->
<svg version="1.1" id="_x2018_ëîé_x5F_1" xmlns="http://www.w3.org/2000/svg" xmlns:xlink="http://www.w3.org/1999/xlink"
	 x="0px" y="0px" viewBox="0 0 3200 2000" style="enable-background:new 0 0 3200 2000;" xml:space="preserve">
<style type="text/css">
	.st0{fill:#F0F7FD;}
	.st1{fill:#C0D8FB;}
	.st2{fill:#DFEBFD;}
	.st3{fill:#B7D3F3;}
	.st4{fill:#FFB27D;}
	.st5{fill:#233862;}
	.st6{fill:#A9453D;}
	.st7{fill:#ED975D;}
	.st8{fill:#1768B8;}
	.st9{fill:#D2E3FC;}
	.st10{fill:#5F9AA8;}
	.st11{fill:#F99746;}
	.st12{fill:#ED7D2B;}
	.st13{fill:#9DB0F4;}
	.st14{fill:#FFFFFF;}
	.st15{fill:#77A4E5;}
	.st16{fill:#94B0ED;}
	.st17{fill:#CC6A27;}
	.st18{fill:#0F2549;}
	.st19{fill:#C03E75;}
	.st20{fill:#FF529D;}
	.st21{fill:#8E342E;}
	.st22{fill:#ED985F;}
	.st23{fill:#122544;}
	.st24{fill:#FFC397;}
	.st25{fill:#233862;stroke:#233862;stroke-miterlimit:10;}
	.st26{fill:#FFFFFF;stroke:#233862;stroke-miterlimit:10;}
	.st27{fill:#B0D4FF;}
	.st28{fill:#0E2C4F;}
	.st29{fill:#1768B8;stroke:#2F2D2C;stroke-width:3;stroke-miterlimit:10;}
	.st30{fill:#163560;}
	.st31{fill:#EAA16E;}
	.st32{fill:#2B478B;}
	.st33{fill:#2E3552;}
	.st34{fill:#B2D3F6;}
	.st35{fill:none;stroke:#2F2D2C;stroke-width:3;stroke-miterlimit:10;}
	.st36{fill:#1A1C41;}
	.st37{fill:#C78776;}
	.st38{fill:#8A5F52;}
</style>
<g>
	<path class="st0" d="M424.13,1670.94c0,0-269.11-621.08,47.53-907.19c482.44-435.91,951.19,217.9,1169.21-86.39
		C2001.53,174,3181.4,303.18,2820.41,929.1c-189.39,328.39,444.26,279.32,185.94,749.99L424.13,1670.94z"/>
	<g>
		<path class="st1" d="M1862.5,722.94h-123.68c-5.68,0-10.32-4.65-10.32-10.32V593.23c0-5.68,4.65-10.32,10.32-10.32h123.68
			c5.68,0,10.32,4.65,10.32,10.32v119.38C1872.83,718.29,1868.18,722.94,1862.5,722.94z"/>
		<path class="st2" d="M1857.14,716.87h-112.97c-5.19,0-9.43-4.24-9.43-9.43V598.41c0-5.19,4.24-9.43,9.43-9.43h112.97
			c5.19,0,9.43,4.24,9.43,9.43v109.03C1866.57,712.63,1862.33,716.87,1857.14,716.87z"/>
		<g>
			<g>
				<path class="st3" d="M1797.67,601.76c0-1.65,1.34-2.99,2.99-2.99s2.99,1.34,2.99,2.99c0,1.65-1.34,2.99-2.99,2.99
					S1797.67,603.41,1797.67,601.76z"/>
				<path class="st3" d="M1821.79,605.98c0.8-1.44,2.62-1.96,4.07-1.16c1.44,0.8,1.96,2.62,1.16,4.07c-0.8,1.44-2.62,1.96-4.07,1.16
					C1821.51,609.25,1820.99,607.42,1821.79,605.98z"/>
				<path class="st3" d="M1842.46,622.4c1.39-0.9,3.24-0.5,4.13,0.89c0.9,1.39,0.5,3.24-0.89,4.13c-1.39,0.9-3.24,0.5-4.13-0.89
					C1840.68,625.15,1841.08,623.3,1842.46,622.4z"/>
				<path class="st3" d="M1852.7,647.82c1.65,0,2.99,1.34,2.99,2.99c0,1.65-1.34,2.99-2.99,2.99s-2.99-1.34-2.99-2.99
					C1849.71,649.16,1851.05,647.82,1852.7,647.82z"/>
				<path class="st3" d="M1847.47,677.31c1.17,1.17,1.17,3.06,0,4.23c-1.17,1.17-3.06,1.17-4.23,0c-1.17-1.17-1.17-3.06,0-4.23
					C1844.41,676.14,1846.31,676.14,1847.47,677.31z"/>
				<path class="st3" d="M1828.7,696.14c1.17,1.17,1.17,3.06,0,4.23c-1.17,1.17-3.06,1.17-4.23,0c-1.17-1.17-1.17-3.06,0-4.23
					C1825.64,694.97,1827.53,694.97,1828.7,696.14z"/>
				<path class="st3" d="M1797.67,705.84c0-1.65,1.34-2.99,2.99-2.99s2.99,1.34,2.99,2.99c0,1.65-1.34,2.99-2.99,2.99
					S1797.67,707.49,1797.67,705.84z"/>
			</g>
			<g>
				<path class="st3" d="M1779.43,605.98c-0.8-1.44-2.62-1.96-4.07-1.16c-1.44,0.8-1.96,2.62-1.16,4.07
					c0.8,1.44,2.62,1.96,4.07,1.16C1779.71,609.25,1780.23,607.42,1779.43,605.98z"/>
				<path class="st3" d="M1758.76,622.4c-1.39-0.9-3.24-0.5-4.13,0.89c-0.9,1.39-0.5,3.24,0.89,4.13c1.39,0.9,3.24,0.5,4.13-0.89
					C1760.55,625.15,1760.15,623.3,1758.76,622.4z"/>
				<path class="st3" d="M1748.52,647.82c-1.65,0-2.99,1.34-2.99,2.99c0,1.65,1.34,2.99,2.99,2.99s2.99-1.34,2.99-2.99
					C1751.51,649.16,1750.18,647.82,1748.52,647.82z"/>
				<path class="st3" d="M1753.75,677.31c-1.17,1.17-1.17,3.06,0,4.23c1.17,1.17,3.06,1.17,4.23,0c1.17-1.17,1.17-3.06,0-4.23
					C1756.81,676.14,1754.92,676.14,1753.75,677.31z"/>
				<path class="st3" d="M1772.53,696.14c-1.17,1.17-1.17,3.06,0,4.23c1.17,1.17,3.06,1.17,4.23,0c1.17-1.17,1.17-3.06,0-4.23
					C1775.59,694.97,1773.69,694.97,1772.53,696.14z"/>
			</g>
		</g>
		<g>
			<path class="st3" d="M1799.85,650.81c0-1.65,1.34-2.99,2.99-2.99s2.99,1.34,2.99,2.99c0,1.65-1.34,2.99-2.99,2.99
				S1799.85,652.46,1799.85,650.81z"/>
			<g>
				<rect x="1802.44" y="613.46" class="st3" width="0.82" height="37.35"/>
			</g>
			<g>
				
					<rect x="1799.78" y="641.76" transform="matrix(0.7867 -0.6174 0.6174 0.7867 -10.3177 1256.1058)" class="st3" width="25.17" height="2.45"/>
			</g>
		</g>
	</g>
	<g>
		<g>
			<path class="st4" d="M923.48,1643.65c0.72,9.79,14.52,9.89,30.19,8.07c15.67-1.82,11.5,2.15,33.44,2.45
				c21.94,0.3,29.5-6.95,30.56-10.08c0.95-2.78-9.62-5.12-20.92-7.87c-1.42-0.34-2.85-0.7-4.27-1.06
				c-12.74-3.24-21.18-12.78-32.09-21.11c-10.33-7.89-23.65-36.44-23.65-36.44l-29.97-1.35c0,0,12.62,25.59,17.36,36.63
				c2.79,6.49,1.6,14.46,0.39,20.58C923.87,1636.8,923.22,1640.21,923.48,1643.65z"/>
			<path class="st5" d="M953.67,1651.73c15.67-1.82,11.5,2.15,33.44,2.45c21.94,0.3,29.5-6.95,30.56-10.08
				c0.95-2.78-9.62-5.12-20.92-7.87l-0.13,0.21c0,0-14.12,7.58-32.19,5.76c-14.72-1.47-29.75-7.62-39.9-8.72
				c-0.65,3.33-1.3,6.73-1.04,10.18C924.2,1653.44,938.01,1653.54,953.67,1651.73z"/>
		</g>
		<g>
			<path class="st4" d="M716.52,1645.68c0.71,9.79,14.51,9.91,30.18,8.1c15.67-1.8,11.5,2.16,33.43,2.49
				c21.94,0.33,29.5-6.92,30.57-10.05c0.95-2.78-9.61-5.13-20.91-7.9c-1.42-0.34-2.85-0.7-4.27-1.06
				c-12.74-3.25-21.17-12.8-32.07-21.14c-10.32-7.9-0.01-54.67-0.01-54.67l-32.96-3.21c0,0,1.58,39.38,1.56,57.28
				c-0.01,7.06-3.26,13.86-4.48,19.98C716.92,1638.83,716.27,1642.24,716.52,1645.68z"/>
			<path class="st5" d="M746.71,1653.79c15.67-1.8,11.5,2.16,33.43,2.49c21.94,0.33,29.5-6.92,30.57-10.05
				c0.95-2.78-9.61-5.13-20.91-7.9l-0.13,0.21c0,0-14.13,7.57-32.19,5.73c-14.72-1.49-29.74-7.65-39.9-8.76
				c-0.65,3.33-1.3,6.73-1.05,10.18C717.23,1655.47,731.04,1655.59,746.71,1653.79z"/>
		</g>
		<path class="st6" d="M812.71,837.36c5.67-23.34-2.55-34.21-9.97-39.99c-3.52-8.59-7.54-14.78-11.64-17.11
			c-7.49-4.26-16.47-4.72-22.75-4.35c1.62-1.67,4.8-2.28,4.8-2.28c-3.89-0.58-12.58,3.28-12.58,3.28
			c-54.16-20.87-62.67,58.88-61.53,77.4c1.13,18.52,0.98,40.34-27.2,54.94c-53.76,27.85,17.87,132.81,17.87,132.81
			c-1.37-14.97,67.71-93.98,103.75-117.64c8.77-12.92,11.89-35.73,12.12-37.53c-1.51,18.09-4.61,28.24-7.38,33.95
			C814.62,905.73,817.06,869.43,812.71,837.36z"/>
		<path class="st4" d="M791.32,925.6c0.18,0.08-17.4,9.21-30.63,5.59c-12.44-3.39-20.57-19.52-20.4-19.56
			c5.27-1.05,6.79-8.29,6.68-39.39l2.38,0.47l40.04,7.93c0,0-0.91,12.6-0.94,24.47C788.43,915.08,789.03,924.54,791.32,925.6z"/>
		<path class="st7" d="M789.4,880.64c0,0-0.91,12.6-0.94,24.47c-22.41-0.63-34.25-21.07-39.1-32.4L789.4,880.64z"/>
		<path class="st8" d="M952.32,1593.48c1.96,6.15-2.45,12.5-8.9,12.8l-15.64,0.73l-16.55,0.51c-4.14,0.13-8.1-1.68-10.71-4.89
			c-13.21-16.21-53.88-70.23-78.55-148.72c-0.69-2.2-1.43-4.43-2.2-6.68c-16.29-47.5-50.06-107.13-67.86-161.1
			c-2.83-8.6-5.38-16.69-7.66-24.35c-0.73-2.45-1.44-4.86-2.12-7.23c-13.12-45.57-16.91-75.49-20.41-107.46l128.52,1.03
			C850.22,1148.11,877.27,1358.41,952.32,1593.48z"/>
		<path class="st9" d="M832.23,1074.26c-0.32,61.16,8.97,87.4,8.97,87.4s-55.03,27.96-120.43,7.38
			c-0.77-0.24-17.96-101.04-16.33-110.16c3.04-17.02,3.1-34.63,1.59-51.24c-3.99-43.97-15.86-80.46-15.86-80.46
			c17.82-4.05,34.51-11.18,53.05-18.13c4.27,5.31,17.31,10.87,28.62,10.62c13.03-0.29,17.25-5.86,16.58-11.95
			c13.88,7.72,24.96,15.02,24.96,15.02c11.8,20.5,35.73,40.4,37.46,71.84C851.28,1002.3,832.24,1072.55,832.23,1074.26z"/>
		<path class="st10" d="M721.7,1081.08c-5.62,7.95-16.39,56.28-43.19,62.35c13.81-34.44,24.29-49.55,25.93-60.14
			c3.04-19.77,3.1-40.22,1.59-59.52c8.97-15.72,15.66-26.5,15.66-26.5c0.7-2.54,14.25-44.44,18.6-6.99
			C744.63,1027.75,727.98,1072.19,721.7,1081.08z"/>
		<path class="st11" d="M812.79,918.24c0,0,19.06,10.35,27.1,20.56c8.04,10.21,55.11,94.8,55.11,103.27
			c0,8.47-47.77,2.93-47.77,2.93L812.79,918.24z"/>
		<path class="st4" d="M796.88,891.88c0,0-53.02,0.87-53.05-32.15c-0.04-33.02-6.9-55.15,26.94-57.11
			c33.85-1.95,40.44,10.64,43.13,21.66C816.59,835.31,810.67,890.8,796.88,891.88z"/>
		<path class="st6" d="M794.92,801.82c0,0-14.52,38.74-36.79,44.47c-22.28,5.73-31.94-0.24-31.94-0.24s17.09-13.57,20.63-37.27
			C746.82,808.78,783.97,783.38,794.92,801.82z"/>
		<path class="st6" d="M791.32,804.96c0,0,10.84,8.65,13.48,17.06c2.64,8.41,3.83,25.72,8.88,25.13c0,0,10.94-26.33-1.35-41.23
			C799.29,790.13,791.32,804.96,791.32,804.96z"/>
		<path class="st11" d="M788.43,907.71c0,0,30.67,75.77,31.58,91.11c0.9,15.34,3.61,250.77,3.61,250.77s-1.8,10.83,18.94,6.31
			c20.75-4.51,26.16-9.02,26.16-9.02s-19.85-145.23-14.43-195.75c5.41-50.52-41.5-132.9-41.5-132.9L788.43,907.71z"/>
		<path class="st8" d="M763.02,1426.85c0.31,39.83-1.58,128.62-6.43,172.03c-0.44,3.97-3.8,6.97-7.8,6.97h-13.41
			c-5.65,0-9.88-0.04-12.69-0.08c-2.43-0.04-4.51-1.78-4.98-4.17c-13.33-67.86-22.88-124.23-29.87-172.95
			c-5.85-40.77-11.04-75.73-15.04-105.82c-4.02-30.28-6.82-55.64-7.82-77.06c-0.15-3.37-0.27-6.66-0.33-9.84
			c-0.06-3.2-0.08-6.31-0.05-9.34l111.04-10.83c-0.02,0.85-0.03,1.7-0.05,2.56c-0.71,32.56-3.28,72.27-5.91,108.56
			C766.35,1372.86,762.92,1413.33,763.02,1426.85z"/>
		<path class="st8" d="M735.38,1605.85c-5.08,0-9.01-0.03-11.79-0.07c-2.95-0.04-5.48-2.15-6.05-5.05
			c-13.24-67.47-22.74-123.57-29.69-172.07c-5.85-40.77-11.04-75.73-15.04-105.82c-4.02-30.28-6.82-55.64-7.82-77.06l40.75,23.97
			c0,0-26.01,9.17-16.08,78.63C699.57,1417.83,721.57,1596.02,735.38,1605.85z"/>
		<path class="st11" d="M740.62,1245.09c0,0-7.82,28.26-34.88,24.65s-65.54-19.85-65.54-19.85s11.56-36.54,25.94-84.55
			c17.41-58.12,38.96-133.05,49.12-180.31c2.85-13.24,4.8-24.3,5.52-32.22l22.45-43.56c0,0,33.48,75.13,35.28,94.08
			C780.31,1022.27,740.62,1245.09,740.62,1245.09z"/>
		<path class="st12" d="M739.42,1043.02c-1.21,30.67-8.43,90.21-72.77,122.08c-0.17,0.08-0.34,0.17-0.51,0.24
			c17.41-58.12,38.96-133.05,49.12-180.31C727.07,1002.7,740.08,1026.14,739.42,1043.02z"/>
		<path class="st4" d="M713.6,1000.51l29.63-91.25c-0.08,0.04-37.43,11.11-56.21,20.6c0,0-11.74,15.14-19.01,50.06
			c0,0-7.68,83.85,9.46,114.52c0,0,54.12,10.82,140.72-18.94v-19.85c0,0-94.72,4.96-114.11,7.22L713.6,1000.51z"/>
		<path class="st11" d="M743.23,909.25c0,0-54.93,3.87-68.16,33.34c-13.23,29.47-17.44,127.49-0.6,156.36c0,0,23.18,6.6,64.18-1.06
			c0.5-0.09,1.01-0.19,1.52-0.29c0,0,13.08-32.02,1.35-38.34c0,0-34.58,1.8-30.97-9.62C714.16,1038.21,743.23,909.25,743.23,909.25z
			"/>
		<g>
			<path class="st6" d="M880.95,1067.91l-1.62,5.2l-90.13-28.04c0,0-1.2-1.37-0.61-3.19c0.66-2.01,2.23-2.01,2.23-2.01
				L880.95,1067.91z"/>
			<polygon class="st6" points="887.47,1072.83 880.95,1067.91 879.34,1073.11 			"/>
		</g>
		<path class="st4" d="M818.2,1055.65c0,0,20.45-12.59,29.03-10.66c8.58,1.94,30.44,17.77,19.92,21.2
			c-10.52,3.43-19.03-0.17-23.07,2.32c-4.04,2.49-7.03,7.04-25.88,6.98C799.35,1075.43,818.2,1055.65,818.2,1055.65z"/>
		<g>
			<polygon class="st5" points="810.69,1167.11 904.35,1167.15 940.39,1030.97 846.74,1030.93 			"/>
			<path class="st13" d="M850.79,1021.55c0,0-7.17,1.17-4.05,9.39h31.98l-10.23-9.39H850.79z"/>
			<path class="st14" d="M850.79,1021.55c0,0,14.12,0,19.02,11.38c5.99,13.9,3.43,52.75,3.43,52.75h75.14
				c0,0,11.86-45.65-12.94-64.12H850.79z"/>
		</g>
		<path class="st4" d="M922.13,1098.77c0,0-11.31-8.47-14.81-3.58c-3.5,4.89,2.69,29.81,10.09,27.97
			C924.8,1121.32,924.89,1103.84,922.13,1098.77z"/>
	</g>
	<g>
		<g>
			<g>
				<path class="st15" d="M1630.21,1406.74h-285.32c-10.84,0-19.62-8.79-19.62-19.62v-12.76h304.94V1406.74z"/>
				<g>
					<polygon class="st16" points="1484.7,1640.93 1466.29,1640.93 1461.13,1406.74 1489.24,1406.74 					"/>
					<polygon class="st16" points="1564.68,1640.93 1385.69,1640.93 1385.69,1624.76 1476.92,1616.53 1564.68,1624.76 					"/>
					<path class="st16" d="M1368.31,1638.39c0-8.13,6.59-14.72,14.72-14.72s14.72,6.59,14.72,14.72c0,8.13-6.59,14.72-14.72,14.72
						S1368.31,1646.52,1368.31,1638.39z"/>
					<path class="st16" d="M1547.29,1638.39c0-8.13,6.59-14.72,14.72-14.72c8.13,0,14.72,6.59,14.72,14.72
						c0,8.13-6.59,14.72-14.72,14.72C1553.88,1653.11,1547.29,1646.52,1547.29,1638.39z"/>
					<path class="st16" d="M1537.05,1422.1h-123.72c-7.42,0-13.44-6.02-13.44-13.44v-1.93h150.59v1.93
						C1550.48,1416.08,1544.47,1422.1,1537.05,1422.1z"/>
				</g>
				<path class="st11" d="M1350.82,1406.74c-14.11,0-25.55-11.44-25.55-25.55v-204.11c0-40.41,26.42-73.17,59.01-73.17h133.45
					c32.59,0,59.01,32.76,59.01,73.17v229.66H1350.82z"/>
				<path class="st17" d="M1353.46,1406.74c-7.74,0-14.01-6.27-14.01-14.01v-215.65c0-40.41,26.42-73.17,59.01-73.17h133.45
					c32.59,0,59.01,32.76,59.01,73.17v55.44v174.22H1353.46z"/>
				<path class="st11" d="M1662.72,1406.74h-326.44c-8.94,0-16.19-7.25-16.19-16.19l0,0c0-8.94,7.25-16.19,16.19-16.19h326.44
					c8.94,0,16.19,7.25,16.19,16.19l0,0C1678.91,1399.49,1671.66,1406.74,1662.72,1406.74z"/>
			</g>
		</g>
		<g>
			<path class="st4" d="M1750.39,1633.41c-0.97,9.41,12.12,11.84,27.3,12.76c15.18,0.92,10.56,3.98,31.33,7.97
				c20.77,3.99,29.17-1.61,30.71-4.41c1.37-2.48-8.27-6.49-18.53-11.01c-1.29-0.56-2.59-1.15-3.88-1.73
				c-11.55-5.23-17.95-15.71-26.9-25.45c-8.47-9.23-16.3-38.58-16.3-38.58l-28.22-6.34c0,0,7.66,26.42,10.29,37.7
				c1.55,6.63-0.92,14-3.11,19.61C1751.91,1626.97,1750.72,1630.09,1750.39,1633.41z"/>
			<path class="st18" d="M1777.68,1646.17c15.18,0.92,10.56,3.98,31.33,7.97c20.77,3.99,29.17-1.61,30.71-4.41
				c1.37-2.48-8.27-6.49-18.53-11.01l-0.16,0.17c0,0-14.69,4.81-31.53,0.04c-13.73-3.89-26.95-12.26-36.41-15.02
				c-1.18,3.05-2.37,6.17-2.7,9.49C1749.42,1642.82,1762.5,1645.25,1777.68,1646.17z"/>
			<path class="st19" d="M1707.64,1306.51c-15.18-10.66-115.62-29.67-166.87-35.16l-56.65-49.18c0,0-48.22,71.42-48.6,126.06
				c-0.18,25.48,11.56,28.01,11.56,28.01c0,0,181.6,1.35,189.56,2.17c13.03,1.34,30.22,33.8,34.51,63.37
				c4.3,29.57,80.02,149.81,80.02,149.81s15.79,5.06,23.1,4.63c7.85-0.46,11.49-3.09,11.49-3.09S1741.88,1330.55,1707.64,1306.51z"
				/>
			<path class="st4" d="M1703.41,1633.41c-0.97,9.41,12.12,11.84,27.3,12.76c15.18,0.92,10.56,3.98,31.33,7.97
				c20.77,3.99,29.17-1.61,30.71-4.41c1.37-2.48-8.27-6.49-18.53-11.01c-1.29-0.56-2.59-1.15-3.88-1.73
				c-11.55-5.23-17.95-15.71-26.9-25.45c-8.47-9.23-16.3-38.58-16.3-38.58l-28.22-6.34c0,0,7.66,26.42,10.29,37.7
				c1.55,6.63-0.92,14-3.11,19.61C1704.94,1626.97,1703.75,1630.09,1703.41,1633.41z"/>
			<path class="st5" d="M1730.71,1646.17c15.18,0.92,10.56,3.98,31.33,7.97c20.77,3.99,29.17-1.61,30.71-4.41
				c1.37-2.48-8.27-6.49-18.53-11.01l-0.16,0.17c0,0-14.69,4.81-31.53,0.04c-13.73-3.89-26.95-12.26-36.41-15.02
				c-1.18,3.05-2.37,6.17-2.7,9.49C1702.44,1642.82,1715.53,1645.25,1730.71,1646.17z"/>
			<path class="st20" d="M1660.25,1306.51c-13.19-9.26-52.86-16.44-96.65-21.77c-12.11-1.47-22.05-10.28-25.01-22.11l0,0
				l-101.86-40.46c0,0-48.22,71.42-48.6,126.06c-0.18,25.48,11.56,28.01,11.56,28.01c0,0,181.6,1.35,189.56,2.17
				c13.03,1.34,30.22,33.8,34.51,63.37s80.02,149.81,80.02,149.81s15.79,5.06,23.1,4.63c7.85-0.46,11.49-3.09,11.49-3.09
				S1694.49,1330.55,1660.25,1306.51z"/>
			<path class="st21" d="M1524.04,970.22c0,0-29.69,15.18-8.06,47.79c0,0-25.51,2.95-31.93-4.39c0,0,0.97,3.21,2.1,4.77
				c0,0-24.72-3.24-33.57-12.61c-8.86-9.37,18.76-133.97,84.59-108.47c0,0,58.53,5.34,41.92,71.31s5.21,69.64,5.21,69.64
				s-6.57,1.97-9.5,1.48c0,0-4.01-2.35-4.46-4.86c0,0,0.22,3.86,1.12,5.23c0,0-23.93-1.72-34.2-12.59
				C1526.99,1016.67,1518.36,983.45,1524.04,970.22z"/>
			<path class="st12" d="M1566.42,1002.82l-2.38,0.33c-10.59,1.47-20.45-5.99-21.92-16.58l-1.72-12.43
				c-1.47-10.59,5.99-20.45,16.58-21.92l2.38-0.33c10.59-1.47,20.45,5.99,21.92,16.58l1.72,12.43
				C1584.47,991.49,1577.01,1001.35,1566.42,1002.82z"/>
			<path class="st4" d="M1573.21,1102.43c-8.86,6.84-14.47,31.53-28.75,35.61c-53.55,15.29-82.3-48.31-91.7-79.35
				c7.17-4.61,14.08-5.89,18.07-6.58c3.89-0.66,8-1.18,11.4-1.52c5.85-4.97,13.94-24.51,14.44-54.23l2.58,0.55l43.31,9.51
				c0,0-1.26,13.68-1.57,26.56c-0.23,10.08-0.56,12.49,0.22,13.69c3.37,0.55,7.34,9.17,7.34,9.17s0,0.01,0.02,0.04
				C1549.18,1056.79,1562.61,1076.53,1573.21,1102.43z"/>
			<path class="st22" d="M1542.55,1006.43c0,0-1.27,13.67-1.57,26.56c-24.32-1.19-36.72-23.65-41.74-36.07L1542.55,1006.43z"/>
			<g>
				<path class="st9" d="M1762.81,1231.02c0,0-25.46,0.94-53.12,1.03c-3.27,0.02-6.58,0.02-9.87,0c-22.53-0.1-44.66-0.88-54.08-3.31
					c-9.2-2.37-44.59-26.36-72.92-55.42c-0.01-0.01-0.01-0.01-0.01-0.01c-2.19,5.23-3.85,9.23-3.89,9.55
					c-0.84,6.53-2.23,13.06-3.91,19.33c-0.12,0.43-0.23,0.87-0.32,1.31c-0.08,0.34-0.14,0.7-0.21,1.05
					c-0.06,0.33-0.13,0.68-0.17,1.02c-3.04,18.65,6.23,46.93,8.92,61.3c0.86,4.56,1.05,7.72-0.01,8.73
					c-46.13,43.74-132.66,33.81-170.65,26.75c-9.2-1.71-14.17-11.77-9.95-20.14c14.65-28.97,42.13-92.97,37.69-158.2
					c-0.15-2.23,20.61-73.44,20.61-73.44s16.14-2.82,34.79-4.32c1.76,1.6,5.39,48.45,28.71,51.16c3.8,0.44,28.14,37.61,28.14,37.61
					l7.37-37.98l-8.72-50.39c11.19,3.28,17.33,4.46,26.64,8.17c6.33,2.54,11.58,7.21,14.85,13.19
					c16.3,29.79,69.2,125.85,74.59,128.09c5.05,2.1,24.11,5.9,44.27,9.58h0.01c26.98,4.94,55.94,9.61,55.94,9.61L1762.81,1231.02z"
					/>
				<path class="st9" d="M1555.97,1246.95l-8.48,0.03c0,0,0.02-0.03,0.03-0.03L1555.97,1246.95z"/>
			</g>
			<path class="st4" d="M1549.77,1019.45c0,0-57.58-1.13-56.33-36.98c1.25-35.85-5.33-60.14,31.49-60.93
				c36.82-0.79,43.48,13.13,45.97,25.2C1573.39,958.81,1564.78,1018.82,1549.77,1019.45z"/>
			<path class="st3" d="M1709.69,1232.06c-3.27,0.02-6.58,0.02-9.88,0c-22.52-0.09-44.66-0.88-54.07-3.31
				c-9.2-2.37-44.6-26.36-72.92-55.42c-0.01-0.01-0.01-0.02-0.01-0.02s5.97-22.87,8.55-26.7c2.57-3.84,12.74,33.38,36.48,48.52
				c23.74,15.14,60.9,25.75,78.94,21.46C1708.93,1213.69,1710.17,1224.61,1709.69,1232.06z"/>
			<path class="st14" d="M1538.46,999.5c0,0,0.37,4.29,9.81,4.97c0,0,7.93,0.57,8.26-4.04
				C1556.53,1000.42,1549.31,996.09,1538.46,999.5z"/>
			<g>
				<path class="st23" d="M1541.57,1014c-32.72-10.34-40.74-41.31-40.82-41.62l3.49-0.87l-1.75,0.43l1.74-0.43
					c0.07,0.29,7.67,29.35,38.42,39.06c0.21,0.07,0.41,0.13,0.62,0.19l-1.05,3.44C1542.01,1014.13,1541.79,1014.07,1541.57,1014z"/>
			</g>
			<path class="st12" d="M1545.28,1016.42l-3.09-0.97c-1.57-0.5-2.45-2.19-1.95-3.76l0,0c0.5-1.57,2.19-2.45,3.76-1.96l3.09,0.98
				c1.57,0.5,2.45,2.19,1.95,3.76l0,0C1548.54,1016.04,1546.85,1016.92,1545.28,1016.42z"/>
			<path class="st21" d="M1553.04,916.78c0,0-14.74,43.67-36.86,51.08c-22.11,7.41-29.45-1.36-29.45-1.36s16.3-14.97,18.17-39.19
				C1504.9,927.31,1540.63,898.93,1553.04,916.78z"/>
			<path class="st21" d="M1525.51,929.64c0,0,30.02-1.68,39,6.86c6.47,6.17,6.32,9.38,6.82,17.6c0,0,13.13-20.25-0.38-34.43
				C1556.62,904.64,1525.51,929.64,1525.51,929.64z"/>
			<path class="st21" d="M1551.76,921.4c0,0-7.52,41.78-35,56.96c0,0,26.62-27.25,27.09-54.51
				C1544.32,896.6,1551.76,921.4,1551.76,921.4z"/>
			<path class="st21" d="M1452.58,1005.79c8.85,9.37,33.57,12.61,33.57,12.61c-1.13-1.56-2.09-4.78-2.09-4.78
				c12.7,10.3,43.9,2.82,43.9,2.82c-24.88-5.5-16.83-41.41-8.36-42.94c4.93-27.08,14.71-60.8,19.3-75.95
				c-1.1-0.18-1.73-0.24-1.73-0.24C1471.34,871.83,1443.72,996.44,1452.58,1005.79z"/>
			<g>
				<path class="st12" d="M1506.63,999.13l-2.38,0.33c-10.59,1.47-20.45-5.99-21.92-16.58l-1.72-12.43
					c-1.47-10.59,5.99-20.45,16.58-21.92l2.38-0.33c10.59-1.47,20.45,5.99,21.92,16.58l1.72,12.43
					C1524.68,987.8,1517.22,997.66,1506.63,999.13z"/>
				<g>
					<path class="st12" d="M1491.08,953.8c-1.41-2.65,3.54-23.23,10.83-39.2c3.52-7.72,12.41-18.04,18.76-20.71
						c2.29-0.96,5.34-0.57,7.82-0.01c1.8,0.41,6.86,2.77,6.86,2.77c-20.85,6.5-38.98,50.2-37.66,54.73
						c-0.04-0.14-0.1-0.24-0.14-0.32L1491.08,953.8z"/>
				</g>
				<path class="st11" d="M1501.85,986.78l-1.18,0.16c-5.27,0.73-10.19-2.99-10.92-8.26l-0.86-6.19
					c-0.73-5.27,2.99-10.19,8.26-10.92l1.18-0.16c5.27-0.73,10.19,2.98,10.92,8.26l0.86,6.19
					C1510.84,981.13,1507.12,986.04,1501.85,986.78z"/>
			</g>
			<path class="st4" d="M1641.58,1210.27c0,0,24.69-1.42,27.09-0.13c3.9,2.1,17.16,10.64,19.24,13.12s7.52,12.44,7.52,12.44
				s-2.36,0.65-3.42-0.3c-1.06-0.96-9.12-9.52-9.12-9.52l8.28,12.57c0,0-2.86-0.13-4-1.38s-8.87-9.11-8.87-9.11l-2.64-0.52
				c0,0,2.68,2.15,4.14,4.1c1.46,1.95,2.42,4.04,2.42,4.04s-2.36-0.4-3.09-0.75c-0.73-0.35-7.67-6.42-7.67-6.42l3.68,5.02
				c0,0-2.48-0.12-3.29-0.67c-0.81-0.55-6.22-5.53-7.17-5.52c-0.96,0.01-7.85-0.28-10.81-1.85c-2.96-1.57-12.26-5.17-12.26-5.17
				L1641.58,1210.27z"/>
			<path class="st3" d="M1489.1,1039.39c0,0-16.51,4.81-20.28,8.61c0,0,17.26,44.13,42.15,64.73l6.65-4.72v10.73l24.92,16.31
				C1542.55,1135.04,1487.83,1052.74,1489.1,1039.39z"/>
			<path class="st3" d="M1573.22,1266.88c-13.06-5.06-56.87-22.8-74.48-39.35c-19.68-18.53-60.51-85.13-60.51-85.13l71.44-17.45
				c0,0,29.43,42.96,37.81,51.14c6.43,6.29,21.43,6.76,21.43,6.76l-3.91,19.33c-0.12,0.43-0.23,0.87-0.32,1.31
				c-0.08,0.34-0.14,0.7-0.21,1.05c-0.06,0.33-0.12,0.68-0.17,1.02C1561.25,1224.23,1570.52,1252.51,1573.22,1266.88z"/>
			<path class="st3" d="M1541.2,1046.67c0,0,7.6,60.05,1.35,88.37c0,0,10.2-18.74,11.63-22.17l-1.72-10.3l6.58,2.29
				c0,0-5.8-47.87-11.06-56.27c-5.25-8.39-7.19-9.21-7.19-9.21L1541.2,1046.67z"/>
			<path class="st4" d="M1762.81,1231.03c0,0-31.86,1.18-63,1.03c-7.72-11.98,1.73-26.34,1.73-26.34h0.02
				c26.98,4.93,55.93,9.6,55.93,9.6L1762.81,1231.03z"/>
			<path class="st12" d="M1765.83,1246.97h-117.74l0,0c0-5.18,4.2-9.39,9.39-9.39h108.36V1246.97z"/>
			<polygon class="st12" points="1947.53,1118.74 1903.87,1246.97 1720.65,1246.97 1765.49,1118.74 			"/>
			<polygon class="st11" points="1947.53,1118.74 1904.27,1245.79 1903.87,1246.97 1723.33,1246.97 1768.17,1118.74 			"/>
			<path class="st24" d="M1852.07,1181.67c-1.13,4.9-6.02,8.87-10.92,8.87c-4.9,0-7.95-3.97-6.82-8.87
				c1.13-4.9,6.02-8.87,10.92-8.87C1850.14,1172.8,1853.2,1176.77,1852.07,1181.67z"/>
			<polygon class="st12" points="1947.53,1118.74 1904.27,1245.79 1821.32,1245.79 1922.46,1118.74 			"/>
			<path class="st4" d="M1641.6,1220.24c0,0-60.61,5.3-94.11,3.8v-32.92c21.95,6.06,94.09,19.14,94.09,19.14L1641.6,1220.24z"/>
			<path class="st9" d="M1468.83,1048c0,0-34.66,0.79-45.39,12.38c-10.73,11.59,10.65,77.08,10.65,77.08s64.61,79.13,96.93,84.71
				c0,0,14.13,1.93,20.72,2.04c0,0-6.46-18.82,5.56-30.63c0,0-13.84-3.87-14.41-5.59S1468.83,1048,1468.83,1048z"/>
		</g>
	</g>
	<g>
		<g>
			<g>
				<path class="st25" d="M1186.02,1659.99h-0.24c-1.44,0-2.6-2.74-2.57-6.08l3.9-390.43l11.49-3.09l-9.79,393.55
					C1188.71,1657.34,1187.5,1659.99,1186.02,1659.99z"/>
			</g>
			<path class="st26" d="M1166.69,1270.67h665.61c5.55,0,10.05-4.5,10.05-10.05v-3.46c0-5.55-4.5-10.05-10.05-10.05h-665.61
				c-5.55,0-10.05,4.5-10.05,10.05v3.46C1156.64,1266.17,1161.14,1270.67,1166.69,1270.67z"/>
		</g>
		<g>
			<path class="st25" d="M2663.01,1659.99h0.24c1.44,0,2.6-2.74,2.57-6.08l-3.9-390.43l-11.49-3.09l9.79,393.55
				C2660.32,1657.34,2661.54,1659.99,2663.01,1659.99z"/>
		</g>
		<path class="st26" d="M1787.47,1270.67h888.77c6.4,0,11.59-5.19,11.59-11.59v-0.38c0-6.4-5.19-11.59-11.59-11.59h-888.77"/>
	</g>
	<g>
		<polygon class="st12" points="2054.88,1118.74 2098.83,1247.11 2281.77,1246.97 2236.92,1118.74 		"/>
		<polygon class="st27" points="2060.1,1121.55 2102.35,1245.81 2102.74,1246.97 2279.09,1246.97 2235.28,1121.55 		"/>
		<path class="st12" d="M2098.83,1247.11l255.49-0.14l0,0c0-5.18-4.2-9.39-9.39-9.39h-248.73L2098.83,1247.11z"/>
	</g>
	<g>
		<path class="st12" d="M2432.03,1029.16h-2.4c-10.69,0-19.43-8.75-19.43-19.43v-12.55c0-10.69,8.74-19.43,19.43-19.43h2.4
			c10.69,0,19.43,8.74,19.43,19.43v12.55C2451.46,1020.42,2442.72,1029.16,2432.03,1029.16z"/>
		<g>
			<g>
				<path class="st28" d="M2329.53,1614.7c0,0-2.58,40.17-10.35,40.73c-1.03,0.07-39.42-0.01-39.42-0.01l-49-0.39
					c0,0,0.35-11.81,14.68-14.27c14.33-2.47,38.33-12.48,47.04-31.39C2301.65,1589.47,2329.53,1614.7,2329.53,1614.7z"/>
				<path class="st29" d="M2469.8,1284.29c1.87,1.58,51.78,55.65,47.71,97.19c-1.2,12.2-11.71,21.37-23.96,21.37h-60.79
					c0,0-62.03,11.09-63.51,24.49c-1.48,13.41-14.17,85.67-39.33,188.36c0,0-18.54,6.38-29.78,1.82
					c-14.87-6.03-17.03-12.42-17.03-12.42s14.99-229.95,26.83-246.13s133.79-64.29,173.28-69.08
					C2522.7,1285.11,2469.8,1284.29,2469.8,1284.29z"/>
				<path class="st4" d="M2117.23,1226.94c0,0-35.27-8.2-44.3,0c-9.02,8.2-11.9,20.1-11.9,20.1h56.19V1226.94z"/>
				<path class="st30" d="M2243.65,1614.7c0,0-2.58,40.17-10.35,40.73c-1.03,0.07-39.42-0.01-39.42-0.01l-49-0.39
					c0,0,0.35-11.81,14.68-14.27c14.33-2.47,38.33-12.48,47.04-31.39C2215.76,1589.47,2243.65,1614.7,2243.65,1614.7z"/>
				<path class="st29" d="M2515.91,1284.29c1.42,1.19,12.22,30.26,19.43,63.27c6.21,28.41-15.4,55.29-44.48,55.29h-141.43
					c0,0-62.03,11.09-63.51,24.49c-1.48,13.41-14.17,85.67-39.33,188.36c0,0-18.6,4.88-33.13-1.33
					c-7.72-3.3-13.82-11.22-13.82-11.22s15.13-228,26.97-244.18s133.79-64.29,173.28-69.08
					C2439.39,1285.11,2515.91,1284.29,2515.91,1284.29z"/>
				<path class="st4" d="M2437.52,1078.72l-21.87,21l-37.27,0.01c-0.04-3,0.08-15.49,0.21-26.82c0.01-0.67,0.02-1.33,0.03-1.99
					c0.03-2.51,0.06-4.94,0.09-7.15c0.07-6.24,0.14-10.76,0.14-10.76l9.58-6.55l21.28-14.57l11.51-7.87
					c0.01,0.19,0.95,10.49,1.1,11.98C2424.87,1062.66,2437.52,1078.72,2437.52,1078.72z"/>
				<path class="st3" d="M2383.34,1074.93c0.71-0.3,41.03-18.39,45.75-16.83c4.72,1.56,10.59,15.96,10.59,15.96l-71,16.05
					C2368.68,1090.12,2374.27,1078.75,2383.34,1074.93z"/>
				<path class="st9" d="M2557.74,1195.77c-7.68-47.37-40.12-82.83-54-96.12c-9.32-14.02-64.06-25.59-64.06-25.59
					s-45.35,10.25-71,16.05c0,0-40.02,4.34-62.58,41.67c-13.96,23.08-53.93,75.88-80.18,77.52
					c-26.25,1.64-108.69,17.64-108.69,17.64v20.28l125.69,3.45c1.54,0.04,3.06-0.08,4.57-0.36c10.82-2.04,57.18-11.25,80.23-23.25
					c3.68,59.37,8.03,150.03,28.77,164.43c21.93,15.23,176.17,17.26,192.5-5.95c8.36-11.88-1.89-82.21-14.7-150.03
					C2550.21,1227.94,2560.96,1215.63,2557.74,1195.77z"/>
				<path class="st31" d="M2415.26,1044.3l-1.9,1.18c0,0-17.54,12.63-34.65,18.29c0.07-6.24,0.14-10.76,0.14-10.76l9.58-6.55
					L2415.26,1044.3z"/>
				<path class="st4" d="M2365.79,1053.34c0,0,57.34,6.78,61.01-28.99c3.68-35.77,13.55-58.99-22.9-64.83
					c-36.45-5.84-44.98,7.07-49.11,18.72C2350.66,989.88,2350.97,1050.65,2365.79,1053.34z"/>
				<path class="st30" d="M2356.31,974.57c0,0,10.82,38.81,18.66,35.57c7.84-3.24,15-5.89,16.03,6.23
					c1.03,12.12,5.58,26.32,31.12,23.73c25.54-2.59,36.27-72.55,27.07-83.54C2422.64,924.86,2319.43,936.73,2356.31,974.57z"/>
			</g>
			<g>
				<path class="st15" d="M2315.7,1410.55h283.63c10.77,0,19.5-8.73,19.5-19.5v-12.68H2315.7V1410.55z"/>
				<path class="st11" d="M2281.71,1410.55h214.58c7.96,0,14.42-6.46,14.42-14.42v-3.34c0-7.97-6.46-14.42-14.42-14.42h-214.58
					c-7.96,0-14.42,6.46-14.42,14.42v3.34C2267.29,1404.09,2273.75,1410.55,2281.71,1410.55z"/>
				<g>
					<polygon class="st32" points="2460.35,1643.35 2478.64,1643.35 2483.78,1410.55 2455.83,1410.55 					"/>
					<polygon class="st32" points="2380.84,1643.35 2558.77,1643.35 2558.77,1627.28 2468.08,1619.1 2380.84,1627.28 					"/>
					<path class="st32" d="M2576.05,1640.83c0-8.08-6.55-14.64-14.64-14.64c-8.08,0-14.64,6.55-14.64,14.64
						c0,8.08,6.55,14.64,14.64,14.64C2569.5,1655.46,2576.05,1648.91,2576.05,1640.83z"/>
					<path class="st32" d="M2398.12,1640.83c0-8.08-6.55-14.64-14.64-14.64s-14.64,6.55-14.64,14.64c0,8.08,6.55,14.64,14.64,14.64
						S2398.12,1648.91,2398.12,1640.83z"/>
					<path class="st32" d="M2387.22,1425.82h165.17c8.43,0,15.27-6.84,15.27-15.27l0,0h-195.72l0,0
						C2371.94,1418.98,2378.78,1425.82,2387.22,1425.82z"/>
				</g>
				<path class="st11" d="M2590.81,1410.55c7.69,0,13.93-6.24,13.93-13.93v-214.37c0-40.17-26.26-72.74-58.66-72.74h-132.65
					c-32.4,0-58.66,32.57-58.66,72.74v228.3H2590.81z"/>
				<path class="st17" d="M2593.43,1410.55c14.03,0,25.4-11.37,25.4-25.4v-202.9c0-40.17-26.26-72.74-58.66-72.74h-132.65
					c-32.4,0-58.66,32.57-58.66,72.74v228.3H2593.43z"/>
			</g>
		</g>
		<g>
			<g>
				<path class="st23" d="M2345.41,1054.11c32.72-10.34,40.74-41.31,40.82-41.62l-3.49-0.86l1.74,0.43l-1.74-0.43
					c-0.07,0.29-7.67,29.35-38.42,39.06c-0.21,0.06-0.41,0.13-0.62,0.19l1.05,3.44C2344.98,1054.25,2345.2,1054.18,2345.41,1054.11z
					"/>
			</g>
			<path class="st12" d="M2341.71,1056.54l3.08-0.97c1.57-0.5,2.45-2.19,1.96-3.76l0,0c-0.5-1.57-2.19-2.45-3.76-1.95l-3.08,0.97
				c-1.57,0.5-2.45,2.19-1.95,3.76l0,0C2338.45,1056.15,2340.14,1057.03,2341.71,1056.54z"/>
		</g>
		<g>
			<path class="st12" d="M2386.74,1042.01l-2.38,0.33c-10.59,1.47-20.45-5.99-21.92-16.58l-1.72-12.43
				c-1.47-10.59,5.99-20.45,16.58-21.92l2.38-0.33c10.59-1.47,20.45,5.99,21.92,16.58l1.72,12.43
				C2404.79,1030.68,2397.33,1040.54,2386.74,1042.01z"/>
			<g>
				<path class="st12" d="M2371.19,996.68c-1.41-2.65,3.54-23.23,10.83-39.2c3.52-7.72,12.41-18.04,18.76-20.71
					c2.29-0.96,5.34-0.57,7.82-0.01c1.8,0.41,6.86,3.35,6.86,3.35c-20.85,6.5-38.98,49.63-37.66,54.15
					c-0.04-0.14-0.1-0.24-0.14-0.32L2371.19,996.68z"/>
			</g>
			<path class="st11" d="M2381.96,1029.66l-1.18,0.17c-5.27,0.73-10.19-2.99-10.92-8.26l-0.86-6.19
				c-0.73-5.27,2.99-10.19,8.26-10.92l1.18-0.16c5.28-0.73,10.19,2.99,10.92,8.26l0.86,6.19
				C2390.95,1024.01,2387.23,1028.92,2381.96,1029.66z"/>
		</g>
	</g>
	<path class="st33" d="M3054.18,1655.75v1.07c0,1.71-1.48,3.12-3.27,3.12H170.05c-1.79,0-3.27-1.41-3.27-3.12v-1.07
		c0-1.71,1.48-3.12,3.27-3.12h2880.86C3052.71,1652.63,3054.18,1654.04,3054.18,1655.75z"/>
	<g>
		<path class="st34" d="M2305.88,1004.54l-32.85-19.32c4.42-11.79,6.96-24.51,6.96-37.85c0-59.61-48.32-107.93-107.93-107.93
			s-107.93,48.32-107.93,107.93c0,59.61,48.32,107.93,107.93,107.93c37.09,0,69.78-18.72,89.21-47.2L2305.88,1004.54z"/>
		<g>
			<circle class="st14" cx="2131.28" cy="944.2" r="11.21"/>
			<circle class="st14" cx="2173.05" cy="944.2" r="11.21"/>
			<circle class="st14" cx="2214.82" cy="944.2" r="11.21"/>
		</g>
	</g>
	<g>
		<path class="st34" d="M905.22,854.06c22.06,26.51,56.38,42.03,93.3,38.5c59.34-5.67,102.84-58.37,97.17-117.71
			c-5.67-59.34-58.37-102.84-117.71-97.17c-59.34,5.67-102.84,58.37-97.17,117.71c1.27,13.28,5,25.7,10.53,37.02l-30.86,22.36
			L905.22,854.06z"/>
		<g>
			<circle class="st14" cx="1028.54" cy="778.09" r="11.21"/>
			<circle class="st14" cx="986.96" cy="782.06" r="11.21"/>
			<circle class="st14" cx="945.38" cy="786.04" r="11.21"/>
		</g>
	</g>
	<line class="st35" x1="775.59" y1="1218.33" x2="768.86" y2="1334.29"/>
	<g>
		<path class="st36" d="M1533.5,972.39c0.19,2.48,1.87,4.36,3.75,4.22c1.88-0.15,3.25-2.27,3.06-4.75s-1.87-4.36-3.75-4.22
			C1534.68,967.78,1533.31,969.91,1533.5,972.39z"/>
		<path class="st36" d="M1569.36,960.94c-1.44-0.68-2.82-1.26-4.23-1.67s-2.82-0.66-4.21-0.7c-1.39-0.03-2.76,0.12-4.06,0.54
			c-1.31,0.42-2.54,1.11-3.77,2.07l-1.02-0.74c0.66-1.63,1.99-3.05,3.63-3.91c1.63-0.88,3.51-1.26,5.32-1.17
			c1.81,0.08,3.57,0.57,5.14,1.36c1.56,0.79,2.96,1.89,4,3.25L1569.36,960.94z"/>
		<path class="st36" d="M1529.69,964.41c0.88-2.82,3.61-5.09,6.71-5.64c1.54-0.3,3.15-0.16,4.61,0.34c1.45,0.5,2.76,1.37,3.66,2.55
			l-0.74,1.02c-1.27-0.39-2.44-0.68-3.59-0.82c-1.15-0.14-2.28-0.1-3.37,0.08c-1.1,0.19-2.16,0.54-3.19,1.07s-2,1.24-3.02,2.09
			L1529.69,964.41z"/>
		<path class="st36" d="M1558.1,969.44c0.19,2.48,1.87,4.36,3.75,4.22c1.88-0.15,3.25-2.27,3.06-4.75s-1.87-4.36-3.75-4.22
			C1559.27,964.83,1557.91,966.96,1558.1,969.44z"/>
	</g>
	<path class="st37" d="M1547.69,994.13c-0.15-0.58,0.2-1.16,0.77-1.31l0.22-0.06c1.85-0.48,4.15-1.07,5.12-2.47
		c0.61-0.89,0.22-2.23-1.25-4.21c-2.09-2.83-4.47-6.67-4.27-11.24c0.03-0.6,0.52-1.05,1.12-1.03c0.6,0.03,1.06,0.53,1.03,1.12
		c-0.17,3.9,1.97,7.33,3.85,9.87c0.84,1.13,3.06,4.14,1.28,6.71c-1.43,2.06-4.27,2.79-6.35,3.33l-0.21,0.06
		c-0.09,0.02-0.18,0.03-0.27,0.03C1548.25,994.93,1547.82,994.61,1547.69,994.13z"/>
	<g>
		<path class="st36" d="M782.51,846.79c0,2.54-1.47,4.61-3.3,4.61c-1.82,0-3.3-2.06-3.3-4.61c0-2.54,1.47-4.61,3.3-4.61
			S782.51,844.24,782.51,846.79z"/>
		<path class="st36" d="M802.28,845.91c0,2.54-1.47,4.61-3.3,4.61c-1.82,0-3.3-2.06-3.3-4.61c0-2.54,1.47-4.61,3.3-4.61
			C800.8,841.3,802.28,843.37,802.28,845.91z"/>
		<path class="st38" d="M791.63,869.07c-0.36,0-0.69-0.23-0.82-0.58c-0.15-0.45,0.08-0.94,0.54-1.1l0.2-0.07
			c1.77-0.6,3.97-1.36,4.84-2.84c0.57-0.97,0.08-2.29-1.53-4.16c-2.21-2.54-4.76-6.02-4.91-10.39c-0.02-0.48,0.35-0.88,0.84-0.89
			c0.47-0.02,0.88,0.35,0.89,0.84c0.13,3.82,2.46,6.99,4.49,9.32c0.87,1.01,3.18,3.66,1.72,6.17c-1.19,2.03-3.83,2.94-5.77,3.6
			l-0.2,0.07C791.82,869.06,791.73,869.07,791.63,869.07z"/>
		<path class="st14" d="M780.99,871.32l17.87,4.61C798.86,875.93,783.72,887.98,780.99,871.32z"/>
		<path class="st36" d="M768.49,840.58c0.76-1.18,1.84-2.13,3.06-2.89c1.23-0.74,2.63-1.23,4.09-1.43c2.91-0.41,6.01,0.46,8,2.47
			l-0.61,1.2c-1.3-0.14-2.46-0.31-3.61-0.35c-1.14-0.06-2.24-0.03-3.33,0.1c-1.1,0.13-2.19,0.37-3.29,0.71
			c-1.11,0.32-2.21,0.77-3.43,1.23L768.49,840.58z"/>
		<path class="st36" d="M804.34,839.09c-1.17-0.23-2.21-0.56-3.22-0.79c-1-0.25-1.93-0.43-2.83-0.48c-0.89-0.05-1.76,0.02-2.68,0.19
			c-0.93,0.18-1.89,0.49-3.02,0.81l-0.85-1.05c0.64-1.1,1.62-2,2.82-2.62c1.19-0.62,2.63-0.89,3.99-0.77
			c1.37,0.1,2.64,0.56,3.73,1.18c1.09,0.64,2.03,1.42,2.79,2.38L804.34,839.09z"/>
	</g>
	<g>
		<path class="st34" d="M1278.14,1462.22c-8.58,0-15.57-7.16-15.57-15.97s6.98-15.97,15.57-15.97c8.58,0,15.57,7.16,15.57,15.97
			S1286.73,1462.22,1278.14,1462.22z M1278.14,1434.58c-6.22,0-11.27,5.24-11.27,11.67s5.06,11.67,11.27,11.67
			c6.22,0,11.27-5.24,11.27-11.67S1284.36,1434.58,1278.14,1434.58z"/>
		<path class="st34" d="M161.3,1213.24c-10.71,0-19.43-9.21-19.43-20.53c0-11.32,8.72-20.53,19.43-20.53
			c10.71,0,19.43,9.21,19.43,20.53C180.73,1204.03,172.01,1213.24,161.3,1213.24z M161.3,1176.47c-8.34,0-15.13,7.29-15.13,16.24
			c0,8.95,6.79,16.24,15.13,16.24c8.35,0,15.13-7.29,15.13-16.24C176.43,1183.75,169.65,1176.47,161.3,1176.47z"/>
		<ellipse class="st34" cx="962.86" cy="1668.26" rx="15.03" ry="14.94"/>
		<ellipse class="st34" cx="2860.13" cy="1138.58" rx="19.32" ry="19.2"/>
		<path class="st34" d="M1605.04,1029.29c-10.31,0-18.69-8.8-18.69-19.61s8.39-19.61,18.69-19.61s18.69,8.8,18.69,19.61
			C1623.73,1020.49,1615.35,1029.29,1605.04,1029.29z M1605.04,994.36c-7.94,0-14.4,6.87-14.4,15.32s6.46,15.32,14.4,15.32
			s14.4-6.87,14.4-15.32S1612.98,994.36,1605.04,994.36z"/>
		<path class="st34" d="M2138.13,1163.72l-21.22-21.72l21.65-22.16l21.22,21.72L2138.13,1163.72z M2122.92,1142l15.22,15.57
			l15.65-16.02l-15.22-15.57L2122.92,1142z"/>
		
			<rect x="271.86" y="912.95" transform="matrix(0.7071 -0.7071 0.7071 0.7071 -571.4294 473.3657)" class="st34" width="27.65" height="27.01"/>
		<path class="st34" d="M792.13,1479.18l-21.22-21.72l21.65-22.16l21.22,21.72L792.13,1479.18z M776.92,1457.46l15.22,15.57
			l15.65-16.02l-15.22-15.57L776.92,1457.46z"/>
		<path class="st34" d="M2793.09,803.73l-18.98-18.98l19.36-19.36l18.98,18.98L2793.09,803.73z M2780.19,784.75l12.91,12.9
			l13.28-13.28l-12.9-12.9L2780.19,784.75z"/>
		<g>
			<path class="st34" d="M1428.14,1502.21H1224.3c-1.22,0-2.21-0.99-2.21-2.21s0.99-2.21,2.21-2.21h203.84
				c1.22,0,2.21,0.99,2.21,2.21S1429.36,1502.21,1428.14,1502.21z"/>
			<path class="st34" d="M1262.86,1546.18h-38.56c-1.22,0-2.21-0.99-2.21-2.21s0.99-2.21,2.21-2.21h38.56
				c1.22,0,2.21,0.99,2.21,2.21S1264.08,1546.18,1262.86,1546.18z"/>
			<path class="st34" d="M1373.83,1546.18h-79.75c-1.22,0-2.21-0.99-2.21-2.21s0.99-2.21,2.21-2.21h79.75
				c1.22,0,2.21,0.99,2.21,2.21S1375.05,1546.18,1373.83,1546.18z"/>
			<path class="st34" d="M1428.14,1590.15H1224.3c-1.22,0-2.21-0.99-2.21-2.21s0.99-2.21,2.21-2.21h203.84
				c1.22,0,2.21,0.99,2.21,2.21S1429.36,1590.15,1428.14,1590.15z"/>
		</g>
	</g>
</g>
</svg>
